<svg xmlns="http://www.w3.org/2000/svg" xmlns:xlink="http://www.w3.org/1999/xlink" xmlns:lucid="lucid" width="727.81" height="1438.7"><g transform="translate(0 0)" lucid:page-tab-id="0_0"><path d="M33.85 358.85c0-2.76 2.24-5 5-5h190c2.76 0 5 2.24 5 5v94c0 2.76-2.24 5-5 5h-190c-2.76 0-5-2.24-5-5z" fill="#fff"/><path d="M33.85 358.85c0-2.76 2.24-5 5-5h190c2.76 0 5 2.24 5 5v94c0 2.76-2.24 5-5 5h-190c-2.76 0-5-2.24-5-5zM33.85 393.85h200M133.85 393.85v64" stroke="#666" stroke-width="2" fill="none"/><use xlink:href="#a" transform="matrix(1,0,0,1,43.85185185185185,353.85185185185185) translate(41.05 23.6)"/><use xlink:href="#b" transform="matrix(1,0,0,1,38.85185185185185,396.35185185185185) translate(0 17.1)"/><use xlink:href="#c" transform="matrix(1,0,0,1,138.85185185185185,396.35185185185185) translate(0 17.1)"/><use xlink:href="#d" transform="matrix(1,0,0,1,38.85185185185185,428.35185185185185) translate(0 17.1)"/><use xlink:href="#e" transform="matrix(1,0,0,1,138.85185185185185,428.35185185185185) translate(0 17.1)"/><path d="M33.85 598.85c0-2.76 2.24-5 5-5h190c2.76 0 5 2.24 5 5v190c0 2.76-2.24 5-5 5h-190c-2.76 0-5-2.24-5-5z" fill="#fff"/><path d="M33.85 598.85c0-2.76 2.24-5 5-5h190c2.76 0 5 2.24 5 5v190c0 2.76-2.24 5-5 5h-190c-2.76 0-5-2.24-5-5zM33.85 633.85h200M133.85 633.85v160" stroke="#666" stroke-width="2" fill="none"/><use xlink:href="#f" transform="matrix(1,0,0,1,43.85185185185185,593.8518518518518) translate(67.5 23.6)"/><use xlink:href="#b" transform="matrix(1,0,0,1,38.85185185185185,636.3518518518518) translate(0 17.1)"/><use xlink:href="#c" transform="matrix(1,0,0,1,138.85185185185185,636.3518518518518) translate(0 17.1)"/><use xlink:href="#d" transform="matrix(1,0,0,1,38.85185185185185,668.3518518518518) translate(0 17.1)"/><use xlink:href="#e" transform="matrix(1,0,0,1,138.85185185185185,668.3518518518518) translate(0 17.1)"/><use xlink:href="#g" transform="matrix(1,0,0,1,38.85185185185185,700.3518518518518) translate(0 17.1)"/><use xlink:href="#h" transform="matrix(1,0,0,1,138.85185185185185,700.3518518518518) translate(0 17.1)"/><use xlink:href="#i" transform="matrix(1,0,0,1,38.85185185185185,732.3518518518518) translate(0 17.1)"/><use xlink:href="#j" transform="matrix(1,0,0,1,138.85185185185185,732.3518518518518) translate(0 17.1)"/><use xlink:href="#k" transform="matrix(1,0,0,1,38.85185185185185,764.3518518518518) translate(0 17.1)"/><use xlink:href="#l" transform="matrix(1,0,0,1,138.85185185185185,764.3518518518518) translate(0 17.1)"/><path d="M34 138.85c0-2.76 2.24-5 5-5h190c2.76 0 5 2.24 5 5v94c0 2.76-2.24 5-5 5H39c-2.76 0-5-2.24-5-5z" fill="#fff"/><path d="M34 138.85c0-2.76 2.24-5 5-5h190c2.76 0 5 2.24 5 5v94c0 2.76-2.24 5-5 5H39c-2.76 0-5-2.24-5-5zM34 173.85h200M134 173.85v64" stroke="#666" stroke-width="2" fill="none"/><use xlink:href="#m" transform="matrix(1,0,0,1,44,133.85185185185185) translate(5.099999999999994 23.6)"/><use xlink:href="#b" transform="matrix(1,0,0,1,39,176.35185185185185) translate(0 17.1)"/><use xlink:href="#c" transform="matrix(1,0,0,1,139,176.35185185185185) translate(0 17.1)"/><use xlink:href="#n" transform="matrix(1,0,0,1,39,208.35185185185185) translate(0 17.1)"/><use xlink:href="#e" transform="matrix(1,0,0,1,139,208.35185185185185) translate(0 17.1)"/><path d="M134.85 334.62h-2v-23.06h2zm.15-66.26h-2v-29.5h2zM135 238.85h-2v-1h2zM133.85 349.62l-4.63-14.27h9.27z" fill="#999"/><path d="M133.85 352.85l-6-18.5h12zm-3.26-16.5l3.25 10.03 3.26-10.03z" fill="#999"/><use xlink:href="#o" transform="matrix(1,0,0,1,68.125,268.35739530380056) translate(11.204999999999991 14.4)"/><use xlink:href="#p" transform="matrix(1,0,0,1,68.125,268.35739530380056) translate(81.555 14.4)"/><use xlink:href="#q" transform="matrix(1,0,0,1,68.125,268.35739530380056) translate(0.0049999999999954525 36)"/><use xlink:href="#r" transform="matrix(1,0,0,1,68.125,268.35739530380056) translate(71.905 36)"/><path d="M134.85 574.62h-2V537.6h2zm0-80.22h-2v-35.55h2z" fill="#999"/><path d="M134.85 458.85h-2v-1h2zM133.85 589.62l-4.63-14.27h9.27z" fill="#999"/><path d="M133.85 592.85l-6-18.5h12zm-3.26-16.5l3.25 10.03 3.26-10.03z" fill="#999"/><use xlink:href="#s" transform="matrix(1,0,0,1,50.47685185185185,494.4) translate(38.17999999999999 14.4)"/><use xlink:href="#t" transform="matrix(1,0,0,1,50.47685185185185,494.4) translate(89.58 14.4)"/><use xlink:href="#q" transform="matrix(1,0,0,1,50.47685185185185,494.4) translate(0.0049999999999954525 36)"/><use xlink:href="#u" transform="matrix(1,0,0,1,50.47685185185185,494.4) translate(71.905 36)"/><path d="M135 114.62h-2V99.38h2zm-.15-58.44h-2V33.85h2zM134 129.62l-4.64-14.27h9.28z" fill="#999"/><path d="M134 132.85l-6-18.5h12zm-3.26-16.5l3.26 10.03 3.26-10.03z" fill="#999"/><use xlink:href="#s" transform="matrix(1,0,0,1,88.65185185185184,56.183348389039416) translate(0.005000000000002558 14.4)"/><use xlink:href="#p" transform="matrix(1,0,0,1,88.65185185185184,56.183348389039416) translate(51.40500000000001 14.4)"/><use xlink:href="#v" transform="matrix(1,0,0,1,88.65185185185184,56.183348389039416) translate(20.230000000000004 36)"/><path d="M513.85 838.85c0-2.76 2.24-5 5-5h190c2.76 0 5 2.24 5 5v190c0 2.76-2.24 5-5 5h-190c-2.76 0-5-2.24-5-5z" fill="#fff"/><path d="M513.85 838.85c0-2.76 2.24-5 5-5h190c2.76 0 5 2.24 5 5v190c0 2.76-2.24 5-5 5h-190c-2.76 0-5-2.24-5-5zM513.85 873.85h200M613.85 873.85v160" stroke="#666" stroke-width="2" fill="none"/><use xlink:href="#f" transform="matrix(1,0,0,1,523.8518518518518,833.8518518518518) translate(67.5 23.6)"/><use xlink:href="#b" transform="matrix(1,0,0,1,518.8518518518518,876.3518518518518) translate(0 17.1)"/><use xlink:href="#c" transform="matrix(1,0,0,1,618.8518518518518,876.3518518518518) translate(0 17.1)"/><use xlink:href="#d" transform="matrix(1,0,0,1,518.8518518518518,908.3518518518518) translate(0 17.1)"/><use xlink:href="#e" transform="matrix(1,0,0,1,618.8518518518518,908.3518518518518) translate(0 17.1)"/><use xlink:href="#g" transform="matrix(1,0,0,1,518.8518518518518,940.3518518518518) translate(0 17.1)"/><use xlink:href="#h" transform="matrix(1,0,0,1,618.8518518518518,940.3518518518518) translate(0 17.1)"/><use xlink:href="#i" transform="matrix(1,0,0,1,518.8518518518518,972.3518518518518) translate(0 17.1)"/><use xlink:href="#j" transform="matrix(1,0,0,1,618.8518518518518,972.3518518518518) translate(0 17.1)"/><use xlink:href="#k" transform="matrix(1,0,0,1,518.8518518518518,1004.3518518518518) translate(0 17.1)"/><use xlink:href="#w" transform="matrix(1,0,0,1,618.8518518518518,1004.3518518518518) translate(0 17.1)"/><path d="M374.85 814.62h-2v-15.17h2zm-140-35.77v-2h80.2v2zM234.85 778.85h-1v-2h1zM373.85 829.62l-4.63-14.27h9.27z" fill="#999"/><path d="M373.85 832.85l-6-18.5h12zm-3.26-16.5l3.25 10.03 3.26-10.03z" fill="#999"/><use xlink:href="#o" transform="matrix(1,0,0,1,315.0389299218456,756.2518518518518) translate(0.730000000000004 14.4)"/><use xlink:href="#p" transform="matrix(1,0,0,1,315.0389299218456,756.2518518518518) translate(71.08000000000001 14.4)"/><use xlink:href="#q" transform="matrix(1,0,0,1,315.0389299218456,756.2518518518518) translate(0.005000000000002558 36)"/><use xlink:href="#x" transform="matrix(1,0,0,1,315.0389299218456,756.2518518518518) translate(71.905 36)"/><path d="M612.42 777.97l2.13 2.9.3 1.9v31.85h-2v-31.7l-.2-1.25-1.46-2-2.5-.82H425.83v-2H609zm-377.57.88v-2h80.2v2z" fill="#999"/><path d="M234.85 778.85h-1v-2h1zM613.85 829.62l-4.63-14.27h9.27z" fill="#999"/><path d="M613.85 832.85l-6-18.5h12zm-3.26-16.5l3.25 10.03 3.26-10.03z" fill="#999"/><path d="M273.85 838.85c0-2.76 2.24-5 5-5h190c2.76 0 5 2.24 5 5v190c0 2.76-2.24 5-5 5h-190c-2.76 0-5-2.24-5-5z" fill="#fff"/><path d="M273.85 838.85c0-2.76 2.24-5 5-5h190c2.76 0 5 2.24 5 5v190c0 2.76-2.24 5-5 5h-190c-2.76 0-5-2.24-5-5zM273.85 873.85h200M373.85 873.85v160" stroke="#666" stroke-width="2" fill="none"/><use xlink:href="#f" transform="matrix(1,0,0,1,283.85185185185185,833.8518518518518) translate(67.5 23.6)"/><use xlink:href="#b" transform="matrix(1,0,0,1,278.85185185185185,876.3518518518518) translate(0 17.1)"/><use xlink:href="#c" transform="matrix(1,0,0,1,378.85185185185185,876.3518518518518) translate(0 17.1)"/><use xlink:href="#d" transform="matrix(1,0,0,1,278.85185185185185,908.3518518518518) translate(0 17.1)"/><use xlink:href="#e" transform="matrix(1,0,0,1,378.85185185185185,908.3518518518518) translate(0 17.1)"/><use xlink:href="#g" transform="matrix(1,0,0,1,278.85185185185185,940.3518518518518) translate(0 17.1)"/><use xlink:href="#h" transform="matrix(1,0,0,1,378.85185185185185,940.3518518518518) translate(0 17.1)"/><use xlink:href="#i" transform="matrix(1,0,0,1,278.85185185185185,972.3518518518518) translate(0 17.1)"/><use xlink:href="#j" transform="matrix(1,0,0,1,378.85185185185185,972.3518518518518) translate(0 17.1)"/><use xlink:href="#k" transform="matrix(1,0,0,1,278.85185185185185,1004.3518518518518) translate(0 17.1)"/><use xlink:href="#y" transform="matrix(1,0,0,1,378.85185185185185,1004.3518518518518) translate(0 17.1)"/><path d="M614.85 1185.62h-2v-44.67h2zM465 1116.7l2 1.45 1.27.2h32.52v2h-32.7l-1.9-.3-2.9-2.13-1.1-3.4v-79.67h2v79.34zM464.2 1034.85h-2v-1h2zM613.85 1200.62l-4.63-14.27h9.27z" fill="#999"/><path d="M613.85 1203.85l-6-18.5h12zm-3.26-16.5l3.25 10.03 3.26-10.03z" fill="#999"/><use xlink:href="#o" transform="matrix(1,0,0,1,500.78518518518536,1097.7518518518518) translate(7.730000000000004 14.4)"/><use xlink:href="#p" transform="matrix(1,0,0,1,500.78518518518536,1097.7518518518518) translate(78.08000000000001 14.4)"/><use xlink:href="#q" transform="matrix(1,0,0,1,500.78518518518536,1097.7518518518518) translate(0.005000000000002558 36)"/><use xlink:href="#z" transform="matrix(1,0,0,1,500.78518518518536,1097.7518518518518) translate(71.905 36)"/><path d="M614.85 1185.62h-2v-44.67h2zm0-87.87h-2v-62.9h2zM614.85 1034.85h-2v-1h2zM613.85 1200.62l-4.63-14.27h9.27z" fill="#999"/><path d="M613.85 1203.85l-6-18.5h12zm-3.26-16.5l3.25 10.03 3.26-10.03z" fill="#999"/><path d="M513.85 1209.85c0-2.76 2.24-5 5-5h190c2.76 0 5 2.24 5 5v190c0 2.76-2.24 5-5 5h-190c-2.76 0-5-2.24-5-5z" fill="#fff"/><path d="M513.85 1209.85c0-2.76 2.24-5 5-5h190c2.76 0 5 2.24 5 5v190c0 2.76-2.24 5-5 5h-190c-2.76 0-5-2.24-5-5zM513.85 1244.85h200M613.85 1244.85v160" stroke="#666" stroke-width="2" fill="none"/><use xlink:href="#f" transform="matrix(1,0,0,1,523.8518518518518,1204.851851851852) translate(67.5 23.6)"/><use xlink:href="#b" transform="matrix(1,0,0,1,518.8518518518518,1247.351851851852) translate(0 17.1)"/><use xlink:href="#c" transform="matrix(1,0,0,1,618.8518518518518,1247.351851851852) translate(0 17.1)"/><use xlink:href="#d" transform="matrix(1,0,0,1,518.8518518518518,1279.351851851852) translate(0 17.1)"/><use xlink:href="#e" transform="matrix(1,0,0,1,618.8518518518518,1279.351851851852) translate(0 17.1)"/><use xlink:href="#g" transform="matrix(1,0,0,1,518.8518518518518,1311.351851851852) translate(0 17.1)"/><use xlink:href="#h" transform="matrix(1,0,0,1,618.8518518518518,1311.351851851852) translate(0 17.1)"/><use xlink:href="#i" transform="matrix(1,0,0,1,518.8518518518518,1343.351851851852) translate(0 17.1)"/><use xlink:href="#j" transform="matrix(1,0,0,1,618.8518518518518,1343.351851851852) translate(0 17.1)"/><use xlink:href="#k" transform="matrix(1,0,0,1,518.8518518518518,1375.351851851852) translate(0 17.1)"/><use xlink:href="#A" transform="matrix(1,0,0,1,618.8518518518518,1375.351851851852) translate(0 17.1)"/><path d="M33.85 897.85c0-2.76 2.24-5 5-5h190c2.76 0 5 2.24 5 5v222c0 2.76-2.24 5-5 5h-190c-2.76 0-5-2.24-5-5z" fill="#fff"/><path d="M33.85 897.85c0-2.76 2.24-5 5-5h190c2.76 0 5 2.24 5 5v222c0 2.76-2.24 5-5 5h-190c-2.76 0-5-2.24-5-5zM33.85 932.85h200M133.85 932.85v192" stroke="#666" stroke-width="2" fill="none"/><use xlink:href="#B" transform="matrix(1,0,0,1,43.85185185185185,892.8518518518518) translate(23.424999999999997 23.6)"/><use xlink:href="#b" transform="matrix(1,0,0,1,38.85185185185185,935.3518518518518) translate(0 17.1)"/><use xlink:href="#c" transform="matrix(1,0,0,1,138.85185185185185,935.3518518518518) translate(0 17.1)"/><use xlink:href="#d" transform="matrix(1,0,0,1,38.85185185185185,967.3518518518518) translate(0 17.1)"/><use xlink:href="#e" transform="matrix(1,0,0,1,138.85185185185185,967.3518518518518) translate(0 17.1)"/><use xlink:href="#C" transform="matrix(1,0,0,1,38.85185185185185,999.3518518518518) translate(0 17.1)"/><use xlink:href="#D" transform="matrix(1,0,0,1,138.85185185185185,999.3518518518518) translate(0 17.1)"/><use xlink:href="#g" transform="matrix(1,0,0,1,38.85185185185185,1031.3518518518517) translate(0 17.1)"/><use xlink:href="#h" transform="matrix(1,0,0,1,138.85185185185185,1031.3518518518517) translate(0 17.1)"/><use xlink:href="#i" transform="matrix(1,0,0,1,38.85185185185185,1063.3518518518517) translate(0 17.1)"/><use xlink:href="#j" transform="matrix(1,0,0,1,138.85185185185185,1063.3518518518517) translate(0 17.1)"/><use xlink:href="#k" transform="matrix(1,0,0,1,38.85185185185185,1095.3518518518517) translate(0 17.1)"/><use xlink:href="#A" transform="matrix(1,0,0,1,138.85185185185185,1095.3518518518517) translate(0 17.1)"/><path d="M33.85 1209.85c0-2.76 2.24-5 5-5h190c2.76 0 5 2.24 5 5v190c0 2.76-2.24 5-5 5h-190c-2.76 0-5-2.24-5-5z" fill="#fff"/><path d="M33.85 1209.85c0-2.76 2.24-5 5-5h190c2.76 0 5 2.24 5 5v190c0 2.76-2.24 5-5 5h-190c-2.76 0-5-2.24-5-5zM33.85 1244.85h200M133.85 1244.85v160" stroke="#666" stroke-width="2" fill="none"/><use xlink:href="#f" transform="matrix(1,0,0,1,43.85185185185185,1204.851851851852) translate(67.5 23.6)"/><use xlink:href="#b" transform="matrix(1,0,0,1,38.85185185185185,1247.351851851852) translate(0 17.1)"/><use xlink:href="#c" transform="matrix(1,0,0,1,138.85185185185185,1247.351851851852) translate(0 17.1)"/><use xlink:href="#d" transform="matrix(1,0,0,1,38.85185185185185,1279.351851851852) translate(0 17.1)"/><use xlink:href="#D" transform="matrix(1,0,0,1,138.85185185185185,1279.351851851852) translate(0 17.1)"/><use xlink:href="#g" transform="matrix(1,0,0,1,38.85185185185185,1311.351851851852) translate(0 17.1)"/><use xlink:href="#h" transform="matrix(1,0,0,1,138.85185185185185,1311.351851851852) translate(0 17.1)"/><use xlink:href="#i" transform="matrix(1,0,0,1,38.85185185185185,1343.351851851852) translate(0 17.1)"/><use xlink:href="#j" transform="matrix(1,0,0,1,138.85185185185185,1343.351851851852) translate(0 17.1)"/><use xlink:href="#k" transform="matrix(1,0,0,1,38.85185185185185,1375.351851851852) translate(0 17.1)"/><use xlink:href="#A" transform="matrix(1,0,0,1,138.85185185185185,1375.351851851852) translate(0 17.1)"/><path d="M134.85 873.62h-2v-16.17h2zm0-59.37h-2v-19.4h2zM134.85 794.85h-2v-1h2zM133.85 888.62l-4.63-14.27h9.27z" fill="#999"/><path d="M133.85 891.85l-6-18.5h12zm-3.26-16.5l3.25 10.03 3.26-10.03z" fill="#999"/><use xlink:href="#o" transform="matrix(1,0,0,1,27.076851851851828,814.2518518518518) translate(52.10500000000001 14.4)"/><use xlink:href="#p" transform="matrix(1,0,0,1,27.076851851851828,814.2518518518518) translate(122.45500000000001 14.4)"/><use xlink:href="#q" transform="matrix(1,0,0,1,27.076851851851828,814.2518518518518) translate(0.0049999999999954525 36)"/><use xlink:href="#E" transform="matrix(1,0,0,1,27.076851851851828,814.2518518518518) translate(71.905 36)"/><path d="M134.85 1185.62h-2v-4.5h2zm0-47.7h-2v-12.07h2zM134.85 1125.85h-2v-1h2zM133.85 1200.62l-4.63-14.27h9.27z" fill="#999"/><path d="M133.85 1203.85l-6-18.5h12zm-3.26-16.5l3.25 10.03 3.26-10.03z" fill="#999"/><use xlink:href="#F" transform="matrix(1,0,0,1,67.97685185185185,1137.9185185185188) translate(11.204999999999991 14.4)"/><use xlink:href="#p" transform="matrix(1,0,0,1,67.97685185185185,1137.9185185185188) translate(81.555 14.4)"/><use xlink:href="#q" transform="matrix(1,0,0,1,67.97685185185185,1137.9185185185188) translate(0.0049999999999954525 36)"/><use xlink:href="#r" transform="matrix(1,0,0,1,67.97685185185185,1137.9185185185188) translate(71.905 36)"/><path d="M273.85 1209.85c0-2.76 2.24-5 5-5h190c2.76 0 5 2.24 5 5v190c0 2.76-2.24 5-5 5h-190c-2.76 0-5-2.24-5-5z" fill="#fff"/><path d="M273.85 1209.85c0-2.76 2.24-5 5-5h190c2.76 0 5 2.24 5 5v190c0 2.76-2.24 5-5 5h-190c-2.76 0-5-2.24-5-5zM273.85 1244.85h200M373.85 1244.85v160" stroke="#666" stroke-width="2" fill="none"/><use xlink:href="#f" transform="matrix(1,0,0,1,283.85185185185185,1204.851851851852) translate(67.5 23.6)"/><use xlink:href="#b" transform="matrix(1,0,0,1,278.85185185185185,1247.351851851852) translate(0 17.1)"/><use xlink:href="#c" transform="matrix(1,0,0,1,378.85185185185185,1247.351851851852) translate(0 17.1)"/><use xlink:href="#d" transform="matrix(1,0,0,1,278.85185185185185,1279.351851851852) translate(0 17.1)"/><use xlink:href="#e" transform="matrix(1,0,0,1,378.85185185185185,1279.351851851852) translate(0 17.1)"/><use xlink:href="#g" transform="matrix(1,0,0,1,278.85185185185185,1311.351851851852) translate(0 17.1)"/><use xlink:href="#h" transform="matrix(1,0,0,1,378.85185185185185,1311.351851851852) translate(0 17.1)"/><use xlink:href="#i" transform="matrix(1,0,0,1,278.85185185185185,1343.351851851852) translate(0 17.1)"/><use xlink:href="#j" transform="matrix(1,0,0,1,378.85185185185185,1343.351851851852) translate(0 17.1)"/><use xlink:href="#k" transform="matrix(1,0,0,1,278.85185185185185,1375.351851851852) translate(0 17.1)"/><use xlink:href="#A" transform="matrix(1,0,0,1,378.85185185185185,1375.351851851852) translate(0 17.1)"/><path d="M374.85 1185.62h-2v-22.77h2zm-140-75.77v-2h36.27v2zM234.85 1109.85h-1v-2h1zM373.85 1200.62l-4.63-14.27h9.27z" fill="#999"/><path d="M373.85 1203.85l-6-18.5h12zm-3.26-16.5l3.25 10.03 3.26-10.03z" fill="#999"/><use xlink:href="#F" transform="matrix(1,0,0,1,271.1185185185186,1054.8518518518517) translate(10.729999999999997 14.4)"/><use xlink:href="#p" transform="matrix(1,0,0,1,271.1185185185186,1054.8518518518517) translate(81.08000000000001 14.4)"/><use xlink:href="#q" transform="matrix(1,0,0,1,271.1185185185186,1054.8518518518517) translate(2.5049999999999955 36)"/><use xlink:href="#G" transform="matrix(1,0,0,1,271.1185185185186,1054.8518518518517) translate(74.405 36)"/><use xlink:href="#H" transform="matrix(1,0,0,1,271.1185185185186,1054.8518518518517) translate(57.43 57.6)"/><use xlink:href="#I" transform="matrix(1,0,0,1,271.1185185185186,1054.8518518518517) translate(10.729999999999997 79.20000000000002)"/><use xlink:href="#p" transform="matrix(1,0,0,1,271.1185185185186,1054.8518518518517) translate(81.08000000000001 79.20000000000002)"/><use xlink:href="#q" transform="matrix(1,0,0,1,271.1185185185186,1054.8518518518517) translate(0.0049999999999954525 100.80000000000001)"/><use xlink:href="#J" transform="matrix(1,0,0,1,271.1185185185186,1054.8518518518517) translate(71.905 100.80000000000001)"/><path d="M513.85 538.85c0-2.76 2.24-5 5-5h190c2.76 0 5 2.24 5 5v190c0 2.76-2.24 5-5 5h-190c-2.76 0-5-2.24-5-5z" fill="#fff"/><path d="M513.85 538.85c0-2.76 2.24-5 5-5h190c2.76 0 5 2.24 5 5v190c0 2.76-2.24 5-5 5h-190c-2.76 0-5-2.24-5-5zM513.85 573.85h200M613.85 573.85v160" stroke="#666" stroke-width="2" fill="none"/><use xlink:href="#K" transform="matrix(1,0,0,1,523.8518518518518,533.8518518518518) translate(47.05 23.6)"/><use xlink:href="#b" transform="matrix(1,0,0,1,518.8518518518518,576.3518518518518) translate(0 17.1)"/><use xlink:href="#c" transform="matrix(1,0,0,1,618.8518518518518,576.3518518518518) translate(0 17.1)"/><use xlink:href="#d" transform="matrix(1,0,0,1,518.8518518518518,608.3518518518518) translate(0 17.1)"/><use xlink:href="#e" transform="matrix(1,0,0,1,618.8518518518518,608.3518518518518) translate(0 17.1)"/><use xlink:href="#g" transform="matrix(1,0,0,1,518.8518518518518,640.3518518518518) translate(0 17.1)"/><use xlink:href="#h" transform="matrix(1,0,0,1,618.8518518518518,640.3518518518518) translate(0 17.1)"/><use xlink:href="#i" transform="matrix(1,0,0,1,518.8518518518518,672.3518518518518) translate(0 17.1)"/><use xlink:href="#j" transform="matrix(1,0,0,1,618.8518518518518,672.3518518518518) translate(0 17.1)"/><use xlink:href="#k" transform="matrix(1,0,0,1,518.8518518518518,704.3518518518518) translate(0 17.1)"/><use xlink:href="#A" transform="matrix(1,0,0,1,618.8518518518518,704.3518518518518) translate(0 17.1)"/><path d="M494.62 620.85v2h-60.37v-2zm-259.77-6v-2h78.6v2zM234.85 614.85h-1v-2h1zM509.62 621.85l-14.27 4.64v-9.28z" fill="#999"/><path d="M512.85 621.85l-18.5 6v-12zm-16.5 3.26l10.03-3.25-10.03-3.26z" fill="#999"/><g><use xlink:href="#o" transform="matrix(1,0,0,1,313.45185185185187,596.2518518518518) translate(5.730000000000004 14.4)"/><use xlink:href="#p" transform="matrix(1,0,0,1,313.45185185185187,596.2518518518518) translate(76.08000000000001 14.4)"/><use xlink:href="#q" transform="matrix(1,0,0,1,313.45185185185187,596.2518518518518) translate(0.005000000000002558 36)"/><use xlink:href="#L" transform="matrix(1,0,0,1,313.45185185185187,596.2518518518518) translate(71.905 36)"/></g><path d="M271.53 190.85H235v-2h36.53zm144.1-.12h-18.3v-2h18.3zM235 190.85h-1v-2h1zM430.62 189.73l-14.27 4.64v-9.27z" fill="#999"/><path d="M433.85 189.73l-18.5 6v-12zm-16.5 3.26l10.03-3.27-10.03-3.26z" fill="#999"/><g><use xlink:href="#o" transform="matrix(1,0,0,1,271.5259259259259,168.19185185185185) translate(8.230000000000004 14.4)"/><use xlink:href="#p" transform="matrix(1,0,0,1,271.5259259259259,168.19185185185185) translate(78.58000000000001 14.4)"/><use xlink:href="#q" transform="matrix(1,0,0,1,271.5259259259259,168.19185185185185) translate(0.005000000000002558 36)"/><use xlink:href="#M" transform="matrix(1,0,0,1,271.5259259259259,168.19185185185185) translate(71.905 36)"/></g><path d="M514 359c0-2.76 2.24-5 5-5h190c2.76 0 5 2.24 5 5v126c0 2.76-2.24 5-5 5H519c-2.76 0-5-2.24-5-5z" fill="#fff"/><path d="M514 359c0-2.76 2.24-5 5-5h190c2.76 0 5 2.24 5 5v126c0 2.76-2.24 5-5 5H519c-2.76 0-5-2.24-5-5zM514 394h200M614 394v96" stroke="#666" stroke-width="2" fill="none"/><g><use xlink:href="#N" transform="matrix(1,0,0,1,524,354) translate(57.5 23.6)"/></g><g><use xlink:href="#b" transform="matrix(1,0,0,1,519,396.5) translate(0 17.1)"/></g><g><use xlink:href="#c" transform="matrix(1,0,0,1,619,396.5) translate(0 17.1)"/></g><g><use xlink:href="#d" transform="matrix(1,0,0,1,519,428.5) translate(0 17.1)"/></g><g><use xlink:href="#e" transform="matrix(1,0,0,1,619,428.5) translate(0 17.1)"/></g><g><use xlink:href="#g" transform="matrix(1,0,0,1,519,460.5) translate(0 17.1)"/></g><g><use xlink:href="#h" transform="matrix(1,0,0,1,619,460.5) translate(0 17.1)"/></g><path d="M494.76 409v2h-26.03v-2zm-259.9 1.85v-2h44.27v2zM234.85 410.85h-1v-2h1zM509.76 410l-14.26 4.64v-9.28z" fill="#999"/><path d="M513 410l-18.5 6v-12zm-16.5 3.26l10.03-3.26-10.03-3.26z" fill="#999"/><g><use xlink:href="#s" transform="matrix(1,0,0,1,279.1259259259259,388.32592592592584) translate(49.605000000000004 14.4)"/><use xlink:href="#t" transform="matrix(1,0,0,1,279.1259259259259,388.32592592592584) translate(101.00500000000001 14.4)"/><use xlink:href="#q" transform="matrix(1,0,0,1,279.1259259259259,388.32592592592584) translate(0.0049999999999954525 36)"/><use xlink:href="#O" transform="matrix(1,0,0,1,279.1259259259259,388.32592592592584) translate(71.905 36)"/></g><path d="M134.85 574.62h-2V537.6h2zM513 475H324.2l-.08.2-.76.32H139l-2.48.82-1.46 2-.2 1.26v14.8h-2v-14.96l.3-1.9 2.12-2.9 3.4-1.12h183.97l.1-.2.74-.32H513zM514 475h-1v-2h1zM133.85 589.62l-4.63-14.27h9.27z" fill="#999"/><path d="M133.85 592.85l-6-18.5h12zm-3.26-16.5l3.25 10.03 3.26-10.03z" fill="#999"/><defs><path fill="#333" d="M205 0l-28-72H64L36 0H1l101-248h38L239 0h-34zm-38-99l-47-123c-12 45-31 82-46 123h93" id="P"/><path fill="#333" d="M135-143c-3-34-86-38-87 0 15 53 115 12 119 90S17 21 10-45l28-5c4 36 97 45 98 0-10-56-113-15-118-90-4-57 82-63 122-42 12 7 21 19 24 35" id="Q"/><path fill="#333" d="M100-194c63 0 86 42 84 106H49c0 40 14 67 53 68 26 1 43-12 49-29l28 8c-11 28-37 45-77 45C44 4 14-33 15-96c1-61 26-98 85-98zm52 81c6-60-76-77-97-28-3 7-6 17-6 28h103" id="R"/><path fill="#333" d="M59-47c-2 24 18 29 38 22v24C64 9 27 4 27-40v-127H5v-23h24l9-43h21v43h35v23H59v120" id="S"/><path fill="#333" d="M140-251c81 0 123 46 123 126C263-46 219 4 140 4 59 4 17-45 17-125s42-126 123-126zm0 227c63 0 89-41 89-101s-29-99-89-99c-61 0-89 39-89 99S79-25 140-24" id="T"/><path fill="#333" d="M206 0h-36l-40-164L89 0H53L-1-190h32L70-26l43-164h34l41 164 42-164h31" id="U"/><path fill="#333" d="M117-194c89-4 53 116 60 194h-32v-121c0-31-8-49-39-48C34-167 62-67 57 0H25l-1-190h30c1 10-1 24 2 32 11-22 29-35 61-36" id="V"/><path fill="#333" d="M114-163C36-179 61-72 57 0H25l-1-190h30c1 12-1 29 2 39 6-27 23-49 58-41v29" id="W"/><g id="a"><use transform="matrix(0.05,0,0,0.05,0,0)" xlink:href="#P"/><use transform="matrix(0.05,0,0,0.05,12,0)" xlink:href="#Q"/><use transform="matrix(0.05,0,0,0.05,21,0)" xlink:href="#Q"/><use transform="matrix(0.05,0,0,0.05,30,0)" xlink:href="#R"/><use transform="matrix(0.05,0,0,0.05,40,0)" xlink:href="#S"/><use transform="matrix(0.05,0,0,0.05,45,0)" xlink:href="#T"/><use transform="matrix(0.05,0,0,0.05,59,0)" xlink:href="#U"/><use transform="matrix(0.05,0,0,0.05,71.95,0)" xlink:href="#V"/><use transform="matrix(0.05,0,0,0.05,81.95,0)" xlink:href="#R"/><use transform="matrix(0.05,0,0,0.05,91.95,0)" xlink:href="#W"/></g><path fill="#c92d39" d="M115-194c55 1 70 41 70 98S169 2 115 4C84 4 66-9 55-30l1 105H24l-1-265h31l2 30c10-21 28-34 59-34zm-8 174c40 0 45-34 45-75s-6-73-45-74c-42 0-51 32-51 76 0 43 10 73 51 73" id="X"/><path fill="#c92d39" d="M114-163C36-179 61-72 57 0H25l-1-190h30c1 12-1 29 2 39 6-27 23-49 58-41v29" id="Y"/><path fill="#c92d39" d="M100-194c62-1 85 37 85 99 1 63-27 99-86 99S16-35 15-95c0-66 28-99 85-99zM99-20c44 1 53-31 53-75 0-43-8-75-51-75s-53 32-53 75 10 74 51 75" id="Z"/><path fill="#c92d39" d="M108 0H70L1-190h34L89-25l56-165h34" id="aa"/><path fill="#c92d39" d="M24-231v-30h32v30H24zM24 0v-190h32V0H24" id="ab"/><path fill="#c92d39" d="M85-194c31 0 48 13 60 33l-1-100h32l1 261h-30c-2-10 0-23-3-31C134-8 116 4 85 4 32 4 16-35 15-94c0-66 23-100 70-100zm9 24c-40 0-46 34-46 75 0 40 6 74 45 74 42 0 51-32 51-76 0-42-9-74-50-73" id="ac"/><path fill="#c92d39" d="M100-194c63 0 86 42 84 106H49c0 40 14 67 53 68 26 1 43-12 49-29l28 8c-11 28-37 45-77 45C44 4 14-33 15-96c1-61 26-98 85-98zm52 81c6-60-76-77-97-28-3 7-6 17-6 28h103" id="ad"/><g id="b"><use transform="matrix(0.05,0,0,0.05,0,0)" xlink:href="#X"/><use transform="matrix(0.05,0,0,0.05,10,0)" xlink:href="#Y"/><use transform="matrix(0.05,0,0,0.05,15.949999999999998,0)" xlink:href="#Z"/><use transform="matrix(0.05,0,0,0.05,25.950000000000003,0)" xlink:href="#aa"/><use transform="matrix(0.05,0,0,0.05,34.95,0)" xlink:href="#ab"/><use transform="matrix(0.05,0,0,0.05,38.900000000000006,0)" xlink:href="#ac"/><use transform="matrix(0.05,0,0,0.05,48.900000000000006,0)" xlink:href="#ad"/><use transform="matrix(0.05,0,0,0.05,58.900000000000006,0)" xlink:href="#Y"/></g><path fill="#3aa6dd" d="M62-158H24l-5-90h48" id="ae"/><path fill="#3aa6dd" d="M67-125c0 53 21 87 73 88 37 1 54-22 65-47l45 17C233-25 199 4 140 4 58 4 20-42 15-125 8-235 124-281 211-232c18 10 29 29 36 50l-46 12c-8-25-30-41-62-41-52 0-71 34-72 86" id="af"/><path fill="#3aa6dd" d="M169-182c-1-43-94-46-97-3 18 66 151 10 154 114 3 95-165 93-204 36-6-8-10-19-12-30l50-8c3 46 112 56 116 5-17-69-150-10-154-114-4-87 153-88 188-35 5 8 8 18 10 28" id="ag"/><path fill="#3aa6dd" d="M24-248c120-7 223 5 221 122C244-46 201 0 124 0H24v-248zM76-40c74 7 117-18 117-86 0-67-45-88-117-82v168" id="ah"/><g id="c"><use transform="matrix(0.05,0,0,0.05,0,0)" xlink:href="#ae"/><use transform="matrix(0.05,0,0,0.05,4.25,0)" xlink:href="#af"/><use transform="matrix(0.05,0,0,0.05,17.200000000000003,0)" xlink:href="#ag"/><use transform="matrix(0.05,0,0,0.05,29.200000000000003,0)" xlink:href="#ah"/><use transform="matrix(0.05,0,0,0.05,42.150000000000006,0)" xlink:href="#ae"/></g><path fill="#c92d39" d="M206 0h-36l-40-164L89 0H53L-1-190h32L70-26l43-164h34l41 164 42-164h31" id="ai"/><path fill="#c92d39" d="M117-194c89-4 53 116 60 194h-32v-121c0-31-8-49-39-48C34-167 62-67 57 0H25l-1-190h30c1 10-1 24 2 32 11-22 29-35 61-36" id="aj"/><g id="d"><use transform="matrix(0.05,0,0,0.05,0,0)" xlink:href="#Z"/><use transform="matrix(0.05,0,0,0.05,10,0)" xlink:href="#ai"/><use transform="matrix(0.05,0,0,0.05,22.950000000000003,0)" xlink:href="#aj"/><use transform="matrix(0.05,0,0,0.05,32.95,0)" xlink:href="#ad"/><use transform="matrix(0.05,0,0,0.05,42.95,0)" xlink:href="#Y"/></g><path fill="#3aa6dd" d="M182-130c37 4 62 22 62 59C244 23 116-4 24 0v-248c84 5 203-23 205 63 0 31-19 50-47 55zM76-148c40-3 101 13 101-30 0-44-60-28-101-31v61zm0 110c48-3 116 14 116-37 0-48-69-32-116-35v72" id="ak"/><path fill="#3aa6dd" d="M133-34C117-15 103 5 69 4 32 3 11-16 11-54c-1-60 55-63 116-61 1-26-3-47-28-47-18 1-26 9-28 27l-52-2c7-38 36-58 82-57s74 22 75 68l1 82c-1 14 12 18 25 15v27c-30 8-71 5-69-32zm-48 3c29 0 43-24 42-57-32 0-66-3-65 30 0 17 8 27 23 27" id="al"/><path fill="#3aa6dd" d="M135-194c87-1 58 113 63 194h-50c-7-57 23-157-34-157-59 0-34 97-39 157H25l-1-190h47c2 12-1 28 3 38 12-26 28-41 61-42" id="am"/><path fill="#3aa6dd" d="M147 0L96-86 75-71V0H25v-261h50v150l67-79h53l-66 74L201 0h-54" id="an"/><path fill="#3aa6dd" d="M199 0l-22-63H83L61 0H9l90-248h61L250 0h-51zm-33-102l-36-108c-10 38-24 72-36 108h72" id="ao"/><g id="e"><use transform="matrix(0.05,0,0,0.05,0,0)" xlink:href="#ae"/><use transform="matrix(0.05,0,0,0.05,4.25,0)" xlink:href="#ak"/><use transform="matrix(0.05,0,0,0.05,17.200000000000003,0)" xlink:href="#al"/><use transform="matrix(0.05,0,0,0.05,27.200000000000003,0)" xlink:href="#am"/><use transform="matrix(0.05,0,0,0.05,38.150000000000006,0)" xlink:href="#an"/><use transform="matrix(0.05,0,0,0.05,48.150000000000006,0)" xlink:href="#ao"/><use transform="matrix(0.05,0,0,0.05,61.1,0)" xlink:href="#ae"/></g><g id="f"><use transform="matrix(0.05,0,0,0.05,0,0)" xlink:href="#P"/><use transform="matrix(0.05,0,0,0.05,12,0)" xlink:href="#Q"/><use transform="matrix(0.05,0,0,0.05,21,0)" xlink:href="#Q"/><use transform="matrix(0.05,0,0,0.05,30,0)" xlink:href="#R"/><use transform="matrix(0.05,0,0,0.05,40,0)" xlink:href="#S"/></g><path d="M141-36C126-15 110 5 73 4 37 3 15-17 15-53c-1-64 63-63 125-63 3-35-9-54-41-54-24 1-41 7-42 31l-33-3c5-37 33-52 76-52 45 0 72 20 72 64v82c-1 20 7 32 28 27v20c-31 9-61-2-59-35zM48-53c0 20 12 33 32 33 41-3 63-29 60-74-43 2-92-5-92 41" id="ap"/><path d="M96-169c-40 0-48 33-48 73s9 75 48 75c24 0 41-14 43-38l32 2c-6 37-31 61-74 61-59 0-76-41-82-99-10-93 101-131 147-64 4 7 5 14 7 22l-32 3c-4-21-16-35-41-35" id="aq"/><path d="M100-194c62-1 85 37 85 99 1 63-27 99-86 99S16-35 15-95c0-66 28-99 85-99zM99-20c44 1 53-31 53-75 0-43-8-75-51-75s-53 32-53 75 10 74 51 75" id="ar"/><path d="M84 4C-5 8 30-112 23-190h32v120c0 31 7 50 39 49 72-2 45-101 50-169h31l1 190h-30c-1-10 1-25-2-33-11 22-28 36-60 37" id="as"/><path d="M117-194c89-4 53 116 60 194h-32v-121c0-31-8-49-39-48C34-167 62-67 57 0H25l-1-190h30c1 10-1 24 2 32 11-22 29-35 61-36" id="at"/><path d="M59-47c-2 24 18 29 38 22v24C64 9 27 4 27-40v-127H5v-23h24l9-43h21v43h35v23H59v120" id="au"/><path d="M33 0v-248h34V0H33" id="av"/><path d="M85-194c31 0 48 13 60 33l-1-100h32l1 261h-30c-2-10 0-23-3-31C134-8 116 4 85 4 32 4 16-35 15-94c0-66 23-100 70-100zm9 24c-40 0-46 34-46 75 0 40 6 74 45 74 42 0 51-32 51-76 0-42-9-74-50-73" id="aw"/><g id="g"><use transform="matrix(0.05,0,0,0.05,0,0)" xlink:href="#ap"/><use transform="matrix(0.05,0,0,0.05,10,0)" xlink:href="#aq"/><use transform="matrix(0.05,0,0,0.05,19,0)" xlink:href="#aq"/><use transform="matrix(0.05,0,0,0.05,28,0)" xlink:href="#ar"/><use transform="matrix(0.05,0,0,0.05,38,0)" xlink:href="#as"/><use transform="matrix(0.05,0,0,0.05,48,0)" xlink:href="#at"/><use transform="matrix(0.05,0,0,0.05,58,0)" xlink:href="#au"/><use transform="matrix(0.05,0,0,0.05,63,0)" xlink:href="#av"/><use transform="matrix(0.05,0,0,0.05,68,0)" xlink:href="#aw"/></g><path fill="#ef8d22" d="M109-170H84l-4-78h32zm-65 0H19l-4-78h33" id="ax"/><path fill="#ef8d22" d="M141-36C126-15 110 5 73 4 37 3 15-17 15-53c-1-64 63-63 125-63 3-35-9-54-41-54-24 1-41 7-42 31l-33-3c5-37 33-52 76-52 45 0 72 20 72 64v82c-1 20 7 32 28 27v20c-31 9-61-2-59-35zM48-53c0 20 12 33 32 33 41-3 63-29 60-74-43 2-92-5-92 41" id="ay"/><path fill="#ef8d22" d="M115-194c53 0 69 39 70 98 0 66-23 100-70 100C84 3 66-7 56-30L54 0H23l1-261h32v101c10-23 28-34 59-34zm-8 174c40 0 45-34 45-75 0-40-5-75-45-74-42 0-51 32-51 76 0 43 10 73 51 73" id="az"/><path fill="#ef8d22" d="M96-169c-40 0-48 33-48 73s9 75 48 75c24 0 41-14 43-38l32 2c-6 37-31 61-74 61-59 0-76-41-82-99-10-93 101-131 147-64 4 7 5 14 7 22l-32 3c-4-21-16-35-41-35" id="aA"/><path fill="#ef8d22" d="M27 0v-27h64v-190l-56 39v-29l58-41h29v221h61V0H27" id="aB"/><path fill="#ef8d22" d="M101-251c82-7 93 87 43 132L82-64C71-53 59-42 53-27h129V0H18c2-99 128-94 128-182 0-28-16-43-45-43s-46 15-49 41l-32-3c6-41 34-60 81-64" id="aC"/><path fill="#ef8d22" d="M126-127c33 6 58 20 58 59 0 88-139 92-164 29-3-8-5-16-6-25l32-3c6 27 21 44 54 44 32 0 52-15 52-46 0-38-36-46-79-43v-28c39 1 72-4 72-42 0-27-17-43-46-43-28 0-47 15-49 41l-32-3c6-42 35-63 81-64 48-1 79 21 79 65 0 36-21 52-52 59" id="aD"/><g id="h"><use transform="matrix(0.05,0,0,0.05,0,0)" xlink:href="#ax"/><use transform="matrix(0.05,0,0,0.05,6.3500000000000005,0)" xlink:href="#ay"/><use transform="matrix(0.05,0,0,0.05,16.35,0)" xlink:href="#az"/><use transform="matrix(0.05,0,0,0.05,26.35,0)" xlink:href="#aA"/><use transform="matrix(0.05,0,0,0.05,35.35,0)" xlink:href="#aB"/><use transform="matrix(0.05,0,0,0.05,45.35,0)" xlink:href="#aC"/><use transform="matrix(0.05,0,0,0.05,55.35,0)" xlink:href="#aD"/><use transform="matrix(0.05,0,0,0.05,65.35,0)" xlink:href="#ax"/></g><path d="M135-143c-3-34-86-38-87 0 15 53 115 12 119 90S17 21 10-45l28-5c4 36 97 45 98 0-10-56-113-15-118-90-4-57 82-63 122-42 12 7 21 19 24 35" id="aE"/><path d="M179-190L93 31C79 59 56 82 12 73V49c39 6 53-20 64-50L1-190h34L92-34l54-156h33" id="aF"/><path d="M210-169c-67 3-38 105-44 169h-31v-121c0-29-5-50-35-48C34-165 62-65 56 0H25l-1-190h30c1 10-1 24 2 32 10-44 99-50 107 0 11-21 27-35 58-36 85-2 47 119 55 194h-31v-121c0-29-5-49-35-48" id="aG"/><path d="M115-194c53 0 69 39 70 98 0 66-23 100-70 100C84 3 66-7 56-30L54 0H23l1-261h32v101c10-23 28-34 59-34zm-8 174c40 0 45-34 45-75 0-40-5-75-45-74-42 0-51 32-51 76 0 43 10 73 51 73" id="aH"/><path d="M24 0v-261h32V0H24" id="aI"/><g id="i"><use transform="matrix(0.05,0,0,0.05,0,0)" xlink:href="#aE"/><use transform="matrix(0.05,0,0,0.05,9,0)" xlink:href="#aF"/><use transform="matrix(0.05,0,0,0.05,18,0)" xlink:href="#aG"/><use transform="matrix(0.05,0,0,0.05,32.95,0)" xlink:href="#aH"/><use transform="matrix(0.05,0,0,0.05,42.95,0)" xlink:href="#ar"/><use transform="matrix(0.05,0,0,0.05,52.95,0)" xlink:href="#aI"/></g><path fill="#ef8d22" d="M99-251c64 0 84 50 84 122C183-37 130 33 47-8c-14-7-20-23-25-40l30-5c6 39 69 39 84 7 9-19 16-44 16-74-10 22-31 35-62 35-49 0-73-33-73-83 0-54 28-83 82-83zm-1 141c31-1 51-18 51-49 0-36-14-67-51-67-34 0-49 23-49 58 0 34 15 58 49 58" id="aJ"/><path fill="#ef8d22" d="M134-131c28 9 52 24 51 62-1 50-34 73-85 73S17-19 16-69c0-36 21-54 49-61-75-25-45-126 34-121 46 3 78 18 79 63 0 33-17 51-44 57zm-34-11c31 1 46-15 46-44 0-28-17-43-47-42-29 0-46 13-45 42 1 28 16 44 46 44zm1 122c35 0 51-18 51-52 0-30-18-46-53-46-33 0-51 17-51 47 0 34 19 51 53 51" id="aK"/><path fill="#ef8d22" d="M64 0c3-98 48-159 88-221H18v-27h164v26C143-157 98-101 97 0H64" id="aL"/><path fill="#ef8d22" d="M209 0H11v-25l151-195H24v-28h176v25L50-27h159V0" id="aM"/><path fill="#ef8d22" d="M137-103V0h-34v-103L8-248h37l75 118 75-118h37" id="aN"/><path fill="#ef8d22" d="M195 0l-74-108L45 0H8l94-129-87-119h37l69 98 67-98h37l-84 118L233 0h-38" id="aO"/><g id="j"><use transform="matrix(0.05,0,0,0.05,0,0)" xlink:href="#ax"/><use transform="matrix(0.05,0,0,0.05,6.3500000000000005,0)" xlink:href="#aJ"/><use transform="matrix(0.05,0,0,0.05,16.35,0)" xlink:href="#aK"/><use transform="matrix(0.05,0,0,0.05,26.35,0)" xlink:href="#aL"/><use transform="matrix(0.05,0,0,0.05,36.35,0)" xlink:href="#aM"/><use transform="matrix(0.05,0,0,0.05,47.300000000000004,0)" xlink:href="#aN"/><use transform="matrix(0.05,0,0,0.05,59.300000000000004,0)" xlink:href="#aO"/><use transform="matrix(0.05,0,0,0.05,71.30000000000001,0)" xlink:href="#ax"/></g><path d="M145-31C134-9 116 4 85 4 32 4 16-35 15-94c0-59 17-99 70-100 32-1 48 14 60 33 0-11-1-24 2-32h30l-1 268h-32zM93-21c41 0 51-33 51-76s-8-73-50-73c-40 0-46 35-46 75s5 74 45 74" id="aP"/><path d="M24-231v-30h32v30H24zM24 0v-190h32V0H24" id="aQ"/><g id="k"><use transform="matrix(0.05,0,0,0.05,0,0)" xlink:href="#aP"/><use transform="matrix(0.05,0,0,0.05,10,0)" xlink:href="#as"/><use transform="matrix(0.05,0,0,0.05,20,0)" xlink:href="#ap"/><use transform="matrix(0.05,0,0,0.05,30,0)" xlink:href="#at"/><use transform="matrix(0.05,0,0,0.05,40,0)" xlink:href="#au"/><use transform="matrix(0.05,0,0,0.05,45,0)" xlink:href="#aQ"/><use transform="matrix(0.05,0,0,0.05,48.95,0)" xlink:href="#au"/><use transform="matrix(0.05,0,0,0.05,53.95,0)" xlink:href="#aF"/></g><path fill="#333" d="M27 0v-27h64v-190l-56 39v-29l58-41h29v221h61V0H27" id="aR"/><path fill="#333" d="M101-251c68 0 85 55 85 127S166 4 100 4C33 4 14-52 14-124c0-73 17-127 87-127zm-1 229c47 0 54-49 54-102s-4-102-53-102c-51 0-55 48-55 102 0 53 5 102 54 102" id="aS"/><g id="l"><use transform="matrix(0.05,0,0,0.05,0,0)" xlink:href="#aR"/><use transform="matrix(0.05,0,0,0.05,10,0)" xlink:href="#aS"/><use transform="matrix(0.05,0,0,0.05,20,0)" xlink:href="#aS"/></g><path fill="#333" d="M33 0v-248h34V0H33" id="aT"/><path fill="#333" d="M108 0H70L1-190h34L89-25l56-165h34" id="aU"/><path fill="#333" d="M24-231v-30h32v30H24zM24 0v-190h32V0H24" id="aV"/><path fill="#333" d="M141-36C126-15 110 5 73 4 37 3 15-17 15-53c-1-64 63-63 125-63 3-35-9-54-41-54-24 1-41 7-42 31l-33-3c5-37 33-52 76-52 45 0 72 20 72 64v82c-1 20 7 32 28 27v20c-31 9-61-2-59-35zM48-53c0 20 12 33 32 33 41-3 63-29 60-74-43 2-92-5-92 41" id="aW"/><path fill="#333" d="M100-194c62-1 85 37 85 99 1 63-27 99-86 99S16-35 15-95c0-66 28-99 85-99zM99-20c44 1 53-31 53-75 0-43-8-75-51-75s-53 32-53 75 10 74 51 75" id="aX"/><g id="m"><use transform="matrix(0.05,0,0,0.05,0,0)" xlink:href="#P"/><use transform="matrix(0.05,0,0,0.05,12,0)" xlink:href="#Q"/><use transform="matrix(0.05,0,0,0.05,21,0)" xlink:href="#Q"/><use transform="matrix(0.05,0,0,0.05,30,0)" xlink:href="#R"/><use transform="matrix(0.05,0,0,0.05,40,0)" xlink:href="#S"/><use transform="matrix(0.05,0,0,0.05,45,0)" xlink:href="#T"/><use transform="matrix(0.05,0,0,0.05,59,0)" xlink:href="#U"/><use transform="matrix(0.05,0,0,0.05,71.95,0)" xlink:href="#V"/><use transform="matrix(0.05,0,0,0.05,81.95,0)" xlink:href="#R"/><use transform="matrix(0.05,0,0,0.05,91.95,0)" xlink:href="#W"/><use transform="matrix(0.05,0,0,0.05,97.9,0)" xlink:href="#aT"/><use transform="matrix(0.05,0,0,0.05,102.9,0)" xlink:href="#V"/><use transform="matrix(0.05,0,0,0.05,112.9,0)" xlink:href="#aU"/><use transform="matrix(0.05,0,0,0.05,121.9,0)" xlink:href="#aV"/><use transform="matrix(0.05,0,0,0.05,125.85000000000001,0)" xlink:href="#S"/><use transform="matrix(0.05,0,0,0.05,130.85000000000002,0)" xlink:href="#aW"/><use transform="matrix(0.05,0,0,0.05,140.85000000000002,0)" xlink:href="#S"/><use transform="matrix(0.05,0,0,0.05,145.85000000000002,0)" xlink:href="#aV"/><use transform="matrix(0.05,0,0,0.05,149.8,0)" xlink:href="#aX"/><use transform="matrix(0.05,0,0,0.05,159.8,0)" xlink:href="#V"/></g><g id="n"><use transform="matrix(0.05,0,0,0.05,0,0)" xlink:href="#aX"/><use transform="matrix(0.05,0,0,0.05,10,0)" xlink:href="#U"/><use transform="matrix(0.05,0,0,0.05,22.950000000000003,0)" xlink:href="#V"/><use transform="matrix(0.05,0,0,0.05,32.95,0)" xlink:href="#R"/><use transform="matrix(0.05,0,0,0.05,42.95,0)" xlink:href="#W"/></g><g id="o"><use transform="matrix(0.05,0,0,0.05,0,0)" xlink:href="#ae"/><use transform="matrix(0.05,0,0,0.05,4.25,0)" xlink:href="#ak"/><use transform="matrix(0.05,0,0,0.05,17.200000000000003,0)" xlink:href="#al"/><use transform="matrix(0.05,0,0,0.05,27.200000000000003,0)" xlink:href="#am"/><use transform="matrix(0.05,0,0,0.05,38.150000000000006,0)" xlink:href="#an"/><use transform="matrix(0.05,0,0,0.05,48.150000000000006,0)" xlink:href="#ao"/><use transform="matrix(0.05,0,0,0.05,61.1,0)" xlink:href="#ae"/></g><path fill="#834187" d="M85-194c31 0 48 13 60 33l-1-100h32l1 261h-30c-2-10 0-23-3-31C134-8 116 4 85 4 32 4 16-35 15-94c0-66 23-100 70-100zm9 24c-40 0-46 34-46 75 0 40 6 74 45 74 42 0 51-32 51-76 0-42-9-74-50-73" id="aY"/><path fill="#834187" d="M100-194c62-1 85 37 85 99 1 63-27 99-86 99S16-35 15-95c0-66 28-99 85-99zM99-20c44 1 53-31 53-75 0-43-8-75-51-75s-53 32-53 75 10 74 51 75" id="aZ"/><path fill="#834187" d="M100-194c63 0 86 42 84 106H49c0 40 14 67 53 68 26 1 43-12 49-29l28 8c-11 28-37 45-77 45C44 4 14-33 15-96c1-61 26-98 85-98zm52 81c6-60-76-77-97-28-3 7-6 17-6 28h103" id="ba"/><path fill="#834187" d="M135-143c-3-34-86-38-87 0 15 53 115 12 119 90S17 21 10-45l28-5c4 36 97 45 98 0-10-56-113-15-118-90-4-57 82-63 122-42 12 7 21 19 24 35" id="bb"/><g id="p"><use transform="matrix(0.05,0,0,0.05,0,0)" xlink:href="#aY"/><use transform="matrix(0.05,0,0,0.05,10,0)" xlink:href="#aZ"/><use transform="matrix(0.05,0,0,0.05,20,0)" xlink:href="#ba"/><use transform="matrix(0.05,0,0,0.05,30,0)" xlink:href="#bb"/></g><path fill="#834187" d="M141 0L90-78 38 0H4l68-98-65-92h35l48 74 47-74h35l-64 92 68 98h-35" id="bc"/><path fill="#834187" d="M114-163C36-179 61-72 57 0H25l-1-190h30c1 12-1 29 2 39 6-27 23-49 58-41v29" id="bd"/><path fill="#834187" d="M96-169c-40 0-48 33-48 73s9 75 48 75c24 0 41-14 43-38l32 2c-6 37-31 61-74 61-59 0-76-41-82-99-10-93 101-131 147-64 4 7 5 14 7 22l-32 3c-4-21-16-35-41-35" id="be"/><path fill="#834187" d="M24-231v-30h32v30H24zM24 0v-190h32V0H24" id="bf"/><g id="q"><use transform="matrix(0.05,0,0,0.05,0,0)" xlink:href="#ba"/><use transform="matrix(0.05,0,0,0.05,10,0)" xlink:href="#bc"/><use transform="matrix(0.05,0,0,0.05,19,0)" xlink:href="#ba"/><use transform="matrix(0.05,0,0,0.05,29,0)" xlink:href="#bd"/><use transform="matrix(0.05,0,0,0.05,34.95,0)" xlink:href="#be"/><use transform="matrix(0.05,0,0,0.05,43.95,0)" xlink:href="#bf"/><use transform="matrix(0.05,0,0,0.05,47.900000000000006,0)" xlink:href="#bb"/><use transform="matrix(0.05,0,0,0.05,56.900000000000006,0)" xlink:href="#ba"/></g><path fill="#3aa6dd" d="M190-63c-7 42-38 67-86 67-59 0-84-38-90-98-12-110 154-137 174-36l-49 2c-2-19-15-32-35-32-30 0-35 28-38 64-6 74 65 87 74 30" id="bg"/><path fill="#3aa6dd" d="M185-48c-13 30-37 53-82 52C43 2 14-33 14-96s30-98 90-98c62 0 83 45 84 108H66c0 31 8 55 39 56 18 0 30-7 34-22zm-45-69c5-46-57-63-70-21-2 6-4 13-4 21h74" id="bh"/><path fill="#3aa6dd" d="M135-194c53 0 70 44 70 98 0 56-19 98-73 100-31 1-45-17-59-34 3 33 2 69 2 105H25l-1-265h48c2 10 0 23 3 31 11-24 29-35 60-35zM114-30c33 0 39-31 40-66 0-38-9-64-40-64-56 0-55 130 0 130" id="bi"/><path fill="#3aa6dd" d="M115-3C79 11 28 4 28-45v-112H4v-33h27l15-45h31v45h36v33H77v99c-1 23 16 31 38 25v30" id="bj"/><g id="r"><use transform="matrix(0.05,0,0,0.05,0,0)" xlink:href="#ao"/><use transform="matrix(0.05,0,0,0.05,12.950000000000001,0)" xlink:href="#bg"/><use transform="matrix(0.05,0,0,0.05,22.950000000000003,0)" xlink:href="#bg"/><use transform="matrix(0.05,0,0,0.05,32.95,0)" xlink:href="#bh"/><use transform="matrix(0.05,0,0,0.05,42.95,0)" xlink:href="#bi"/><use transform="matrix(0.05,0,0,0.05,53.900000000000006,0)" xlink:href="#bj"/></g><g id="s"><use transform="matrix(0.05,0,0,0.05,0,0)" xlink:href="#ae"/><use transform="matrix(0.05,0,0,0.05,4.25,0)" xlink:href="#af"/><use transform="matrix(0.05,0,0,0.05,17.200000000000003,0)" xlink:href="#ag"/><use transform="matrix(0.05,0,0,0.05,29.200000000000003,0)" xlink:href="#ah"/><use transform="matrix(0.05,0,0,0.05,42.150000000000006,0)" xlink:href="#ae"/></g><g id="t"><use transform="matrix(0.05,0,0,0.05,0,0)" xlink:href="#aY"/><use transform="matrix(0.05,0,0,0.05,10,0)" xlink:href="#aZ"/><use transform="matrix(0.05,0,0,0.05,20,0)" xlink:href="#ba"/><use transform="matrix(0.05,0,0,0.05,30,0)" xlink:href="#bb"/></g><path fill="#3aa6dd" d="M24 0v-248h52V0H24" id="bk"/><path fill="#3aa6dd" d="M137-138c1-29-70-34-71-4 15 46 118 7 119 86 1 83-164 76-172 9l43-7c4 19 20 25 44 25 33 8 57-30 24-41C81-84 22-81 20-136c-2-80 154-74 161-7" id="bl"/><path fill="#3aa6dd" d="M85 4C-2 5 27-109 22-190h50c7 57-23 150 33 157 60-5 35-97 40-157h50l1 190h-47c-2-12 1-28-3-38-12 25-28 42-61 42" id="bm"/><g id="u"><use transform="matrix(0.05,0,0,0.05,0,0)" xlink:href="#bk"/><use transform="matrix(0.05,0,0,0.05,5,0)" xlink:href="#bl"/><use transform="matrix(0.05,0,0,0.05,15,0)" xlink:href="#bl"/><use transform="matrix(0.05,0,0,0.05,25,0)" xlink:href="#bm"/><use transform="matrix(0.05,0,0,0.05,35.95,0)" xlink:href="#bh"/><use transform="matrix(0.05,0,0,0.05,45.95,0)" xlink:href="#ao"/><use transform="matrix(0.05,0,0,0.05,58.900000000000006,0)" xlink:href="#bl"/><use transform="matrix(0.05,0,0,0.05,68.9,0)" xlink:href="#bl"/><use transform="matrix(0.05,0,0,0.05,78.9,0)" xlink:href="#bh"/><use transform="matrix(0.05,0,0,0.05,88.9,0)" xlink:href="#bj"/></g><path fill="#fcc438" d="M96-169c-40 0-48 33-48 73s9 75 48 75c24 0 41-14 43-38l32 2c-6 37-31 61-74 61-59 0-76-41-82-99-10-93 101-131 147-64 4 7 5 14 7 22l-32 3c-4-21-16-35-41-35" id="bn"/><path fill="#fcc438" d="M114-163C36-179 61-72 57 0H25l-1-190h30c1 12-1 29 2 39 6-27 23-49 58-41v29" id="bo"/><path fill="#fcc438" d="M100-194c63 0 86 42 84 106H49c0 40 14 67 53 68 26 1 43-12 49-29l28 8c-11 28-37 45-77 45C44 4 14-33 15-96c1-61 26-98 85-98zm52 81c6-60-76-77-97-28-3 7-6 17-6 28h103" id="bp"/><path fill="#fcc438" d="M141-36C126-15 110 5 73 4 37 3 15-17 15-53c-1-64 63-63 125-63 3-35-9-54-41-54-24 1-41 7-42 31l-33-3c5-37 33-52 76-52 45 0 72 20 72 64v82c-1 20 7 32 28 27v20c-31 9-61-2-59-35zM48-53c0 20 12 33 32 33 41-3 63-29 60-74-43 2-92-5-92 41" id="bq"/><path fill="#fcc438" d="M59-47c-2 24 18 29 38 22v24C64 9 27 4 27-40v-127H5v-23h24l9-43h21v43h35v23H59v120" id="br"/><g id="v"><use transform="matrix(0.05,0,0,0.05,0,0)" xlink:href="#bn"/><use transform="matrix(0.05,0,0,0.05,9,0)" xlink:href="#bo"/><use transform="matrix(0.05,0,0,0.05,14.949999999999998,0)" xlink:href="#bp"/><use transform="matrix(0.05,0,0,0.05,24.95,0)" xlink:href="#bq"/><use transform="matrix(0.05,0,0,0.05,34.95,0)" xlink:href="#br"/><use transform="matrix(0.05,0,0,0.05,39.95,0)" xlink:href="#bp"/></g><path d="M155-56V0h-30v-56H8v-25l114-167h33v167h35v25h-35zm-30-156c-27 46-58 90-88 131h88v-131" id="bs"/><path d="M101-251c68 0 85 55 85 127S166 4 100 4C33 4 14-52 14-124c0-73 17-127 87-127zm-1 229c47 0 54-49 54-102s-4-102-53-102c-51 0-55 48-55 102 0 53 5 102 54 102" id="bt"/><g id="w"><use transform="matrix(0.05,0,0,0.05,0,0)" xlink:href="#bs"/><use transform="matrix(0.05,0,0,0.05,10,0)" xlink:href="#bt"/></g><path fill="#3aa6dd" d="M25 0v-261h50V0H25" id="bu"/><path fill="#3aa6dd" d="M25-224v-37h50v37H25zM25 0v-190h50V0H25" id="bv"/><g id="x"><use transform="matrix(0.05,0,0,0.05,0,0)" xlink:href="#ag"/><use transform="matrix(0.05,0,0,0.05,12,0)" xlink:href="#bi"/><use transform="matrix(0.05,0,0,0.05,22.950000000000003,0)" xlink:href="#bu"/><use transform="matrix(0.05,0,0,0.05,27.950000000000003,0)" xlink:href="#bv"/><use transform="matrix(0.05,0,0,0.05,32.95,0)" xlink:href="#bj"/></g><path d="M110-160c48 1 74 30 74 79 0 53-28 85-80 85-65 0-83-55-86-122-5-90 50-162 133-122 14 7 22 21 27 39l-31 6c-5-40-67-38-82-6-9 19-15 44-15 74 11-20 30-34 60-33zm-7 138c34 0 49-23 49-58s-16-56-50-56c-29 0-50 16-49 49 1 36 15 65 50 65" id="bw"/><g id="y"><use transform="matrix(0.05,0,0,0.05,0,0)" xlink:href="#bw"/><use transform="matrix(0.05,0,0,0.05,10,0)" xlink:href="#bt"/></g><path fill="#3aa6dd" d="M230 0l2-204L168 0h-37L68-204 70 0H24v-248h70l56 185 57-185h69V0h-46" id="bx"/><path fill="#3aa6dd" d="M135-150c-39-12-60 13-60 57V0H25l-1-190h47c2 13-1 29 3 40 6-28 27-53 61-41v41" id="by"/><path fill="#3aa6dd" d="M195-6C206 82 75 100 31 46c-4-6-6-13-8-21l49-6c3 16 16 24 34 25 40 0 42-37 40-79-11 22-30 35-61 35-53 0-70-43-70-97 0-56 18-96 73-97 30 0 46 14 59 34l2-30h47zm-90-29c32 0 41-27 41-63 0-35-9-62-40-62-32 0-39 29-40 63 0 36 9 62 39 62" id="bz"/><g id="z"><use transform="matrix(0.05,0,0,0.05,0,0)" xlink:href="#bx"/><use transform="matrix(0.05,0,0,0.05,14.950000000000001,0)" xlink:href="#bh"/><use transform="matrix(0.05,0,0,0.05,24.950000000000003,0)" xlink:href="#by"/><use transform="matrix(0.05,0,0,0.05,31.950000000000003,0)" xlink:href="#bz"/><use transform="matrix(0.05,0,0,0.05,42.900000000000006,0)" xlink:href="#bh"/></g><path d="M27 0v-27h64v-190l-56 39v-29l58-41h29v221h61V0H27" id="bA"/><g id="A"><use transform="matrix(0.05,0,0,0.05,0,0)" xlink:href="#bA"/><use transform="matrix(0.05,0,0,0.05,10,0)" xlink:href="#bt"/><use transform="matrix(0.05,0,0,0.05,20,0)" xlink:href="#bt"/></g><path fill="#333" d="M127-220V0H93v-220H8v-28h204v28h-85" id="bB"/><path fill="#333" d="M101-234c-31-9-42 10-38 44h38v23H63V0H32v-167H5v-23h27c-7-52 17-82 69-68v24" id="bC"/><path fill="#333" d="M233-177c-1 41-23 64-60 70L243 0h-38l-65-103H63V0H30v-248c88 3 205-21 203 71zM63-129c60-2 137 13 137-47 0-61-80-42-137-45v92" id="bD"/><path fill="#333" d="M145-31C134-9 116 4 85 4 32 4 16-35 15-94c0-59 17-99 70-100 32-1 48 14 60 33 0-11-1-24 2-32h30l-1 268h-32zM93-21c41 0 51-33 51-76s-8-73-50-73c-40 0-46 35-46 75s5 74 45 74" id="bE"/><path fill="#333" d="M84 4C-5 8 30-112 23-190h32v120c0 31 7 50 39 49 72-2 45-101 50-169h31l1 190h-30c-1-10 1-25-2-33-11 22-28 36-60 37" id="bF"/><g id="B"><use transform="matrix(0.05,0,0,0.05,0,0)" xlink:href="#bB"/><use transform="matrix(0.05,0,0,0.05,10.3,0)" xlink:href="#W"/><use transform="matrix(0.05,0,0,0.05,16.25,0)" xlink:href="#aW"/><use transform="matrix(0.05,0,0,0.05,26.25,0)" xlink:href="#V"/><use transform="matrix(0.05,0,0,0.05,36.25,0)" xlink:href="#Q"/><use transform="matrix(0.05,0,0,0.05,45.25,0)" xlink:href="#bC"/><use transform="matrix(0.05,0,0,0.05,50.25,0)" xlink:href="#R"/><use transform="matrix(0.05,0,0,0.05,60.25,0)" xlink:href="#W"/><use transform="matrix(0.05,0,0,0.05,66.2,0)" xlink:href="#bD"/><use transform="matrix(0.05,0,0,0.05,79.15,0)" xlink:href="#R"/><use transform="matrix(0.05,0,0,0.05,89.15,0)" xlink:href="#bE"/><use transform="matrix(0.05,0,0,0.05,99.15,0)" xlink:href="#bF"/><use transform="matrix(0.05,0,0,0.05,109.15,0)" xlink:href="#R"/><use transform="matrix(0.05,0,0,0.05,119.15,0)" xlink:href="#Q"/><use transform="matrix(0.05,0,0,0.05,128.15,0)" xlink:href="#S"/></g><path d="M100-194c63 0 86 42 84 106H49c0 40 14 67 53 68 26 1 43-12 49-29l28 8c-11 28-37 45-77 45C44 4 14-33 15-96c1-61 26-98 85-98zm52 81c6-60-76-77-97-28-3 7-6 17-6 28h103" id="bG"/><path d="M206 0h-36l-40-164L89 0H53L-1-190h32L70-26l43-164h34l41 164 42-164h31" id="bH"/><path d="M140-251c81 0 123 46 123 126C263-46 219 4 140 4 59 4 17-45 17-125s42-126 123-126zm0 227c63 0 89-41 89-101s-29-99-89-99c-61 0-89 39-89 99S79-25 140-24" id="bI"/><path d="M114-163C36-179 61-72 57 0H25l-1-190h30c1 12-1 29 2 39 6-27 23-49 58-41v29" id="bJ"/><g id="C"><use transform="matrix(0.05,0,0,0.05,0,0)" xlink:href="#at"/><use transform="matrix(0.05,0,0,0.05,10,0)" xlink:href="#bG"/><use transform="matrix(0.05,0,0,0.05,20,0)" xlink:href="#bH"/><use transform="matrix(0.05,0,0,0.05,32.95,0)" xlink:href="#bI"/><use transform="matrix(0.05,0,0,0.05,46.95,0)" xlink:href="#bH"/><use transform="matrix(0.05,0,0,0.05,59.900000000000006,0)" xlink:href="#at"/><use transform="matrix(0.05,0,0,0.05,69.9,0)" xlink:href="#bG"/><use transform="matrix(0.05,0,0,0.05,79.9,0)" xlink:href="#bJ"/></g><g id="D"><use transform="matrix(0.05,0,0,0.05,0,0)" xlink:href="#ae"/><use transform="matrix(0.05,0,0,0.05,4.25,0)" xlink:href="#ak"/><use transform="matrix(0.05,0,0,0.05,17.200000000000003,0)" xlink:href="#al"/><use transform="matrix(0.05,0,0,0.05,27.200000000000003,0)" xlink:href="#am"/><use transform="matrix(0.05,0,0,0.05,38.150000000000006,0)" xlink:href="#an"/><use transform="matrix(0.05,0,0,0.05,48.150000000000006,0)" xlink:href="#ak"/><use transform="matrix(0.05,0,0,0.05,61.1,0)" xlink:href="#ae"/></g><path fill="#3aa6dd" d="M240-174c0 40-23 61-54 70L253 0h-59l-57-94H76V0H24v-248c93 4 217-23 216 74zM76-134c48-2 112 12 112-38 0-48-66-32-112-35v73" id="bK"/><path fill="#3aa6dd" d="M84 4C32 4 15-41 15-95c0-55 18-99 73-99 29 0 47 12 58 34l2-30h48l-1 265h-49V-32C136-9 114 4 84 4zm21-34c32 0 41-29 41-66 0-36-9-64-40-64-33 0-39 30-40 65 0 43 13 65 39 65" id="bL"/><path fill="#3aa6dd" d="M136-208V0H84v-208H4v-40h212v40h-80" id="bM"/><path fill="#3aa6dd" d="M121-226c-27-7-43 5-38 36h38v33H83V0H34v-157H6v-33h28c-9-59 32-81 87-68v32" id="bN"/><g id="E"><use transform="matrix(0.05,0,0,0.05,0,0)" xlink:href="#bK"/><use transform="matrix(0.05,0,0,0.05,12.950000000000001,0)" xlink:href="#bh"/><use transform="matrix(0.05,0,0,0.05,22.950000000000003,0)" xlink:href="#bL"/><use transform="matrix(0.05,0,0,0.05,33.900000000000006,0)" xlink:href="#bm"/><use transform="matrix(0.05,0,0,0.05,44.85000000000001,0)" xlink:href="#bh"/><use transform="matrix(0.05,0,0,0.05,54.85,0)" xlink:href="#bl"/><use transform="matrix(0.05,0,0,0.05,64.85000000000001,0)" xlink:href="#bj"/><use transform="matrix(0.05,0,0,0.05,70.80000000000001,0)" xlink:href="#bM"/><use transform="matrix(0.05,0,0,0.05,80.75000000000001,0)" xlink:href="#by"/><use transform="matrix(0.05,0,0,0.05,87.75000000000001,0)" xlink:href="#al"/><use transform="matrix(0.05,0,0,0.05,97.75000000000001,0)" xlink:href="#am"/><use transform="matrix(0.05,0,0,0.05,108.7,0)" xlink:href="#bl"/><use transform="matrix(0.05,0,0,0.05,118.7,0)" xlink:href="#bN"/><use transform="matrix(0.05,0,0,0.05,124.65000000000003,0)" xlink:href="#bh"/><use transform="matrix(0.05,0,0,0.05,134.65000000000003,0)" xlink:href="#by"/></g><g id="F"><use transform="matrix(0.05,0,0,0.05,0,0)" xlink:href="#ae"/><use transform="matrix(0.05,0,0,0.05,4.25,0)" xlink:href="#ak"/><use transform="matrix(0.05,0,0,0.05,17.200000000000003,0)" xlink:href="#al"/><use transform="matrix(0.05,0,0,0.05,27.200000000000003,0)" xlink:href="#am"/><use transform="matrix(0.05,0,0,0.05,38.150000000000006,0)" xlink:href="#an"/><use transform="matrix(0.05,0,0,0.05,48.150000000000006,0)" xlink:href="#ak"/><use transform="matrix(0.05,0,0,0.05,61.1,0)" xlink:href="#ae"/></g><path fill="#3aa6dd" d="M25-224v-37h50v37H25zM75 22c2 45-34 59-81 51V38c22 5 31-5 31-27v-201h50V22" id="bO"/><g id="G"><use transform="matrix(0.05,0,0,0.05,0,0)" xlink:href="#bK"/><use transform="matrix(0.05,0,0,0.05,12.950000000000001,0)" xlink:href="#bh"/><use transform="matrix(0.05,0,0,0.05,22.950000000000003,0)" xlink:href="#bO"/><use transform="matrix(0.05,0,0,0.05,27.950000000000003,0)" xlink:href="#bh"/><use transform="matrix(0.05,0,0,0.05,37.95,0)" xlink:href="#bg"/><use transform="matrix(0.05,0,0,0.05,47.95,0)" xlink:href="#bj"/></g><g id="H"><use transform="matrix(0.05,0,0,0.05,0,0)" xlink:href="#ar"/><use transform="matrix(0.05,0,0,0.05,10,0)" xlink:href="#bJ"/></g><g id="I"><use transform="matrix(0.05,0,0,0.05,0,0)" xlink:href="#ae"/><use transform="matrix(0.05,0,0,0.05,4.25,0)" xlink:href="#ak"/><use transform="matrix(0.05,0,0,0.05,17.200000000000003,0)" xlink:href="#al"/><use transform="matrix(0.05,0,0,0.05,27.200000000000003,0)" xlink:href="#am"/><use transform="matrix(0.05,0,0,0.05,38.150000000000006,0)" xlink:href="#an"/><use transform="matrix(0.05,0,0,0.05,48.150000000000006,0)" xlink:href="#ao"/><use transform="matrix(0.05,0,0,0.05,61.1,0)" xlink:href="#ae"/></g><g id="J"><use transform="matrix(0.05,0,0,0.05,0,0)" xlink:href="#af"/><use transform="matrix(0.05,0,0,0.05,12.950000000000001,0)" xlink:href="#al"/><use transform="matrix(0.05,0,0,0.05,22.950000000000003,0)" xlink:href="#am"/><use transform="matrix(0.05,0,0,0.05,33.900000000000006,0)" xlink:href="#bg"/><use transform="matrix(0.05,0,0,0.05,43.900000000000006,0)" xlink:href="#bh"/><use transform="matrix(0.05,0,0,0.05,53.900000000000006,0)" xlink:href="#bu"/></g><path fill="#333" d="M185-189c-5-48-123-54-124 2 14 75 158 14 163 119 3 78-121 87-175 55-17-10-28-26-33-46l33-7c5 56 141 63 141-1 0-78-155-14-162-118-5-82 145-84 179-34 5 7 8 16 11 25" id="bP"/><path fill="#333" d="M24 0v-261h32V0H24" id="bQ"/><path fill="#333" d="M210-169c-67 3-38 105-44 169h-31v-121c0-29-5-50-35-48C34-165 62-65 56 0H25l-1-190h30c1 10-1 24 2 32 10-44 99-50 107 0 11-21 27-35 58-36 85-2 47 119 55 194h-31v-121c0-29-5-49-35-48" id="bR"/><g id="K"><use transform="matrix(0.05,0,0,0.05,0,0)" xlink:href="#bP"/><use transform="matrix(0.05,0,0,0.05,12,0)" xlink:href="#R"/><use transform="matrix(0.05,0,0,0.05,22,0)" xlink:href="#S"/><use transform="matrix(0.05,0,0,0.05,27,0)" xlink:href="#S"/><use transform="matrix(0.05,0,0,0.05,32,0)" xlink:href="#bQ"/><use transform="matrix(0.05,0,0,0.05,35.95,0)" xlink:href="#R"/><use transform="matrix(0.05,0,0,0.05,45.95,0)" xlink:href="#bR"/><use transform="matrix(0.05,0,0,0.05,60.900000000000006,0)" xlink:href="#R"/><use transform="matrix(0.05,0,0,0.05,70.9,0)" xlink:href="#V"/><use transform="matrix(0.05,0,0,0.05,80.9,0)" xlink:href="#S"/></g><g id="L"><use transform="matrix(0.05,0,0,0.05,0,0)" xlink:href="#ag"/><use transform="matrix(0.05,0,0,0.05,12,0)" xlink:href="#bh"/><use transform="matrix(0.05,0,0,0.05,22,0)" xlink:href="#bj"/><use transform="matrix(0.05,0,0,0.05,27.950000000000003,0)" xlink:href="#bj"/><use transform="matrix(0.05,0,0,0.05,33.9,0)" xlink:href="#bu"/><use transform="matrix(0.05,0,0,0.05,38.9,0)" xlink:href="#bh"/></g><g id="M"><use transform="matrix(0.05,0,0,0.05,0,0)" xlink:href="#bK"/><use transform="matrix(0.05,0,0,0.05,12.950000000000001,0)" xlink:href="#bh"/><use transform="matrix(0.05,0,0,0.05,22.950000000000003,0)" xlink:href="#bO"/><use transform="matrix(0.05,0,0,0.05,27.950000000000003,0)" xlink:href="#bh"/><use transform="matrix(0.05,0,0,0.05,37.95,0)" xlink:href="#bg"/><use transform="matrix(0.05,0,0,0.05,47.95,0)" xlink:href="#bj"/></g><path fill="#333" d="M96-169c-40 0-48 33-48 73s9 75 48 75c24 0 41-14 43-38l32 2c-6 37-31 61-74 61-59 0-76-41-82-99-10-93 101-131 147-64 4 7 5 14 7 22l-32 3c-4-21-16-35-41-35" id="bS"/><g id="N"><use transform="matrix(0.05,0,0,0.05,0,0)" xlink:href="#P"/><use transform="matrix(0.05,0,0,0.05,12,0)" xlink:href="#bS"/><use transform="matrix(0.05,0,0,0.05,21,0)" xlink:href="#bS"/><use transform="matrix(0.05,0,0,0.05,30,0)" xlink:href="#aX"/><use transform="matrix(0.05,0,0,0.05,40,0)" xlink:href="#bF"/><use transform="matrix(0.05,0,0,0.05,50,0)" xlink:href="#V"/><use transform="matrix(0.05,0,0,0.05,60,0)" xlink:href="#S"/></g><path fill="#3aa6dd" d="M110-194c64 0 96 36 96 99 0 64-35 99-97 99-61 0-95-36-95-99 0-62 34-99 96-99zm-1 164c35 0 45-28 45-65 0-40-10-65-43-65-34 0-45 26-45 65 0 36 10 65 43 65" id="bT"/><g id="O"><use transform="matrix(0.05,0,0,0.05,0,0)" xlink:href="#bk"/><use transform="matrix(0.05,0,0,0.05,5,0)" xlink:href="#bl"/><use transform="matrix(0.05,0,0,0.05,15,0)" xlink:href="#bl"/><use transform="matrix(0.05,0,0,0.05,25,0)" xlink:href="#bm"/><use transform="matrix(0.05,0,0,0.05,35.95,0)" xlink:href="#bh"/><use transform="matrix(0.05,0,0,0.05,45.95,0)" xlink:href="#ao"/><use transform="matrix(0.05,0,0,0.05,58.900000000000006,0)" xlink:href="#bg"/><use transform="matrix(0.05,0,0,0.05,68.9,0)" xlink:href="#bg"/><use transform="matrix(0.05,0,0,0.05,78.9,0)" xlink:href="#bT"/><use transform="matrix(0.05,0,0,0.05,89.85000000000001,0)" xlink:href="#bm"/><use transform="matrix(0.05,0,0,0.05,100.80000000000001,0)" xlink:href="#am"/><use transform="matrix(0.05,0,0,0.05,111.75,0)" xlink:href="#bj"/></g></defs></g></svg>