<svg xmlns="http://www.w3.org/2000/svg" xmlns:xlink="http://www.w3.org/1999/xlink" xmlns:lucid="lucid" width="1380.19" height="401.51"><g transform="translate(0 0)" lucid:page-tab-id="0_0"><path d="M25.1 225.1h1320" fill="none"/><path d="M25.1 225.1h3m4 0h6m4 0h6m4 0h6m4 0h6m4 0h6m4 0h6m4 0h6m4 0h6m4 0h6m4 0h6m4 0h6m4 0h6m4 0h6m4 0h6m4 0h6m4 0h6m4 0h6m4 0h6m4 0h6m4 0h6m4 0h6m4 0h6m4 0h6m4 0h6m4 0h6m4 0h6m4 0h6m4 0h6m4 0h6m4 0h6m4 0h6m4 0h6m4 0h6m4 0h6m4 0h6m4 0h6m4 0h6m4 0h6m4 0h6m4 0h6m4 0h6m4 0h6m4 0h6m4 0h6m4 0h6m4 0h6m4 0h6m4 0h6m4 0h6m4 0h6m4 0h6m4 0h6m4 0h6m4 0h6m4 0h6m4 0h6m4 0h6m4 0h6m4 0h6m4 0h6m4 0h6m4 0h6m4 0h6m4 0h6m4 0h6m4 0h6m4 0h6m4 0h6m4 0h6m4 0h6m4 0h6m4 0h6m4 0h6m4 0h6m4 0h6m4 0h6m4 0h6m4 0h6m4 0h6m4 0h6m4 0h6m4 0h6m4 0h6m4 0h6m4 0h6m4 0h6m4 0h6m4 0h6m4 0h6m4 0h6m4 0h6m4 0h6m4 0h6m4 0h6m4 0h6m4 0h6m4 0h6m4 0h6m4 0h6m4 0h6m4 0h6m4 0h6m4 0h6m4 0h6m4 0h6m4 0h6m4 0h6m4 0h6m4 0h6m4 0h6m4 0h6m4 0h6m4 0h6m4 0h6m4 0h6m4 0h6m4 0h6m4 0h6m4 0h6m4 0h6m4 0h6m4 0h6m4 0h6m4 0h6m4 0h6m4 0h6m4 0h6m4 0h6m4 0h6m4 0h6m4 0h6m4 0h3" stroke="#000" stroke-width="2" fill="none"/><use xlink:href="#a" transform="matrix(1,0,0,1,37.70267295597484,199.4943396226415) translate(0 14.4)"/><use xlink:href="#b" transform="matrix(1,0,0,1,37.93333333333332,229.0943396226415) translate(0 14.4)"/><path d="M387.45 80l47.46 37.45-47.45 37.46L340 117.46z" stroke="#000" stroke-width="2" fill="#fff"/><use xlink:href="#c" transform="matrix(1,0,0,1,345,85) translate(18.525 36.1)"/><path d="M555.1 265.1h160v120h-160z" stroke="#000" stroke-width="2" fill="#fff"/><use xlink:href="#d" transform="matrix(1,0,0,1,560.0943396226415,270.09433962264154) translate(21.625 58.6)"/><use xlink:href="#e" transform="matrix(1,0,0,1,560.0943396226415,270.09433962264154) translate(97.525 58.6)"/><path d="M491.4 197.28l54.6 54" stroke="#000" stroke-width="2" fill="none"/><path d="M492.1 196.57l-1.4 1.42-.8-.8 1.57-1.25zM556.67 261.82l-13.4-6.73 6.52-6.6z"/><path d="M558.97 264.1l-17.38-8.74 8.44-8.55zm-14.02-9.3l9.42 4.74-4.84-9.37z"/><path d="M436.52 117.45h289.34" stroke="#000" stroke-width="2" fill="none"/><path d="M436.52 118.45h-2.88l1.27-1-1.26-1h2.88z"/><path d="M740.86 117.45l-14.27 4.64v-9.28z" stroke="#000" stroke-width="2"/><path d="M1055.1 85.1c0 22.1-17.9 40-40 40s-40-17.9-40-40 17.9-40 40-40 40 17.9 40 40z" stroke="#000" stroke-width="2" fill="#fff"/><use xlink:href="#f" transform="matrix(1,0,0,1,980.0943396226415,50.09433962264152) translate(12.5 38.6)"/><path d="M40.1 265.1c-8.3 0-15 6.7-15 15v90c0 8.28 6.7 15 15 15m210 0c8.28 0 15-6.72 15-15v-90c0-8.3-6.72-15-15-15" stroke="#000" stroke-width="2" fill="none"/><path d="M125.1 325.1c0 22.1-17.9 40-40 40s-40-17.9-40-40 17.9-40 40-40 40 17.9 40 40z" stroke="#000" stroke-width="2" fill="#fff"/><use xlink:href="#f" transform="matrix(1,0,0,1,50.09433962264151,290.09433962264154) translate(12.5 38.6)"/><path d="M125.1 295.1h140v60h-140z" stroke="#000" stroke-opacity="0" stroke-width="2" fill="#fff" fill-opacity="0"/><use xlink:href="#g" transform="matrix(1,0,0,1,130.0943396226415,300.09433962264154) translate(26 17.799999999999997)"/><use xlink:href="#h" transform="matrix(1,0,0,1,130.0943396226415,300.09433962264154) translate(46 17.799999999999997)"/><use xlink:href="#i" transform="matrix(1,0,0,1,130.0943396226415,300.09433962264154) translate(89 17.799999999999997)"/><use xlink:href="#j" transform="matrix(1,0,0,1,130.0943396226415,300.09433962264154) translate(19.549999999999997 39.4)"/><path d="M266.1 325.1h29v.1h10.76M266.1 325.1h-3" stroke="#000" stroke-width="2" fill="none"/><path d="M320.86 325.2l-14.27 4.64v-9.27z" stroke="#000" stroke-width="2"/><use xlink:href="#k" transform="matrix(1,0,0,1,275.00267295597484,299.4943396226415) translate(0 14.4)"/><path d="M325.1 65.1v-40h200v40" fill="#fff"/><path d="M325.1 65.1v-40h200v40zM325.1 65.1v320h200v-320M325.1 65.1h200" stroke="#000" stroke-width="2" fill="none"/><use xlink:href="#l" transform="matrix(1,0,0,1,325.09433962264154,25.094339622641513) translate(33.599999999999994 23.6)"/><use xlink:href="#e" transform="matrix(1,0,0,1,325.09433962264154,25.094339622641513) translate(135.55 23.6)"/><path d="M385.1 285.1c-5.53 0-10 4.47-10 10v60c0 5.52 4.47 10 10 10m80 0c5.52 0 10-4.48 10-10v-60c0-5.53-4.48-10-10-10" stroke="#000" stroke-width="2" fill="none"/><path d="M465.1 325.1c0 22.1-17.9 40-40 40s-40-17.9-40-40 17.9-40 40-40 40 17.9 40 40z" stroke="#000" stroke-width="2" fill="#fff"/><use xlink:href="#f" transform="matrix(1,0,0,1,390.09433962264154,290.09433962264154) translate(12.5 38.6)"/><path d="M745.1 65.1v-40h200v40" fill="#fff"/><path d="M745.1 65.1v-40h200v40zM745.1 65.1v320h200v-320M745.1 65.1h200" stroke="#000" stroke-width="2" fill="none"/><use xlink:href="#m" transform="matrix(1,0,0,1,745.0943396226415,25.094339622641513) translate(53.099999999999994 23.6)"/><use xlink:href="#e" transform="matrix(1,0,0,1,745.0943396226415,25.094339622641513) translate(116.05 23.6)"/><path d="M805.1 285.1c-5.53 0-10 4.47-10 10v60c0 5.52 4.47 10 10 10m80 0c5.52 0 10-4.48 10-10v-60c0-5.53-4.48-10-10-10" stroke="#000" stroke-width="2" fill="none"/><path d="M885.1 325.1c0 22.1-17.9 40-40 40s-40-17.9-40-40 17.9-40 40-40 40 17.9 40 40z" stroke="#000" stroke-width="2" fill="#fff"/><use xlink:href="#f" transform="matrix(1,0,0,1,810.0943396226415,290.09433962264154) translate(12.5 38.6)"/><path d="M1065.1 265.1h160v120h-160z" stroke="#000" stroke-width="2" fill="#fff"/><use xlink:href="#n" transform="matrix(1,0,0,1,1070.0943396226414,270.09433962264154) translate(29.099999999999994 58.6)"/><use xlink:href="#e" transform="matrix(1,0,0,1,1070.0943396226414,270.09433962264154) translate(90.05 58.6)"/><path d="M1345.1 325.1c0 22.1-17.9 40-40 40s-40-17.9-40-40 17.9-40 40-40 40 17.9 40 40z" stroke="#000" stroke-width="2" fill="#fff"/><use xlink:href="#f" transform="matrix(1,0,0,1,1270.0943396226414,290.09433962264154) translate(12.5 38.6)"/><path d="M1265.1 45.1c-5.53 0-10 4.47-10 10v60c0 5.52 4.47 10 10 10m80 0c5.52 0 10-4.48 10-10v-60c0-5.53-4.48-10-10-10" stroke="#000" stroke-width="2" fill="none"/><path d="M1345.1 85.1c0 22.1-17.9 40-40 40s-40-17.9-40-40 17.9-40 40-40 40 17.9 40 40z" stroke="#000" stroke-width="2" fill="#fff"/><use xlink:href="#f" transform="matrix(1,0,0,1,1270.0943396226414,50.09433962264152) translate(12.5 38.6)"/><path d="M901.52 157.45h403.57v108.4" stroke="#000" stroke-width="2" fill="none"/><path d="M901.52 158.45h-2.88l1.27-1-1.26-1h2.88zM1305.1 280.86l-4.64-14.27h9.27z"/><path d="M1305.1 284.1l-6.02-18.5h12.03zm-3.26-16.5l3.25 10.02 3.25-10.03z"/><path d="M1015.1 126.1v15.67h-.43v15.68" stroke="#000" stroke-width="2" fill="none"/><path d="M1015.1 125.1l1-.04v1.03h-2v-1.07z"/><path d="M467.45 140l47.46 37.45-47.45 37.46L420 177.46z" stroke="#000" stroke-width="2" fill="#fff"/><use xlink:href="#o" transform="matrix(1,0,0,1,425,145) translate(12.049999999999997 36.1)"/><path d="M852.45 120l47.46 37.45-47.45 37.46L805 157.46z" stroke="#000" stroke-width="2" fill="#fff"/><use xlink:href="#p" transform="matrix(1,0,0,1,810,125) translate(19.525 36.1)"/><path d="M1305.1 144.33v13.12" stroke="#000" stroke-width="2" fill="none"/><path d="M1309.73 143.6h-9.27l4.63-14.27z"/><path d="M1311.1 144.6h-12.02l6-18.5zm-9.26-2h6.5l-3.25-10.03z"/><path d="M1145.1 245.86v-35.1h.23v-53.3" stroke="#000" stroke-width="2" fill="none"/><path d="M1145.1 260.86l-4.64-14.27h9.27z"/><path d="M1145.1 264.1l-6.02-18.5h12.03zm-3.26-16.5l3.25 10.02 3.25-10.03z"/><defs><path d="M212-179c-10-28-35-45-73-45-59 0-87 40-87 99 0 60 29 101 89 101 43 0 62-24 78-52l27 14C228-24 195 4 139 4 59 4 22-46 18-125c-6-104 99-153 187-111 19 9 31 26 39 46" id="q"/><path d="M100-194c62-1 85 37 85 99 1 63-27 99-86 99S16-35 15-95c0-66 28-99 85-99zM99-20c44 1 53-31 53-75 0-43-8-75-51-75s-53 32-53 75 10 74 51 75" id="r"/><path d="M84 4C-5 8 30-112 23-190h32v120c0 31 7 50 39 49 72-2 45-101 50-169h31l1 190h-30c-1-10 1-25-2-33-11 22-28 36-60 37" id="s"/><path d="M117-194c89-4 53 116 60 194h-32v-121c0-31-8-49-39-48C34-167 62-67 57 0H25l-1-190h30c1 10-1 24 2 32 11-22 29-35 61-36" id="t"/><path d="M59-47c-2 24 18 29 38 22v24C64 9 27 4 27-40v-127H5v-23h24l9-43h21v43h35v23H59v120" id="u"/><path d="M100-194c63 0 86 42 84 106H49c0 40 14 67 53 68 26 1 43-12 49-29l28 8c-11 28-37 45-77 45C44 4 14-33 15-96c1-61 26-98 85-98zm52 81c6-60-76-77-97-28-3 7-6 17-6 28h103" id="v"/><path d="M114-163C36-179 61-72 57 0H25l-1-190h30c1 12-1 29 2 39 6-27 23-49 58-41v29" id="w"/><path d="M115-194c55 1 70 41 70 98S169 2 115 4C84 4 66-9 55-30l1 105H24l-1-265h31l2 30c10-21 28-34 59-34zm-8 174c40 0 45-34 45-75s-6-73-45-74c-42 0-51 32-51 76 0 43 10 73 51 73" id="x"/><path d="M141-36C126-15 110 5 73 4 37 3 15-17 15-53c-1-64 63-63 125-63 3-35-9-54-41-54-24 1-41 7-42 31l-33-3c5-37 33-52 76-52 45 0 72 20 72 64v82c-1 20 7 32 28 27v20c-31 9-61-2-59-35zM48-53c0 20 12 33 32 33 41-3 63-29 60-74-43 2-92-5-92 41" id="y"/><path d="M179-190L93 31C79 59 56 82 12 73V49c39 6 53-20 64-50L1-190h34L92-34l54-156h33" id="z"/><g id="a"><use transform="matrix(0.05,0,0,0.05,0,0)" xlink:href="#q"/><use transform="matrix(0.05,0,0,0.05,12.950000000000001,0)" xlink:href="#r"/><use transform="matrix(0.05,0,0,0.05,22.950000000000003,0)" xlink:href="#s"/><use transform="matrix(0.05,0,0,0.05,32.95,0)" xlink:href="#t"/><use transform="matrix(0.05,0,0,0.05,42.95,0)" xlink:href="#u"/><use transform="matrix(0.05,0,0,0.05,47.95,0)" xlink:href="#v"/><use transform="matrix(0.05,0,0,0.05,57.95,0)" xlink:href="#w"/><use transform="matrix(0.05,0,0,0.05,63.900000000000006,0)" xlink:href="#x"/><use transform="matrix(0.05,0,0,0.05,73.9,0)" xlink:href="#y"/><use transform="matrix(0.05,0,0,0.05,83.9,0)" xlink:href="#w"/><use transform="matrix(0.05,0,0,0.05,89.85000000000001,0)" xlink:href="#u"/><use transform="matrix(0.05,0,0,0.05,94.85000000000001,0)" xlink:href="#z"/></g><path d="M24 0v-261h32V0H24" id="A"/><g id="b"><use transform="matrix(0.05,0,0,0.05,0,0)" xlink:href="#q"/><use transform="matrix(0.05,0,0,0.05,12.950000000000001,0)" xlink:href="#y"/><use transform="matrix(0.05,0,0,0.05,22.950000000000003,0)" xlink:href="#A"/><use transform="matrix(0.05,0,0,0.05,26.900000000000002,0)" xlink:href="#A"/><use transform="matrix(0.05,0,0,0.05,30.85,0)" xlink:href="#v"/><use transform="matrix(0.05,0,0,0.05,40.85,0)" xlink:href="#w"/></g><path d="M205 0l-28-72H64L36 0H1l101-248h38L239 0h-34zm-38-99l-47-123c-12 45-31 82-46 123h93" id="B"/><path d="M177-190C167-65 218 103 67 71c-23-6-38-20-44-43l32-5c15 47 100 32 89-28v-30C133-14 115 1 83 1 29 1 15-40 15-95c0-56 16-97 71-98 29-1 48 16 59 35 1-10 0-23 2-32h30zM94-22c36 0 50-32 50-73 0-42-14-75-50-75-39 0-46 34-46 75s6 73 46 73" id="C"/><g id="c"><use transform="matrix(0.05,0,0,0.05,0,0)" xlink:href="#B"/><use transform="matrix(0.05,0,0,0.05,12,0)" xlink:href="#C"/><use transform="matrix(0.05,0,0,0.05,22,0)" xlink:href="#w"/><use transform="matrix(0.05,0,0,0.05,27.950000000000003,0)" xlink:href="#v"/><use transform="matrix(0.05,0,0,0.05,37.95,0)" xlink:href="#v"/></g><path d="M30-248c118-7 216 8 213 122C240-48 200 0 122 0H30v-248zM63-27c89 8 146-16 146-99s-60-101-146-95v194" id="D"/><path d="M24-231v-30h32v30H24zM24 0v-190h32V0H24" id="E"/><path d="M135-143c-3-34-86-38-87 0 15 53 115 12 119 90S17 21 10-45l28-5c4 36 97 45 98 0-10-56-113-15-118-90-4-57 82-63 122-42 12 7 21 19 24 35" id="F"/><path d="M85-194c31 0 48 13 60 33l-1-100h32l1 261h-30c-2-10 0-23-3-31C134-8 116 4 85 4 32 4 16-35 15-94c0-66 23-100 70-100zm9 24c-40 0-46 34-46 75 0 40 6 74 45 74 42 0 51-32 51-76 0-42-9-74-50-73" id="G"/><g id="d"><use transform="matrix(0.05,0,0,0.05,0,0)" xlink:href="#D"/><use transform="matrix(0.05,0,0,0.05,12.950000000000001,0)" xlink:href="#E"/><use transform="matrix(0.05,0,0,0.05,16.900000000000002,0)" xlink:href="#F"/><use transform="matrix(0.05,0,0,0.05,25.900000000000002,0)" xlink:href="#x"/><use transform="matrix(0.05,0,0,0.05,35.900000000000006,0)" xlink:href="#s"/><use transform="matrix(0.05,0,0,0.05,45.900000000000006,0)" xlink:href="#u"/><use transform="matrix(0.05,0,0,0.05,50.900000000000006,0)" xlink:href="#v"/><use transform="matrix(0.05,0,0,0.05,60.900000000000006,0)" xlink:href="#G"/></g><g id="e"><use transform="matrix(0.05,0,0,0.05,0,0)" xlink:href="#q"/><use transform="matrix(0.05,0,0,0.05,12.950000000000001,0)" xlink:href="#y"/><use transform="matrix(0.05,0,0,0.05,22.950000000000003,0)" xlink:href="#A"/><use transform="matrix(0.05,0,0,0.05,26.900000000000002,0)" xlink:href="#A"/></g><g id="f"><use transform="matrix(0.05,0,0,0.05,0,0)" xlink:href="#B"/><use transform="matrix(0.05,0,0,0.05,12,0)" xlink:href="#F"/><use transform="matrix(0.05,0,0,0.05,21,0)" xlink:href="#F"/><use transform="matrix(0.05,0,0,0.05,30,0)" xlink:href="#v"/><use transform="matrix(0.05,0,0,0.05,40,0)" xlink:href="#u"/></g><path d="M33 0v-248h34V0H33" id="H"/><g id="g"><use transform="matrix(0.05,0,0,0.05,0,0)" xlink:href="#H"/><use transform="matrix(0.05,0,0,0.05,5,0)" xlink:href="#t"/></g><path d="M96-169c-40 0-48 33-48 73s9 75 48 75c24 0 41-14 43-38l32 2c-6 37-31 61-74 61-59 0-76-41-82-99-10-93 101-131 147-64 4 7 5 14 7 22l-32 3c-4-21-16-35-41-35" id="I"/><g id="h"><use transform="matrix(0.05,0,0,0.05,0,0)" xlink:href="#I"/><use transform="matrix(0.05,0,0,0.05,9,0)" xlink:href="#y"/><use transform="matrix(0.05,0,0,0.05,19,0)" xlink:href="#F"/><use transform="matrix(0.05,0,0,0.05,28,0)" xlink:href="#v"/></g><path d="M101-234c-31-9-42 10-38 44h38v23H63V0H32v-167H5v-23h27c-7-52 17-82 69-68v24" id="J"/><g id="i"><use transform="matrix(0.05,0,0,0.05,0,0)" xlink:href="#r"/><use transform="matrix(0.05,0,0,0.05,10,0)" xlink:href="#J"/></g><path d="M115-194c53 0 69 39 70 98 0 66-23 100-70 100C84 3 66-7 56-30L54 0H23l1-261h32v101c10-23 28-34 59-34zm-8 174c40 0 45-34 45-75 0-40-5-75-45-74-42 0-51 32-51 76 0 43 10 73 51 73" id="K"/><g id="j"><use transform="matrix(0.05,0,0,0.05,0,0)" xlink:href="#F"/><use transform="matrix(0.05,0,0,0.05,9,0)" xlink:href="#s"/><use transform="matrix(0.05,0,0,0.05,19,0)" xlink:href="#K"/><use transform="matrix(0.05,0,0,0.05,29,0)" xlink:href="#F"/><use transform="matrix(0.05,0,0,0.05,38,0)" xlink:href="#u"/><use transform="matrix(0.05,0,0,0.05,43,0)" xlink:href="#E"/><use transform="matrix(0.05,0,0,0.05,46.95,0)" xlink:href="#u"/><use transform="matrix(0.05,0,0,0.05,51.95,0)" xlink:href="#s"/><use transform="matrix(0.05,0,0,0.05,61.95,0)" xlink:href="#u"/><use transform="matrix(0.05,0,0,0.05,66.95,0)" xlink:href="#E"/><use transform="matrix(0.05,0,0,0.05,70.9,0)" xlink:href="#r"/><use transform="matrix(0.05,0,0,0.05,80.9,0)" xlink:href="#t"/></g><g id="k"><use transform="matrix(0.05,0,0,0.05,0,0)" xlink:href="#q"/><use transform="matrix(0.05,0,0,0.05,12.950000000000001,0)" xlink:href="#y"/><use transform="matrix(0.05,0,0,0.05,22.950000000000003,0)" xlink:href="#A"/><use transform="matrix(0.05,0,0,0.05,26.900000000000002,0)" xlink:href="#A"/></g><path d="M140-251c81 0 123 46 123 126C263-46 219 4 140 4 59 4 17-45 17-125s42-126 123-126zm0 227c63 0 89-41 89-101s-29-99-89-99c-61 0-89 39-89 99S79-25 140-24" id="L"/><g id="l"><use transform="matrix(0.05,0,0,0.05,0,0)" xlink:href="#L"/><use transform="matrix(0.05,0,0,0.05,14,0)" xlink:href="#s"/><use transform="matrix(0.05,0,0,0.05,24,0)" xlink:href="#u"/><use transform="matrix(0.05,0,0,0.05,29,0)" xlink:href="#F"/><use transform="matrix(0.05,0,0,0.05,38,0)" xlink:href="#u"/><use transform="matrix(0.05,0,0,0.05,43,0)" xlink:href="#y"/><use transform="matrix(0.05,0,0,0.05,53,0)" xlink:href="#t"/><use transform="matrix(0.05,0,0,0.05,63,0)" xlink:href="#G"/><use transform="matrix(0.05,0,0,0.05,73,0)" xlink:href="#E"/><use transform="matrix(0.05,0,0,0.05,76.95,0)" xlink:href="#t"/><use transform="matrix(0.05,0,0,0.05,86.95,0)" xlink:href="#C"/></g><g id="m"><use transform="matrix(0.05,0,0,0.05,0,0)" xlink:href="#B"/><use transform="matrix(0.05,0,0,0.05,12,0)" xlink:href="#C"/><use transform="matrix(0.05,0,0,0.05,22,0)" xlink:href="#w"/><use transform="matrix(0.05,0,0,0.05,27.950000000000003,0)" xlink:href="#v"/><use transform="matrix(0.05,0,0,0.05,37.95,0)" xlink:href="#v"/><use transform="matrix(0.05,0,0,0.05,47.95,0)" xlink:href="#G"/></g><path d="M185-189c-5-48-123-54-124 2 14 75 158 14 163 119 3 78-121 87-175 55-17-10-28-26-33-46l33-7c5 56 141 63 141-1 0-78-155-14-162-118-5-82 145-84 179-34 5 7 8 16 11 25" id="M"/><g id="n"><use transform="matrix(0.05,0,0,0.05,0,0)" xlink:href="#M"/><use transform="matrix(0.05,0,0,0.05,12,0)" xlink:href="#v"/><use transform="matrix(0.05,0,0,0.05,22,0)" xlink:href="#u"/><use transform="matrix(0.05,0,0,0.05,27,0)" xlink:href="#u"/><use transform="matrix(0.05,0,0,0.05,32,0)" xlink:href="#A"/><use transform="matrix(0.05,0,0,0.05,35.95,0)" xlink:href="#v"/><use transform="matrix(0.05,0,0,0.05,45.95,0)" xlink:href="#G"/></g><g id="o"><use transform="matrix(0.05,0,0,0.05,0,0)" xlink:href="#D"/><use transform="matrix(0.05,0,0,0.05,12.950000000000001,0)" xlink:href="#E"/><use transform="matrix(0.05,0,0,0.05,16.900000000000002,0)" xlink:href="#F"/><use transform="matrix(0.05,0,0,0.05,25.900000000000002,0)" xlink:href="#x"/><use transform="matrix(0.05,0,0,0.05,35.900000000000006,0)" xlink:href="#s"/><use transform="matrix(0.05,0,0,0.05,45.900000000000006,0)" xlink:href="#u"/><use transform="matrix(0.05,0,0,0.05,50.900000000000006,0)" xlink:href="#v"/></g><g id="p"><use transform="matrix(0.05,0,0,0.05,0,0)" xlink:href="#M"/><use transform="matrix(0.05,0,0,0.05,12,0)" xlink:href="#v"/><use transform="matrix(0.05,0,0,0.05,22,0)" xlink:href="#u"/><use transform="matrix(0.05,0,0,0.05,27,0)" xlink:href="#u"/><use transform="matrix(0.05,0,0,0.05,32,0)" xlink:href="#A"/><use transform="matrix(0.05,0,0,0.05,35.95,0)" xlink:href="#v"/></g></defs></g></svg>