<svg xmlns="http://www.w3.org/2000/svg" xmlns:xlink="http://www.w3.org/1999/xlink" xmlns:lucid="lucid" width="1203.77" height="339.25"><g transform="translate(0 0)" lucid:page-tab-id="0_0"><path d="M21.9 26.9c0-2.77 2.23-5 5-5h530c2.75 0 5 2.23 5 5v286c0 2.75-2.25 5-5 5h-530c-2.77 0-5-2.25-5-5z" fill="#fff"/><path d="M21.9 26.9c0-2.77 2.23-5 5-5h530c2.75 0 5 2.23 5 5v286c0 2.75-2.25 5-5 5h-530c-2.77 0-5-2.25-5-5zM21.9 61.9h540M270.85 61.9v256M463.22 61.9v256" stroke="#666" stroke-width="2" fill="none"/><use xlink:href="#a" transform="matrix(1,0,0,1,31.886792452830207,21.886792452830207) translate(216.1 23.6)"/><use xlink:href="#b" transform="matrix(1,0,0,1,26.886792452830207,64.3867924528302) translate(93.075 17.1)"/><use xlink:href="#c" transform="matrix(1,0,0,1,275.8490566037736,64.3867924528302) translate(0 17.1)"/><use xlink:href="#d" transform="matrix(1,0,0,1,468.2201257861635,64.3867924528302) translate(0 17.1)"/><use xlink:href="#b" transform="matrix(1,0,0,1,26.886792452830207,96.3867924528302) translate(93.075 17.1)"/><use xlink:href="#e" transform="matrix(1,0,0,1,275.8490566037736,96.3867924528302) translate(0 17.1)"/><use xlink:href="#d" transform="matrix(1,0,0,1,468.2201257861635,96.3867924528302) translate(0 17.1)"/><use xlink:href="#b" transform="matrix(1,0,0,1,26.886792452830207,128.3867924528302) translate(93.075 17.1)"/><use xlink:href="#f" transform="matrix(1,0,0,1,275.8490566037736,128.3867924528302) translate(0 17.1)"/><use xlink:href="#g" transform="matrix(1,0,0,1,468.2201257861635,128.3867924528302) translate(0 17.1)"/><use xlink:href="#h" transform="matrix(1,0,0,1,26.886792452830207,160.3867924528302) translate(9.174999999999997 17.1)"/><use xlink:href="#i" transform="matrix(1,0,0,1,26.886792452830207,160.3867924528302) translate(85.125 17.1)"/><use xlink:href="#j" transform="matrix(1,0,0,1,26.886792452830207,160.3867924528302) translate(147.97500000000002 17.1)"/><use xlink:href="#k" transform="matrix(1,0,0,1,275.8490566037736,160.3867924528302) translate(0 17.1)"/><use xlink:href="#d" transform="matrix(1,0,0,1,468.2201257861635,160.3867924528302) translate(0 17.1)"/><use xlink:href="#h" transform="matrix(1,0,0,1,26.886792452830207,192.3867924528302) translate(9.174999999999997 17.1)"/><use xlink:href="#i" transform="matrix(1,0,0,1,26.886792452830207,192.3867924528302) translate(85.125 17.1)"/><use xlink:href="#j" transform="matrix(1,0,0,1,26.886792452830207,192.3867924528302) translate(147.97500000000002 17.1)"/><use xlink:href="#l" transform="matrix(1,0,0,1,275.8490566037736,192.3867924528302) translate(0 17.1)"/><use xlink:href="#g" transform="matrix(1,0,0,1,468.2201257861635,192.3867924528302) translate(0 17.1)"/><use xlink:href="#m" transform="matrix(1,0,0,1,26.886792452830207,224.3867924528302) translate(78.575 17.1)"/><use xlink:href="#n" transform="matrix(1,0,0,1,275.8490566037736,224.3867924528302) translate(0 17.1)"/><use xlink:href="#d" transform="matrix(1,0,0,1,468.2201257861635,224.3867924528302) translate(0 17.1)"/><use xlink:href="#m" transform="matrix(1,0,0,1,26.886792452830207,256.3867924528302) translate(78.575 17.1)"/><use xlink:href="#o" transform="matrix(1,0,0,1,275.8490566037736,256.3867924528302) translate(0 17.1)"/><use xlink:href="#p" transform="matrix(1,0,0,1,468.2201257861635,256.3867924528302) translate(0 17.1)"/><use xlink:href="#q" transform="matrix(1,0,0,1,275.8490566037736,288.3867924528302) translate(0 17.1)"/><use xlink:href="#r" transform="matrix(1,0,0,1,468.2201257861635,288.3867924528302) translate(0 17.1)"/><path d="M641.9 26.9c0-2.77 2.23-5 5-5h530c2.75 0 5 2.23 5 5v286c0 2.75-2.25 5-5 5h-530c-2.77 0-5-2.25-5-5z" fill="#fff"/><path d="M641.9 26.9c0-2.77 2.23-5 5-5h530c2.75 0 5 2.23 5 5v286c0 2.75-2.25 5-5 5h-530c-2.77 0-5-2.25-5-5zM641.9 61.9h540M890.85 61.9v256M1083.22 61.9v256" stroke="#666" stroke-width="2" fill="none"/><use xlink:href="#s" transform="matrix(1,0,0,1,651.8867924528302,21.886792452830193) translate(214.1 23.6)"/><use xlink:href="#b" transform="matrix(1,0,0,1,646.8867924528302,64.38679245283019) translate(93.075 17.1)"/><use xlink:href="#c" transform="matrix(1,0,0,1,895.8490566037735,64.38679245283019) translate(0 17.1)"/><use xlink:href="#d" transform="matrix(1,0,0,1,1088.2201257861634,64.38679245283019) translate(0 17.1)"/><use xlink:href="#b" transform="matrix(1,0,0,1,646.8867924528302,96.38679245283019) translate(93.075 17.1)"/><use xlink:href="#e" transform="matrix(1,0,0,1,895.8490566037735,96.38679245283019) translate(0 17.1)"/><use xlink:href="#d" transform="matrix(1,0,0,1,1088.2201257861634,96.38679245283019) translate(0 17.1)"/><use xlink:href="#b" transform="matrix(1,0,0,1,646.8867924528302,128.3867924528302) translate(93.075 17.1)"/><use xlink:href="#f" transform="matrix(1,0,0,1,895.8490566037735,128.3867924528302) translate(0 17.1)"/><use xlink:href="#g" transform="matrix(1,0,0,1,1088.2201257861634,128.3867924528302) translate(0 17.1)"/><use xlink:href="#h" transform="matrix(1,0,0,1,646.8867924528302,160.3867924528302) translate(9.174999999999997 17.1)"/><use xlink:href="#i" transform="matrix(1,0,0,1,646.8867924528302,160.3867924528302) translate(85.125 17.1)"/><use xlink:href="#j" transform="matrix(1,0,0,1,646.8867924528302,160.3867924528302) translate(147.97500000000002 17.1)"/><use xlink:href="#k" transform="matrix(1,0,0,1,895.8490566037735,160.3867924528302) translate(0 17.1)"/><use xlink:href="#d" transform="matrix(1,0,0,1,1088.2201257861634,160.3867924528302) translate(0 17.1)"/><use xlink:href="#h" transform="matrix(1,0,0,1,646.8867924528302,192.3867924528302) translate(9.174999999999997 17.1)"/><use xlink:href="#i" transform="matrix(1,0,0,1,646.8867924528302,192.3867924528302) translate(85.125 17.1)"/><use xlink:href="#j" transform="matrix(1,0,0,1,646.8867924528302,192.3867924528302) translate(147.97500000000002 17.1)"/><use xlink:href="#l" transform="matrix(1,0,0,1,895.8490566037735,192.3867924528302) translate(0 17.1)"/><use xlink:href="#g" transform="matrix(1,0,0,1,1088.2201257861634,192.3867924528302) translate(0 17.1)"/><use xlink:href="#m" transform="matrix(1,0,0,1,646.8867924528302,224.3867924528302) translate(78.575 17.1)"/><g><use xlink:href="#n" transform="matrix(1,0,0,1,895.8490566037735,224.3867924528302) translate(0 17.1)"/></g><g><use xlink:href="#d" transform="matrix(1,0,0,1,1088.2201257861634,224.3867924528302) translate(0 17.1)"/></g><g><use xlink:href="#m" transform="matrix(1,0,0,1,646.8867924528302,256.3867924528302) translate(78.575 17.1)"/></g><g><use xlink:href="#o" transform="matrix(1,0,0,1,895.8490566037735,256.3867924528302) translate(0 17.1)"/></g><g><use xlink:href="#p" transform="matrix(1,0,0,1,1088.2201257861634,256.3867924528302) translate(0 17.1)"/></g><g><use xlink:href="#t" transform="matrix(1,0,0,1,895.8490566037735,288.3867924528302) translate(0 17.1)"/></g><g><use xlink:href="#u" transform="matrix(1,0,0,1,1088.2201257861634,288.3867924528302) translate(0 17.1)"/></g><defs><path fill="#333" d="M233-177c-1 41-23 64-60 70L243 0h-38l-65-103H63V0H30v-248c88 3 205-21 203 71zM63-129c60-2 137 13 137-47 0-61-80-42-137-45v92" id="v"/><path fill="#333" d="M84 4C-5 8 30-112 23-190h32v120c0 31 7 50 39 49 72-2 45-101 50-169h31l1 190h-30c-1-10 1-25-2-33-11 22-28 36-60 37" id="w"/><path fill="#333" d="M24 0v-261h32V0H24" id="x"/><path fill="#333" d="M100-194c63 0 86 42 84 106H49c0 40 14 67 53 68 26 1 43-12 49-29l28 8c-11 28-37 45-77 45C44 4 14-33 15-96c1-61 26-98 85-98zm52 81c6-60-76-77-97-28-3 7-6 17-6 28h103" id="y"/><path fill="#333" d="M135-143c-3-34-86-38-87 0 15 53 115 12 119 90S17 21 10-45l28-5c4 36 97 45 98 0-10-56-113-15-118-90-4-57 82-63 122-42 12 7 21 19 24 35" id="z"/><path fill="#333" d="M59-47c-2 24 18 29 38 22v24C64 9 27 4 27-40v-127H5v-23h24l9-43h21v43h35v23H59v120" id="A"/><g id="a"><use transform="matrix(0.05,0,0,0.05,0,0)" xlink:href="#v"/><use transform="matrix(0.05,0,0,0.05,12.950000000000001,0)" xlink:href="#w"/><use transform="matrix(0.05,0,0,0.05,22.950000000000003,0)" xlink:href="#x"/><use transform="matrix(0.05,0,0,0.05,26.900000000000002,0)" xlink:href="#y"/><use transform="matrix(0.05,0,0,0.05,36.900000000000006,0)" xlink:href="#v"/><use transform="matrix(0.05,0,0,0.05,49.85000000000001,0)" xlink:href="#y"/><use transform="matrix(0.05,0,0,0.05,59.85,0)" xlink:href="#z"/><use transform="matrix(0.05,0,0,0.05,68.85000000000001,0)" xlink:href="#w"/><use transform="matrix(0.05,0,0,0.05,78.85000000000001,0)" xlink:href="#x"/><use transform="matrix(0.05,0,0,0.05,82.80000000000001,0)" xlink:href="#A"/></g><path d="M114-163C36-179 61-72 57 0H25l-1-190h30c1 12-1 29 2 39 6-27 23-49 58-41v29" id="B"/><path d="M84 4C-5 8 30-112 23-190h32v120c0 31 7 50 39 49 72-2 45-101 50-169h31l1 190h-30c-1-10 1-25-2-33-11 22-28 36-60 37" id="C"/><path d="M24 0v-261h32V0H24" id="D"/><path d="M100-194c63 0 86 42 84 106H49c0 40 14 67 53 68 26 1 43-12 49-29l28 8c-11 28-37 45-77 45C44 4 14-33 15-96c1-61 26-98 85-98zm52 81c6-60-76-77-97-28-3 7-6 17-6 28h103" id="E"/><path d="M63-220v92h138v28H63V0H30v-248h175v28H63" id="F"/><path d="M194 0L95-120 63-95V0H30v-248h33v124l119-124h40L117-140 236 0h-42" id="G"/><g id="b"><use transform="matrix(0.05,0,0,0.05,0,0)" xlink:href="#B"/><use transform="matrix(0.05,0,0,0.05,5.95,0)" xlink:href="#C"/><use transform="matrix(0.05,0,0,0.05,15.949999999999998,0)" xlink:href="#D"/><use transform="matrix(0.05,0,0,0.05,19.9,0)" xlink:href="#E"/><use transform="matrix(0.05,0,0,0.05,29.899999999999995,0)" xlink:href="#F"/><use transform="matrix(0.05,0,0,0.05,40.85,0)" xlink:href="#G"/></g><path d="M115-194c55 1 70 41 70 98S169 2 115 4C84 4 66-9 55-30l1 105H24l-1-265h31l2 30c10-21 28-34 59-34zm-8 174c40 0 45-34 45-75s-6-73-45-74c-42 0-51 32-51 76 0 43 10 73 51 73" id="H"/><path d="M141-36C126-15 110 5 73 4 37 3 15-17 15-53c-1-64 63-63 125-63 3-35-9-54-41-54-24 1-41 7-42 31l-33-3c5-37 33-52 76-52 45 0 72 20 72 64v82c-1 20 7 32 28 27v20c-31 9-61-2-59-35zM48-53c0 20 12 33 32 33 41-3 63-29 60-74-43 2-92-5-92 41" id="I"/><path d="M59-47c-2 24 18 29 38 22v24C64 9 27 4 27-40v-127H5v-23h24l9-43h21v43h35v23H59v120" id="J"/><path d="M179-190L93 31C79 59 56 82 12 73V49c39 6 53-20 64-50L1-190h34L92-34l54-156h33" id="K"/><path d="M205 0l-28-72H64L36 0H1l101-248h38L239 0h-34zm-38-99l-47-123c-12 45-31 82-46 123h93" id="L"/><g id="c"><use transform="matrix(0.05,0,0,0.05,0,0)" xlink:href="#H"/><use transform="matrix(0.05,0,0,0.05,10,0)" xlink:href="#I"/><use transform="matrix(0.05,0,0,0.05,20,0)" xlink:href="#B"/><use transform="matrix(0.05,0,0,0.05,25.950000000000003,0)" xlink:href="#J"/><use transform="matrix(0.05,0,0,0.05,30.950000000000003,0)" xlink:href="#K"/><use transform="matrix(0.05,0,0,0.05,39.95,0)" xlink:href="#L"/></g><path fill="#3aa6dd" d="M24-248c93 1 206-16 204 79-1 75-69 88-152 82V0H24v-248zm52 121c47 0 100 7 100-41 0-47-54-39-100-39v80" id="M"/><path fill="#3aa6dd" d="M133-34C117-15 103 5 69 4 32 3 11-16 11-54c-1-60 55-63 116-61 1-26-3-47-28-47-18 1-26 9-28 27l-52-2c7-38 36-58 82-57s74 22 75 68l1 82c-1 14 12 18 25 15v27c-30 8-71 5-69-32zm-48 3c29 0 43-24 42-57-32 0-66-3-65 30 0 17 8 27 23 27" id="N"/><path fill="#3aa6dd" d="M135-150c-39-12-60 13-60 57V0H25l-1-190h47c2 13-1 29 3 40 6-28 27-53 61-41v41" id="O"/><path fill="#3aa6dd" d="M115-3C79 11 28 4 28-45v-112H4v-33h27l15-45h31v45h36v33H77v99c-1 23 16 31 38 25v30" id="P"/><path fill="#3aa6dd" d="M123 10C108 53 80 86 19 72V37c35 8 53-11 59-39L3-190h52l48 148c12-52 28-100 44-148h51" id="Q"/><g id="d"><use transform="matrix(0.05,0,0,0.05,0,0)" xlink:href="#M"/><use transform="matrix(0.05,0,0,0.05,12,0)" xlink:href="#N"/><use transform="matrix(0.05,0,0,0.05,22,0)" xlink:href="#O"/><use transform="matrix(0.05,0,0,0.05,29,0)" xlink:href="#P"/><use transform="matrix(0.05,0,0,0.05,34.95,0)" xlink:href="#Q"/></g><path d="M160-131c35 5 61 23 61 61C221 17 115-2 30 0v-248c76 3 177-17 177 60 0 33-19 50-47 57zm-97-11c50-1 110 9 110-42 0-47-63-36-110-37v79zm0 115c55-2 124 14 124-45 0-56-70-42-124-44v89" id="R"/><g id="e"><use transform="matrix(0.05,0,0,0.05,0,0)" xlink:href="#H"/><use transform="matrix(0.05,0,0,0.05,10,0)" xlink:href="#I"/><use transform="matrix(0.05,0,0,0.05,20,0)" xlink:href="#B"/><use transform="matrix(0.05,0,0,0.05,25.950000000000003,0)" xlink:href="#J"/><use transform="matrix(0.05,0,0,0.05,30.950000000000003,0)" xlink:href="#K"/><use transform="matrix(0.05,0,0,0.05,39.95,0)" xlink:href="#R"/></g><path d="M33 0v-248h34V0H33" id="S"/><path d="M85-194c31 0 48 13 60 33l-1-100h32l1 261h-30c-2-10 0-23-3-31C134-8 116 4 85 4 32 4 16-35 15-94c0-66 23-100 70-100zm9 24c-40 0-46 34-46 75 0 40 6 74 45 74 42 0 51-32 51-76 0-42-9-74-50-73" id="T"/><g id="f"><use transform="matrix(0.05,0,0,0.05,0,0)" xlink:href="#B"/><use transform="matrix(0.05,0,0,0.05,5.95,0)" xlink:href="#C"/><use transform="matrix(0.05,0,0,0.05,15.949999999999998,0)" xlink:href="#D"/><use transform="matrix(0.05,0,0,0.05,19.9,0)" xlink:href="#E"/><use transform="matrix(0.05,0,0,0.05,29.899999999999995,0)" xlink:href="#S"/><use transform="matrix(0.05,0,0,0.05,34.9,0)" xlink:href="#T"/></g><path fill="#3aa6dd" d="M136-208V0H84v-208H4v-40h212v40h-80" id="U"/><path fill="#3aa6dd" d="M185-48c-13 30-37 53-82 52C43 2 14-33 14-96s30-98 90-98c62 0 83 45 84 108H66c0 31 8 55 39 56 18 0 30-7 34-22zm-45-69c5-46-57-63-70-21-2 6-4 13-4 21h74" id="V"/><path fill="#3aa6dd" d="M144 0l-44-69L55 0H2l70-98-66-92h53l41 62 40-62h54l-67 91 71 99h-54" id="W"/><g id="g"><use transform="matrix(0.05,0,0,0.05,0,0)" xlink:href="#U"/><use transform="matrix(0.05,0,0,0.05,9.600000000000001,0)" xlink:href="#V"/><use transform="matrix(0.05,0,0,0.05,19.6,0)" xlink:href="#W"/><use transform="matrix(0.05,0,0,0.05,29.6,0)" xlink:href="#P"/></g><path d="M135-143c-3-34-86-38-87 0 15 53 115 12 119 90S17 21 10-45l28-5c4 36 97 45 98 0-10-56-113-15-118-90-4-57 82-63 122-42 12 7 21 19 24 35" id="X"/><path d="M68-38c1 34 0 65-14 84H32c9-13 17-26 17-46H33v-38h35" id="Y"/><g id="h"><use transform="matrix(0.05,0,0,0.05,0,0)" xlink:href="#I"/><use transform="matrix(0.05,0,0,0.05,10,0)" xlink:href="#X"/><use transform="matrix(0.05,0,0,0.05,19,0)" xlink:href="#X"/><use transform="matrix(0.05,0,0,0.05,28,0)" xlink:href="#E"/><use transform="matrix(0.05,0,0,0.05,38,0)" xlink:href="#J"/><use transform="matrix(0.05,0,0,0.05,43,0)" xlink:href="#F"/><use transform="matrix(0.05,0,0,0.05,53.95,0)" xlink:href="#G"/><use transform="matrix(0.05,0,0,0.05,65.95,0)" xlink:href="#Y"/></g><g id="i"><use transform="matrix(0.05,0,0,0.05,0,0)" xlink:href="#B"/><use transform="matrix(0.05,0,0,0.05,5.95,0)" xlink:href="#C"/><use transform="matrix(0.05,0,0,0.05,15.949999999999998,0)" xlink:href="#D"/><use transform="matrix(0.05,0,0,0.05,19.9,0)" xlink:href="#E"/><use transform="matrix(0.05,0,0,0.05,29.899999999999995,0)" xlink:href="#F"/><use transform="matrix(0.05,0,0,0.05,40.85,0)" xlink:href="#G"/><use transform="matrix(0.05,0,0,0.05,52.85,0)" xlink:href="#Y"/></g><path d="M101-234c-31-9-42 10-38 44h38v23H63V0H32v-167H5v-23h27c-7-52 17-82 69-68v24" id="Z"/><path d="M30-248c118-7 216 8 213 122C240-48 200 0 122 0H30v-248zM63-27c89 8 146-16 146-99s-60-101-146-95v194" id="aa"/><g id="j"><use transform="matrix(0.05,0,0,0.05,0,0)" xlink:href="#B"/><use transform="matrix(0.05,0,0,0.05,5.95,0)" xlink:href="#E"/><use transform="matrix(0.05,0,0,0.05,15.949999999999998,0)" xlink:href="#Z"/><use transform="matrix(0.05,0,0,0.05,20.95,0)" xlink:href="#aa"/><use transform="matrix(0.05,0,0,0.05,33.9,0)" xlink:href="#I"/><use transform="matrix(0.05,0,0,0.05,43.9,0)" xlink:href="#J"/><use transform="matrix(0.05,0,0,0.05,48.9,0)" xlink:href="#I"/><use transform="matrix(0.05,0,0,0.05,58.900000000000006,0)" xlink:href="#F"/><use transform="matrix(0.05,0,0,0.05,69.85,0)" xlink:href="#G"/></g><path d="M30-248c87 1 191-15 191 75 0 78-77 80-158 76V0H30v-248zm33 125c57 0 124 11 124-50 0-59-68-47-124-48v98" id="ab"/><path d="M100-194c62-1 85 37 85 99 1 63-27 99-86 99S16-35 15-95c0-66 28-99 85-99zM99-20c44 1 53-31 53-75 0-43-8-75-51-75s-53 32-53 75 10 74 51 75" id="ac"/><path d="M108 0H70L1-190h34L89-25l56-165h34" id="ad"/><path d="M24-231v-30h32v30H24zM24 0v-190h32V0H24" id="ae"/><g id="k"><use transform="matrix(0.05,0,0,0.05,0,0)" xlink:href="#I"/><use transform="matrix(0.05,0,0,0.05,10,0)" xlink:href="#X"/><use transform="matrix(0.05,0,0,0.05,19,0)" xlink:href="#X"/><use transform="matrix(0.05,0,0,0.05,28,0)" xlink:href="#E"/><use transform="matrix(0.05,0,0,0.05,38,0)" xlink:href="#J"/><use transform="matrix(0.05,0,0,0.05,43,0)" xlink:href="#ab"/><use transform="matrix(0.05,0,0,0.05,55,0)" xlink:href="#B"/><use transform="matrix(0.05,0,0,0.05,60.95,0)" xlink:href="#ac"/><use transform="matrix(0.05,0,0,0.05,70.95,0)" xlink:href="#ad"/><use transform="matrix(0.05,0,0,0.05,79.95,0)" xlink:href="#ae"/><use transform="matrix(0.05,0,0,0.05,83.9,0)" xlink:href="#T"/><use transform="matrix(0.05,0,0,0.05,93.9,0)" xlink:href="#E"/><use transform="matrix(0.05,0,0,0.05,103.9,0)" xlink:href="#B"/></g><path d="M185-189c-5-48-123-54-124 2 14 75 158 14 163 119 3 78-121 87-175 55-17-10-28-26-33-46l33-7c5 56 141 63 141-1 0-78-155-14-162-118-5-82 145-84 179-34 5 7 8 16 11 25" id="af"/><path d="M210-169c-67 3-38 105-44 169h-31v-121c0-29-5-50-35-48C34-165 62-65 56 0H25l-1-190h30c1 10-1 24 2 32 10-44 99-50 107 0 11-21 27-35 58-36 85-2 47 119 55 194h-31v-121c0-29-5-49-35-48" id="ag"/><path d="M115-194c53 0 69 39 70 98 0 66-23 100-70 100C84 3 66-7 56-30L54 0H23l1-261h32v101c10-23 28-34 59-34zm-8 174c40 0 45-34 45-75 0-40-5-75-45-74-42 0-51 32-51 76 0 43 10 73 51 73" id="ah"/><g id="l"><use transform="matrix(0.05,0,0,0.05,0,0)" xlink:href="#I"/><use transform="matrix(0.05,0,0,0.05,10,0)" xlink:href="#X"/><use transform="matrix(0.05,0,0,0.05,19,0)" xlink:href="#X"/><use transform="matrix(0.05,0,0,0.05,28,0)" xlink:href="#E"/><use transform="matrix(0.05,0,0,0.05,38,0)" xlink:href="#J"/><use transform="matrix(0.05,0,0,0.05,43,0)" xlink:href="#af"/><use transform="matrix(0.05,0,0,0.05,55,0)" xlink:href="#K"/><use transform="matrix(0.05,0,0,0.05,64,0)" xlink:href="#ag"/><use transform="matrix(0.05,0,0,0.05,78.95,0)" xlink:href="#ah"/><use transform="matrix(0.05,0,0,0.05,88.95,0)" xlink:href="#ac"/><use transform="matrix(0.05,0,0,0.05,98.95,0)" xlink:href="#D"/></g><g id="m"><use transform="matrix(0.05,0,0,0.05,0,0)" xlink:href="#B"/><use transform="matrix(0.05,0,0,0.05,5.95,0)" xlink:href="#E"/><use transform="matrix(0.05,0,0,0.05,15.949999999999998,0)" xlink:href="#Z"/><use transform="matrix(0.05,0,0,0.05,20.95,0)" xlink:href="#aa"/><use transform="matrix(0.05,0,0,0.05,33.9,0)" xlink:href="#I"/><use transform="matrix(0.05,0,0,0.05,43.9,0)" xlink:href="#J"/><use transform="matrix(0.05,0,0,0.05,48.9,0)" xlink:href="#I"/><use transform="matrix(0.05,0,0,0.05,58.900000000000006,0)" xlink:href="#F"/><use transform="matrix(0.05,0,0,0.05,69.85,0)" xlink:href="#G"/></g><g id="n"><use transform="matrix(0.05,0,0,0.05,0,0)" xlink:href="#B"/><use transform="matrix(0.05,0,0,0.05,5.95,0)" xlink:href="#E"/><use transform="matrix(0.05,0,0,0.05,15.949999999999998,0)" xlink:href="#Z"/><use transform="matrix(0.05,0,0,0.05,20.95,0)" xlink:href="#aa"/><use transform="matrix(0.05,0,0,0.05,33.9,0)" xlink:href="#I"/><use transform="matrix(0.05,0,0,0.05,43.9,0)" xlink:href="#J"/><use transform="matrix(0.05,0,0,0.05,48.9,0)" xlink:href="#I"/><use transform="matrix(0.05,0,0,0.05,58.900000000000006,0)" xlink:href="#S"/><use transform="matrix(0.05,0,0,0.05,63.900000000000006,0)" xlink:href="#X"/><use transform="matrix(0.05,0,0,0.05,72.9,0)" xlink:href="#X"/><use transform="matrix(0.05,0,0,0.05,81.9,0)" xlink:href="#C"/><use transform="matrix(0.05,0,0,0.05,91.9,0)" xlink:href="#E"/><use transform="matrix(0.05,0,0,0.05,101.9,0)" xlink:href="#B"/></g><path d="M137 0h-34L2-248h35l83 218 83-218h36" id="ai"/><path d="M117-194c89-4 53 116 60 194h-32v-121c0-31-8-49-39-48C34-167 62-67 57 0H25l-1-190h30c1 10-1 24 2 32 11-22 29-35 61-36" id="aj"/><g id="o"><use transform="matrix(0.05,0,0,0.05,0,0)" xlink:href="#B"/><use transform="matrix(0.05,0,0,0.05,5.95,0)" xlink:href="#E"/><use transform="matrix(0.05,0,0,0.05,15.949999999999998,0)" xlink:href="#Z"/><use transform="matrix(0.05,0,0,0.05,20.95,0)" xlink:href="#aa"/><use transform="matrix(0.05,0,0,0.05,33.9,0)" xlink:href="#I"/><use transform="matrix(0.05,0,0,0.05,43.9,0)" xlink:href="#J"/><use transform="matrix(0.05,0,0,0.05,48.9,0)" xlink:href="#I"/><use transform="matrix(0.05,0,0,0.05,58.900000000000006,0)" xlink:href="#ai"/><use transform="matrix(0.05,0,0,0.05,69.9,0)" xlink:href="#E"/><use transform="matrix(0.05,0,0,0.05,79.9,0)" xlink:href="#B"/><use transform="matrix(0.05,0,0,0.05,85.85000000000001,0)" xlink:href="#X"/><use transform="matrix(0.05,0,0,0.05,94.85000000000001,0)" xlink:href="#ae"/><use transform="matrix(0.05,0,0,0.05,98.80000000000001,0)" xlink:href="#ac"/><use transform="matrix(0.05,0,0,0.05,108.80000000000001,0)" xlink:href="#aj"/></g><path fill="#3aa6dd" d="M24 0v-248h52V0H24" id="ak"/><path fill="#3aa6dd" d="M135-194c87-1 58 113 63 194h-50c-7-57 23-157-34-157-59 0-34 97-39 157H25l-1-190h47c2 12-1 28 3 38 12-26 28-41 61-42" id="al"/><path fill="#3aa6dd" d="M195-6C206 82 75 100 31 46c-4-6-6-13-8-21l49-6c3 16 16 24 34 25 40 0 42-37 40-79-11 22-30 35-61 35-53 0-70-43-70-97 0-56 18-96 73-97 30 0 46 14 59 34l2-30h47zm-90-29c32 0 41-27 41-63 0-35-9-62-40-62-32 0-39 29-40 63 0 36 9 62 39 62" id="am"/><g id="p"><use transform="matrix(0.05,0,0,0.05,0,0)" xlink:href="#ak"/><use transform="matrix(0.05,0,0,0.05,5,0)" xlink:href="#al"/><use transform="matrix(0.05,0,0,0.05,15.950000000000001,0)" xlink:href="#P"/><use transform="matrix(0.05,0,0,0.05,21.900000000000002,0)" xlink:href="#V"/><use transform="matrix(0.05,0,0,0.05,31.900000000000002,0)" xlink:href="#am"/><use transform="matrix(0.05,0,0,0.05,42.85,0)" xlink:href="#V"/><use transform="matrix(0.05,0,0,0.05,52.85,0)" xlink:href="#O"/></g><g id="q"><use transform="matrix(0.05,0,0,0.05,0,0)" xlink:href="#B"/><use transform="matrix(0.05,0,0,0.05,5.95,0)" xlink:href="#E"/><use transform="matrix(0.05,0,0,0.05,15.949999999999998,0)" xlink:href="#X"/><use transform="matrix(0.05,0,0,0.05,24.95,0)" xlink:href="#C"/><use transform="matrix(0.05,0,0,0.05,34.95,0)" xlink:href="#D"/><use transform="matrix(0.05,0,0,0.05,38.900000000000006,0)" xlink:href="#J"/></g><path fill="#3aa6dd" d="M182-130c37 4 62 22 62 59C244 23 116-4 24 0v-248c84 5 203-23 205 63 0 31-19 50-47 55zM76-148c40-3 101 13 101-30 0-44-60-28-101-31v61zm0 110c48-3 116 14 116-37 0-48-69-32-116-35v72" id="an"/><path fill="#3aa6dd" d="M110-194c64 0 96 36 96 99 0 64-35 99-97 99-61 0-95-36-95-99 0-62 34-99 96-99zm-1 164c35 0 45-28 45-65 0-40-10-65-43-65-34 0-45 26-45 65 0 36 10 65 43 65" id="ao"/><path fill="#3aa6dd" d="M25 0v-261h50V0H25" id="ap"/><g id="r"><use transform="matrix(0.05,0,0,0.05,0,0)" xlink:href="#an"/><use transform="matrix(0.05,0,0,0.05,12.950000000000001,0)" xlink:href="#ao"/><use transform="matrix(0.05,0,0,0.05,23.900000000000002,0)" xlink:href="#ao"/><use transform="matrix(0.05,0,0,0.05,34.85,0)" xlink:href="#ap"/></g><path fill="#333" d="M30-248c87 1 191-15 191 75 0 78-77 80-158 76V0H30v-248zm33 125c57 0 124 11 124-50 0-59-68-47-124-48v98" id="aq"/><path fill="#333" d="M114-163C36-179 61-72 57 0H25l-1-190h30c1 12-1 29 2 39 6-27 23-49 58-41v29" id="ar"/><path fill="#333" d="M24-231v-30h32v30H24zM24 0v-190h32V0H24" id="as"/><path fill="#333" d="M96-169c-40 0-48 33-48 73s9 75 48 75c24 0 41-14 43-38l32 2c-6 37-31 61-74 61-59 0-76-41-82-99-10-93 101-131 147-64 4 7 5 14 7 22l-32 3c-4-21-16-35-41-35" id="at"/><g id="s"><use transform="matrix(0.05,0,0,0.05,0,0)" xlink:href="#aq"/><use transform="matrix(0.05,0,0,0.05,12,0)" xlink:href="#ar"/><use transform="matrix(0.05,0,0,0.05,17.95,0)" xlink:href="#as"/><use transform="matrix(0.05,0,0,0.05,21.9,0)" xlink:href="#at"/><use transform="matrix(0.05,0,0,0.05,30.899999999999995,0)" xlink:href="#y"/><use transform="matrix(0.05,0,0,0.05,40.9,0)" xlink:href="#v"/><use transform="matrix(0.05,0,0,0.05,53.85,0)" xlink:href="#y"/><use transform="matrix(0.05,0,0,0.05,63.85,0)" xlink:href="#z"/><use transform="matrix(0.05,0,0,0.05,72.85,0)" xlink:href="#w"/><use transform="matrix(0.05,0,0,0.05,82.85,0)" xlink:href="#x"/><use transform="matrix(0.05,0,0,0.05,86.8,0)" xlink:href="#A"/></g><path d="M96-169c-40 0-48 33-48 73s9 75 48 75c24 0 41-14 43-38l32 2c-6 37-31 61-74 61-59 0-76-41-82-99-10-93 101-131 147-64 4 7 5 14 7 22l-32 3c-4-21-16-35-41-35" id="au"/><g id="t"><use transform="matrix(0.05,0,0,0.05,0,0)" xlink:href="#H"/><use transform="matrix(0.05,0,0,0.05,10,0)" xlink:href="#B"/><use transform="matrix(0.05,0,0,0.05,15.949999999999998,0)" xlink:href="#ae"/><use transform="matrix(0.05,0,0,0.05,19.9,0)" xlink:href="#au"/><use transform="matrix(0.05,0,0,0.05,28.899999999999995,0)" xlink:href="#E"/></g><path fill="#3aa6dd" d="M24-248c120-7 223 5 221 122C244-46 201 0 124 0H24v-248zM76-40c74 7 117-18 117-86 0-67-45-88-117-82v168" id="av"/><path fill="#3aa6dd" d="M190-63c-7 42-38 67-86 67-59 0-84-38-90-98-12-110 154-137 174-36l-49 2c-2-19-15-32-35-32-30 0-35 28-38 64-6 74 65 87 74 30" id="aw"/><path fill="#3aa6dd" d="M25-224v-37h50v37H25zM25 0v-190h50V0H25" id="ax"/><path fill="#3aa6dd" d="M220-157c-53 9-28 100-34 157h-49v-107c1-27-5-49-29-50C55-147 81-57 75 0H25l-1-190h47c2 12-1 28 3 38 10-53 101-56 108 0 13-22 24-43 59-42 82 1 51 116 57 194h-49v-107c-1-25-5-48-29-50" id="ay"/><g id="u"><use transform="matrix(0.05,0,0,0.05,0,0)" xlink:href="#av"/><use transform="matrix(0.05,0,0,0.05,12.950000000000001,0)" xlink:href="#V"/><use transform="matrix(0.05,0,0,0.05,22.950000000000003,0)" xlink:href="#aw"/><use transform="matrix(0.05,0,0,0.05,32.95,0)" xlink:href="#ax"/><use transform="matrix(0.05,0,0,0.05,37.95,0)" xlink:href="#ay"/><use transform="matrix(0.05,0,0,0.05,53.95,0)" xlink:href="#N"/><use transform="matrix(0.05,0,0,0.05,63.95,0)" xlink:href="#ap"/></g></defs></g></svg>