<svg xmlns="http://www.w3.org/2000/svg" xmlns:xlink="http://www.w3.org/1999/xlink" xmlns:lucid="lucid" width="342.22" height="461.73"><g transform="translate(0 0)" lucid:page-tab-id="0_0"><path d="M10.86 15.86c0-2.76 2.24-5 5-5h310c2.77 0 5 2.24 5 5v126c0 2.77-2.23 5-5 5h-310c-2.76 0-5-2.23-5-5z" fill="#fff"/><path d="M10.86 15.86c0-2.76 2.24-5 5-5h310c2.77 0 5 2.24 5 5v126c0 2.77-2.23 5-5 5h-310c-2.76 0-5-2.23-5-5zM10.86 50.86h320M70.86 50.86v96M200.86 50.86v96" stroke="#666" stroke-width="2" fill="none"/><use xlink:href="#a" transform="matrix(1,0,0,1,20.864197530864203,10.864197530864203) translate(117.5 23.6)"/><use xlink:href="#b" transform="matrix(1,0,0,1,15.864197530864203,53.3641975308642) translate(13 17.1)"/><use xlink:href="#c" transform="matrix(1,0,0,1,75.8641975308642,53.3641975308642) translate(0 17.1)"/><use xlink:href="#d" transform="matrix(1,0,0,1,205.8641975308642,53.3641975308642) translate(0 17.1)"/><use xlink:href="#b" transform="matrix(1,0,0,1,15.864197530864203,85.3641975308642) translate(13 17.1)"/><use xlink:href="#e" transform="matrix(1,0,0,1,75.8641975308642,85.3641975308642) translate(0 17.1)"/><use xlink:href="#d" transform="matrix(1,0,0,1,205.8641975308642,85.3641975308642) translate(0 17.1)"/><use xlink:href="#b" transform="matrix(1,0,0,1,15.864197530864203,117.3641975308642) translate(13 17.1)"/><use xlink:href="#f" transform="matrix(1,0,0,1,75.8641975308642,117.3641975308642) translate(0 17.1)"/><use xlink:href="#g" transform="matrix(1,0,0,1,205.8641975308642,117.3641975308642) translate(0 17.1)"/><path d="M10.86 255.86c0-2.76 2.24-5 5-5h310c2.77 0 5 2.24 5 5v190c0 2.77-2.23 5-5 5h-310c-2.76 0-5-2.23-5-5z" fill="#fff"/><path d="M10.86 255.86c0-2.76 2.24-5 5-5h310c2.77 0 5 2.24 5 5v190c0 2.77-2.23 5-5 5h-310c-2.76 0-5-2.23-5-5zM10.86 290.86h320M70.86 290.86v160M200.86 290.86v160" stroke="#666" stroke-width="2" fill="none"/><use xlink:href="#h" transform="matrix(1,0,0,1,20.864197530864203,250.8641975308642) translate(85.025 23.6)"/><use xlink:href="#i" transform="matrix(1,0,0,1,15.864197530864203,293.3641975308642) translate(-0.9750000000000014 17.1)"/><use xlink:href="#c" transform="matrix(1,0,0,1,75.8641975308642,293.3641975308642) translate(0 17.1)"/><use xlink:href="#d" transform="matrix(1,0,0,1,205.8641975308642,293.3641975308642) translate(0 17.1)"/><use xlink:href="#i" transform="matrix(1,0,0,1,15.864197530864203,325.3641975308642) translate(-0.9750000000000014 17.1)"/><use xlink:href="#e" transform="matrix(1,0,0,1,75.8641975308642,325.3641975308642) translate(0 17.1)"/><use xlink:href="#d" transform="matrix(1,0,0,1,205.8641975308642,325.3641975308642) translate(0 17.1)"/><use xlink:href="#i" transform="matrix(1,0,0,1,15.864197530864203,357.3641975308642) translate(-0.9750000000000014 17.1)"/><use xlink:href="#f" transform="matrix(1,0,0,1,75.8641975308642,357.3641975308642) translate(0 17.1)"/><use xlink:href="#g" transform="matrix(1,0,0,1,205.8641975308642,357.3641975308642) translate(0 17.1)"/><use xlink:href="#b" transform="matrix(1,0,0,1,15.864197530864203,389.3641975308642) translate(13 17.1)"/><use xlink:href="#j" transform="matrix(1,0,0,1,75.8641975308642,389.3641975308642) translate(0 17.1)"/><use xlink:href="#g" transform="matrix(1,0,0,1,205.8641975308642,389.3641975308642) translate(0 17.1)"/><use xlink:href="#k" transform="matrix(1,0,0,1,75.8641975308642,421.3641975308642) translate(0 17.1)"/><use xlink:href="#l" transform="matrix(1,0,0,1,205.8641975308642,421.3641975308642) translate(0 17.1)"/><path d="M170.86 147.86v102" stroke="#999" stroke-width="2" fill="none"/><path fill="#fff"/><path d="M180.86 168.86h-20v-2h20zM181.76 248.97l-1.8.9-9.1-18.22-9.1 18.2-1.8-.88 10.9-21.8z" fill="#999"/><defs><path fill="#333" d="M205 0l-28-72H64L36 0H1l101-248h38L239 0h-34zm-38-99l-47-123c-12 45-31 82-46 123h93" id="m"/><path fill="#333" d="M96-169c-40 0-48 33-48 73s9 75 48 75c24 0 41-14 43-38l32 2c-6 37-31 61-74 61-59 0-76-41-82-99-10-93 101-131 147-64 4 7 5 14 7 22l-32 3c-4-21-16-35-41-35" id="n"/><path fill="#333" d="M100-194c62-1 85 37 85 99 1 63-27 99-86 99S16-35 15-95c0-66 28-99 85-99zM99-20c44 1 53-31 53-75 0-43-8-75-51-75s-53 32-53 75 10 74 51 75" id="o"/><path fill="#333" d="M84 4C-5 8 30-112 23-190h32v120c0 31 7 50 39 49 72-2 45-101 50-169h31l1 190h-30c-1-10 1-25-2-33-11 22-28 36-60 37" id="p"/><path fill="#333" d="M117-194c89-4 53 116 60 194h-32v-121c0-31-8-49-39-48C34-167 62-67 57 0H25l-1-190h30c1 10-1 24 2 32 11-22 29-35 61-36" id="q"/><path fill="#333" d="M59-47c-2 24 18 29 38 22v24C64 9 27 4 27-40v-127H5v-23h24l9-43h21v43h35v23H59v120" id="r"/><g id="a"><use transform="matrix(0.05,0,0,0.05,0,0)" xlink:href="#m"/><use transform="matrix(0.05,0,0,0.05,12,0)" xlink:href="#n"/><use transform="matrix(0.05,0,0,0.05,21,0)" xlink:href="#n"/><use transform="matrix(0.05,0,0,0.05,30,0)" xlink:href="#o"/><use transform="matrix(0.05,0,0,0.05,40,0)" xlink:href="#p"/><use transform="matrix(0.05,0,0,0.05,50,0)" xlink:href="#q"/><use transform="matrix(0.05,0,0,0.05,60,0)" xlink:href="#r"/></g><path d="M30-248c87 1 191-15 191 75 0 78-77 80-158 76V0H30v-248zm33 125c57 0 124 11 124-50 0-59-68-47-124-48v98" id="s"/><path d="M194 0L95-120 63-95V0H30v-248h33v124l119-124h40L117-140 236 0h-42" id="t"/><g id="b"><use transform="matrix(0.05,0,0,0.05,0,0)" xlink:href="#s"/><use transform="matrix(0.05,0,0,0.05,12,0)" xlink:href="#t"/></g><path fill="#333" d="M115-194c55 1 70 41 70 98S169 2 115 4C84 4 66-9 55-30l1 105H24l-1-265h31l2 30c10-21 28-34 59-34zm-8 174c40 0 45-34 45-75s-6-73-45-74c-42 0-51 32-51 76 0 43 10 73 51 73" id="u"/><path fill="#333" d="M114-163C36-179 61-72 57 0H25l-1-190h30c1 12-1 29 2 39 6-27 23-49 58-41v29" id="v"/><path fill="#333" d="M108 0H70L1-190h34L89-25l56-165h34" id="w"/><path fill="#333" d="M24-231v-30h32v30H24zM24 0v-190h32V0H24" id="x"/><path fill="#333" d="M85-194c31 0 48 13 60 33l-1-100h32l1 261h-30c-2-10 0-23-3-31C134-8 116 4 85 4 32 4 16-35 15-94c0-66 23-100 70-100zm9 24c-40 0-46 34-46 75 0 40 6 74 45 74 42 0 51-32 51-76 0-42-9-74-50-73" id="y"/><path fill="#333" d="M100-194c63 0 86 42 84 106H49c0 40 14 67 53 68 26 1 43-12 49-29l28 8c-11 28-37 45-77 45C44 4 14-33 15-96c1-61 26-98 85-98zm52 81c6-60-76-77-97-28-3 7-6 17-6 28h103" id="z"/><g id="c"><use transform="matrix(0.05,0,0,0.05,0,0)" xlink:href="#u"/><use transform="matrix(0.05,0,0,0.05,10,0)" xlink:href="#v"/><use transform="matrix(0.05,0,0,0.05,15.949999999999998,0)" xlink:href="#o"/><use transform="matrix(0.05,0,0,0.05,25.950000000000003,0)" xlink:href="#w"/><use transform="matrix(0.05,0,0,0.05,34.95,0)" xlink:href="#x"/><use transform="matrix(0.05,0,0,0.05,38.900000000000006,0)" xlink:href="#y"/><use transform="matrix(0.05,0,0,0.05,48.900000000000006,0)" xlink:href="#z"/><use transform="matrix(0.05,0,0,0.05,58.900000000000006,0)" xlink:href="#v"/></g><path fill="#3aa6dd" d="M24-248c93 1 206-16 204 79-1 75-69 88-152 82V0H24v-248zm52 121c47 0 100 7 100-41 0-47-54-39-100-39v80" id="A"/><path fill="#3aa6dd" d="M133-34C117-15 103 5 69 4 32 3 11-16 11-54c-1-60 55-63 116-61 1-26-3-47-28-47-18 1-26 9-28 27l-52-2c7-38 36-58 82-57s74 22 75 68l1 82c-1 14 12 18 25 15v27c-30 8-71 5-69-32zm-48 3c29 0 43-24 42-57-32 0-66-3-65 30 0 17 8 27 23 27" id="B"/><path fill="#3aa6dd" d="M135-150c-39-12-60 13-60 57V0H25l-1-190h47c2 13-1 29 3 40 6-28 27-53 61-41v41" id="C"/><path fill="#3aa6dd" d="M115-3C79 11 28 4 28-45v-112H4v-33h27l15-45h31v45h36v33H77v99c-1 23 16 31 38 25v30" id="D"/><path fill="#3aa6dd" d="M123 10C108 53 80 86 19 72V37c35 8 53-11 59-39L3-190h52l48 148c12-52 28-100 44-148h51" id="E"/><g id="d"><use transform="matrix(0.05,0,0,0.05,0,0)" xlink:href="#A"/><use transform="matrix(0.05,0,0,0.05,12,0)" xlink:href="#B"/><use transform="matrix(0.05,0,0,0.05,22,0)" xlink:href="#C"/><use transform="matrix(0.05,0,0,0.05,29,0)" xlink:href="#D"/><use transform="matrix(0.05,0,0,0.05,34.95,0)" xlink:href="#E"/></g><path fill="#333" d="M206 0h-36l-40-164L89 0H53L-1-190h32L70-26l43-164h34l41 164 42-164h31" id="F"/><g id="e"><use transform="matrix(0.05,0,0,0.05,0,0)" xlink:href="#o"/><use transform="matrix(0.05,0,0,0.05,10,0)" xlink:href="#F"/><use transform="matrix(0.05,0,0,0.05,22.950000000000003,0)" xlink:href="#q"/><use transform="matrix(0.05,0,0,0.05,32.95,0)" xlink:href="#z"/><use transform="matrix(0.05,0,0,0.05,42.95,0)" xlink:href="#v"/></g><path fill="#333" d="M141-36C126-15 110 5 73 4 37 3 15-17 15-53c-1-64 63-63 125-63 3-35-9-54-41-54-24 1-41 7-42 31l-33-3c5-37 33-52 76-52 45 0 72 20 72 64v82c-1 20 7 32 28 27v20c-31 9-61-2-59-35zM48-53c0 20 12 33 32 33 41-3 63-29 60-74-43 2-92-5-92 41" id="G"/><path fill="#333" d="M33 0v-248h34V0H33" id="H"/><g id="f"><use transform="matrix(0.05,0,0,0.05,0,0)" xlink:href="#G"/><use transform="matrix(0.05,0,0,0.05,10,0)" xlink:href="#n"/><use transform="matrix(0.05,0,0,0.05,19,0)" xlink:href="#n"/><use transform="matrix(0.05,0,0,0.05,28,0)" xlink:href="#o"/><use transform="matrix(0.05,0,0,0.05,38,0)" xlink:href="#p"/><use transform="matrix(0.05,0,0,0.05,48,0)" xlink:href="#q"/><use transform="matrix(0.05,0,0,0.05,58,0)" xlink:href="#r"/><use transform="matrix(0.05,0,0,0.05,63,0)" xlink:href="#H"/><use transform="matrix(0.05,0,0,0.05,68,0)" xlink:href="#y"/></g><path fill="#3aa6dd" d="M136-208V0H84v-208H4v-40h212v40h-80" id="I"/><path fill="#3aa6dd" d="M185-48c-13 30-37 53-82 52C43 2 14-33 14-96s30-98 90-98c62 0 83 45 84 108H66c0 31 8 55 39 56 18 0 30-7 34-22zm-45-69c5-46-57-63-70-21-2 6-4 13-4 21h74" id="J"/><path fill="#3aa6dd" d="M144 0l-44-69L55 0H2l70-98-66-92h53l41 62 40-62h54l-67 91 71 99h-54" id="K"/><g id="g"><use transform="matrix(0.05,0,0,0.05,0,0)" xlink:href="#I"/><use transform="matrix(0.05,0,0,0.05,9.600000000000001,0)" xlink:href="#J"/><use transform="matrix(0.05,0,0,0.05,19.6,0)" xlink:href="#K"/><use transform="matrix(0.05,0,0,0.05,29.6,0)" xlink:href="#D"/></g><path fill="#333" d="M160-131c35 5 61 23 61 61C221 17 115-2 30 0v-248c76 3 177-17 177 60 0 33-19 50-47 57zm-97-11c50-1 110 9 110-42 0-47-63-36-110-37v79zm0 115c55-2 124 14 124-45 0-56-70-42-124-44v89" id="L"/><path fill="#333" d="M24 0v-261h32V0H24" id="M"/><g id="h"><use transform="matrix(0.05,0,0,0.05,0,0)" xlink:href="#m"/><use transform="matrix(0.05,0,0,0.05,12,0)" xlink:href="#n"/><use transform="matrix(0.05,0,0,0.05,21,0)" xlink:href="#n"/><use transform="matrix(0.05,0,0,0.05,30,0)" xlink:href="#o"/><use transform="matrix(0.05,0,0,0.05,40,0)" xlink:href="#p"/><use transform="matrix(0.05,0,0,0.05,50,0)" xlink:href="#q"/><use transform="matrix(0.05,0,0,0.05,60,0)" xlink:href="#r"/><use transform="matrix(0.05,0,0,0.05,65,0)" xlink:href="#L"/><use transform="matrix(0.05,0,0,0.05,77,0)" xlink:href="#G"/><use transform="matrix(0.05,0,0,0.05,87,0)" xlink:href="#M"/><use transform="matrix(0.05,0,0,0.05,90.95,0)" xlink:href="#G"/><use transform="matrix(0.05,0,0,0.05,100.95,0)" xlink:href="#q"/><use transform="matrix(0.05,0,0,0.05,110.95,0)" xlink:href="#n"/><use transform="matrix(0.05,0,0,0.05,119.95,0)" xlink:href="#z"/></g><path d="M68-38c1 34 0 65-14 84H32c9-13 17-26 17-46H33v-38h35" id="N"/><path d="M63-220v92h138v28H63V0H30v-248h175v28H63" id="O"/><g id="i"><use transform="matrix(0.05,0,0,0.05,0,0)" xlink:href="#s"/><use transform="matrix(0.05,0,0,0.05,12,0)" xlink:href="#t"/><use transform="matrix(0.05,0,0,0.05,24,0)" xlink:href="#N"/><use transform="matrix(0.05,0,0,0.05,29,0)" xlink:href="#O"/><use transform="matrix(0.05,0,0,0.05,39.95,0)" xlink:href="#t"/></g><path fill="#333" d="M135-143c-3-34-86-38-87 0 15 53 115 12 119 90S17 21 10-45l28-5c4 36 97 45 98 0-10-56-113-15-118-90-4-57 82-63 122-42 12 7 21 19 24 35" id="P"/><path fill="#333" d="M179-190L93 31C79 59 56 82 12 73V49c39 6 53-20 64-50L1-190h34L92-34l54-156h33" id="Q"/><path fill="#333" d="M210-169c-67 3-38 105-44 169h-31v-121c0-29-5-50-35-48C34-165 62-65 56 0H25l-1-190h30c1 10-1 24 2 32 10-44 99-50 107 0 11-21 27-35 58-36 85-2 47 119 55 194h-31v-121c0-29-5-49-35-48" id="R"/><path fill="#333" d="M115-194c53 0 69 39 70 98 0 66-23 100-70 100C84 3 66-7 56-30L54 0H23l1-261h32v101c10-23 28-34 59-34zm-8 174c40 0 45-34 45-75 0-40-5-75-45-74-42 0-51 32-51 76 0 43 10 73 51 73" id="S"/><g id="j"><use transform="matrix(0.05,0,0,0.05,0,0)" xlink:href="#P"/><use transform="matrix(0.05,0,0,0.05,9,0)" xlink:href="#Q"/><use transform="matrix(0.05,0,0,0.05,18,0)" xlink:href="#R"/><use transform="matrix(0.05,0,0,0.05,32.95,0)" xlink:href="#S"/><use transform="matrix(0.05,0,0,0.05,42.95,0)" xlink:href="#o"/><use transform="matrix(0.05,0,0,0.05,52.95,0)" xlink:href="#M"/></g><g id="k"><use transform="matrix(0.05,0,0,0.05,0,0)" xlink:href="#S"/><use transform="matrix(0.05,0,0,0.05,10,0)" xlink:href="#G"/><use transform="matrix(0.05,0,0,0.05,20,0)" xlink:href="#M"/><use transform="matrix(0.05,0,0,0.05,23.95,0)" xlink:href="#G"/><use transform="matrix(0.05,0,0,0.05,33.95,0)" xlink:href="#q"/><use transform="matrix(0.05,0,0,0.05,43.95,0)" xlink:href="#n"/><use transform="matrix(0.05,0,0,0.05,52.95,0)" xlink:href="#z"/></g><path fill="#3aa6dd" d="M24 0v-248h52V0H24" id="T"/><path fill="#3aa6dd" d="M135-194c87-1 58 113 63 194h-50c-7-57 23-157-34-157-59 0-34 97-39 157H25l-1-190h47c2 12-1 28 3 38 12-26 28-41 61-42" id="U"/><path fill="#3aa6dd" d="M195-6C206 82 75 100 31 46c-4-6-6-13-8-21l49-6c3 16 16 24 34 25 40 0 42-37 40-79-11 22-30 35-61 35-53 0-70-43-70-97 0-56 18-96 73-97 30 0 46 14 59 34l2-30h47zm-90-29c32 0 41-27 41-63 0-35-9-62-40-62-32 0-39 29-40 63 0 36 9 62 39 62" id="V"/><g id="l"><use transform="matrix(0.05,0,0,0.05,0,0)" xlink:href="#T"/><use transform="matrix(0.05,0,0,0.05,5,0)" xlink:href="#U"/><use transform="matrix(0.05,0,0,0.05,15.950000000000001,0)" xlink:href="#D"/><use transform="matrix(0.05,0,0,0.05,21.900000000000002,0)" xlink:href="#J"/><use transform="matrix(0.05,0,0,0.05,31.900000000000002,0)" xlink:href="#V"/><use transform="matrix(0.05,0,0,0.05,42.85,0)" xlink:href="#J"/><use transform="matrix(0.05,0,0,0.05,52.85,0)" xlink:href="#C"/></g></defs></g></svg>