<svg xmlns="http://www.w3.org/2000/svg" xmlns:xlink="http://www.w3.org/1999/xlink" xmlns:lucid="lucid" width="1210.37" height="1196.3"><g transform="translate(0 0)" lucid:page-tab-id="0_0"><path d="M228.15 68.15v-40h760v40" fill="#fff"/><path d="M228.15 68.15v-40h760v40zM228.15 68.15v1100h760v-1100M228.15 68.15h760" stroke="#000" stroke-width="2" fill="none"/><use xlink:href="#a" transform="matrix(1,0,0,1,228.14814814814815,28.148148148148152) translate(346.575 23.6)"/><path d="M288.15 468.15v-40h240v40" fill="#fff"/><path d="M288.15 468.15v-40h240v40zM288.15 468.15v220h240v-220M288.15 468.15h240" stroke="#000" stroke-width="2" fill="none"/><use xlink:href="#b" transform="matrix(1,0,0,1,288.14814814814815,428.14814814814815) translate(46.25 23.6)"/><use xlink:href="#c" transform="matrix(1,0,0,1,288.14814814814815,428.14814814814815) translate(130.75 23.6)"/><path d="M688.15 468.15v-40h240v40" fill="#fff"/><path d="M688.15 468.15v-40h240v40zM688.15 468.15v200h240v-200M688.15 468.15h240" stroke="#000" stroke-width="2" fill="none"/><use xlink:href="#b" transform="matrix(1,0,0,1,688.1481481481482,428.14814814814815) translate(46.25 23.6)"/><use xlink:href="#c" transform="matrix(1,0,0,1,688.1481481481482,428.14814814814815) translate(130.75 23.6)"/><path d="M408.15 528.15c0 22.1-17.9 40-40 40s-40-17.9-40-40 17.9-40 40-40 40 17.9 40 40z" stroke="#000" stroke-width="2" fill="#fff"/><use xlink:href="#d" transform="matrix(1,0,0,1,333.1481481481481,493.14814814814815) translate(12.5 38.6)"/><path d="M448.15 628.15c0 22.1-17.9 40-40 40s-40-17.9-40-40 17.9-40 40-40 40 17.9 40 40z" stroke="#000" stroke-width="2" fill="#fff"/><use xlink:href="#d" transform="matrix(1,0,0,1,373.14814814814815,593.1481481481482) translate(12.5 38.6)"/><path d="M508.15 548.15c0 22.1-17.9 40-40 40s-40-17.9-40-40 17.9-40 40-40 40 17.9 40 40z" stroke="#000" stroke-width="2" fill="#fff"/><use xlink:href="#d" transform="matrix(1,0,0,1,433.14814814814815,513.1481481481482) translate(12.5 38.6)"/><path d="M288.15 908.15v-40h240v40" fill="#fff"/><path d="M288.15 908.15v-40h240v40zM288.15 908.15v220h240v-220M288.15 908.15h240" stroke="#000" stroke-width="2" fill="none"/><use xlink:href="#e" transform="matrix(1,0,0,1,288.14814814814815,868.1481481481482) translate(46.07499999999999 23.6)"/><use xlink:href="#c" transform="matrix(1,0,0,1,288.14814814814815,868.1481481481482) translate(130.925 23.6)"/><path d="M688.15 908.15v-40h240v40" fill="#fff"/><path d="M688.15 908.15v-40h240v40zM688.15 908.15v220h240v-220M688.15 908.15h240" stroke="#000" stroke-width="2" fill="none"/><use xlink:href="#e" transform="matrix(1,0,0,1,688.1481481481482,868.1481481481482) translate(46.07499999999999 23.6)"/><use xlink:href="#c" transform="matrix(1,0,0,1,688.1481481481482,868.1481481481482) translate(130.925 23.6)"/><path d="M388.15 988.15c0 22.1-17.9 40-40 40s-40-17.9-40-40 17.9-40 40-40 40 17.9 40 40z" stroke="#000" stroke-width="2" fill="#fff"/><use xlink:href="#d" transform="matrix(1,0,0,1,313.14814814814815,953.1481481481482) translate(12.5 38.6)"/><path d="M514.82 689.15l1.43 3.62 1.6 4.56 1.73 5.77 1.87 7.3 1.94 9.13 1.87 11.15 1.66 13.1 1.23 14.55.64 15.2v14.9l-.56 13.9-1.03 12.45-1.36 10.92-1.58 9.42-1.7 8.1-1.73 6.73M514.82 689.15l-.97-2.84" stroke="#000" stroke-width="2" fill="none"/><path d="M515.88 864.1l.33-15 8.76 3.06z" stroke="#000" stroke-width="2"/><use xlink:href="#f" transform="matrix(1,0,0,1,536.7449978080706,768.6539382193448) translate(0 14.4)"/><use xlink:href="#g" transform="matrix(1,0,0,1,536.7449978080706,768.6539382193448) translate(20 14.4)"/><use xlink:href="#h" transform="matrix(1,0,0,1,536.7449978080706,768.6539382193448) translate(69.95 14.4)"/><use xlink:href="#i" transform="matrix(1,0,0,1,536.7449978080706,768.6539382193448) translate(0 36)"/><use xlink:href="#c" transform="matrix(1,0,0,1,536.7449978080706,768.6539382193448) translate(25 36)"/><path d="M706.8 669.15l-1.44 2.76-1.5 3.16-1.53 3.62-1.56 4.18-1.6 4.85-1.6 5.68-1.57 6.65-1.5 7.83-1.4 9.23-1.17 10.86-.83 12.67-.35 14.53.3 16.2 1.04 17.3 1.77 17.5 2.4 16.64 2.8 14.95 2.73 11.87M706.8 669.15l1.22-2.75" stroke="#000" stroke-width="2" fill="none"/><path d="M705.93 864.04l-8.38-12.45 8.9-2.55z" stroke="#000" stroke-width="2"/><path d="M349.1 564.43l-8.5 24.6-7.57 25.4-6.63 26.17-5.62 26.88-4.57 27.5-3.44 28.04-2.3 28.4-1.1 28.54.1 28.48 1.25 28.12 2.4 27.47 3.43 26.5 4.35 25.26 3.97 18.38" stroke="#000" stroke-width="2" fill="none"/><path d="M349 563.27l1.33.63-.3.85-1.88-.65.38-1.12zM328.34 948.76l-7.83-12.8 9.02-2.15z"/><path d="M329.1 951.9l-10.16-16.58 11.7-2.8zm-7.02-15.28l5.5 9 .84-10.52z"/><use xlink:href="#j" transform="matrix(1,0,0,1,317.3786141310476,763.8895338603978) translate(0 14.4)"/><use xlink:href="#k" transform="matrix(1,0,0,1,317.3786141310476,763.8895338603978) translate(30 14.4)"/><use xlink:href="#l" transform="matrix(1,0,0,1,317.3786141310476,763.8895338603978) translate(78 14.4)"/><use xlink:href="#m" transform="matrix(1,0,0,1,317.3786141310476,763.8895338603978) translate(0 36)"/><use xlink:href="#n" transform="matrix(1,0,0,1,317.3786141310476,763.8895338603978) translate(30 36)"/><path d="M908.15 988.15c0 22.1-17.9 40-40 40s-40-17.9-40-40 17.9-40 40-40 40 17.9 40 40z" stroke="#000" stroke-width="2" fill="#fff"/><use xlink:href="#d" transform="matrix(1,0,0,1,833.1481481481482,953.1481481481482) translate(12.5 38.6)"/><path d="M389.15 988.15l112.23 9.83 108.6 5.24 72.7.5 47.6-1.7 32.16-2.48 22.62-2.7 16.46-2.7 7.93-1.63" stroke="#000" stroke-width="2" fill="none"/><path d="M389.24 987.15l-.18 2-.97-.1.05-.9-.04-1.1zM824 988.92l-12.74 7.92-2.22-9z"/><path d="M827.15 988.15l-16.53 10.26-2.88-11.66zm-15.24 7.1l8.96-5.55-10.5-.77z"/><use xlink:href="#o" transform="matrix(1,0,0,1,548.3571331608206,955.3063939500835) translate(0 14.4)"/><use xlink:href="#p" transform="matrix(1,0,0,1,548.3571331608206,955.3063939500835) translate(20 14.4)"/><use xlink:href="#q" transform="matrix(1,0,0,1,548.3571331608206,955.3063939500835) translate(0 36)"/><use xlink:href="#n" transform="matrix(1,0,0,1,548.3571331608206,955.3063939500835) translate(20 36)"/><path d="M288.15 148.15v-40h640v40" fill="#fff"/><path d="M288.15 148.15v-40h640v40z" stroke="#000" stroke-width="2" fill="none"/><path d="M288.15 148.15v160h640v-160M288.15 148.15h640" stroke="#000" stroke-width="2" fill="none"/><use xlink:href="#b" transform="matrix(1,0,0,1,288.14814814814815,108.14814814814815) translate(253.775 23.6)"/><use xlink:href="#r" transform="matrix(1,0,0,1,288.14814814814815,108.14814814814815) translate(338.275 23.6)"/><path d="M408.15 248.15c0 22.1-17.9 40-40 40s-40-17.9-40-40 17.9-40 40-40 40 17.9 40 40z" stroke="#000" stroke-width="2" fill="#fff"/><use xlink:href="#d" transform="matrix(1,0,0,1,333.1481481481481,213.14814814814815) translate(12.5 38.6)"/><path d="M548.15 208.15c0 22.1-17.9 40-40 40s-40-17.9-40-40 17.9-40 40-40 40 17.9 40 40z" stroke="#000" stroke-width="2" fill="#fff"/><use xlink:href="#d" transform="matrix(1,0,0,1,473.14814814814815,173.14814814814815) translate(12.5 38.6)"/><path d="M908.15 208.15c0 22.1-17.9 40-40 40s-40-17.9-40-40 17.9-40 40-40 40 17.9 40 40z" stroke="#000" stroke-width="2" fill="#fff"/><use xlink:href="#d" transform="matrix(1,0,0,1,833.1481481481482,173.14814814814815) translate(12.5 38.6)"/><path d="M339.2 499.2l-2.7-3.92-2.67-4.25-2.62-4.6-2.56-5-2.5-5.42-2.44-5.88-2.33-6.4-2.2-6.92-2.06-7.5-1.84-8.12-1.6-8.73-1.33-9.34-.98-9.92-.6-10.44-.15-10.86.3-11.16.77-11.28 1.25-11.23 1.7-10.98 2.07-10.6 2.4-10.03 2.7-9.4 2.88-8.7 3-7.98 3.1-7.26" stroke="#000" stroke-width="2" fill="none"/><path d="M340.47 499.38l-1.48 1.4-.66-1.04 1.7-1.06zM335.24 294.75l-8.23-4.27 10.7-10.52z"/><path d="M336 296.27l-10.67-5.54 13.86-13.65zm-7.3-6.04l5.78 3 1.73-10.4z"/><use xlink:href="#s" transform="matrix(1,0,0,1,319.4359467195991,351.58829956035703) translate(0 14.4)"/><use xlink:href="#t" transform="matrix(1,0,0,1,319.4359467195991,351.58829956035703) translate(30 14.4)"/><use xlink:href="#u" transform="matrix(1,0,0,1,319.4359467195991,351.58829956035703) translate(96.80000000000001 14.4)"/><use xlink:href="#v" transform="matrix(1,0,0,1,319.4359467195991,351.58829956035703) translate(0 36)"/><use xlink:href="#w" transform="matrix(1,0,0,1,319.4359467195991,351.58829956035703) translate(35 36)"/><path d="M788.15 528.15c0 22.1-17.9 40-40 40s-40-17.9-40-40 17.9-40 40-40 40 17.9 40 40z" stroke="#000" stroke-width="2" fill="#fff"/><use xlink:href="#d" transform="matrix(1,0,0,1,713.1481481481482,493.14814814814815) translate(12.5 38.6)"/><path d="M888.15 588.15c0 22.1-17.9 40-40 40s-40-17.9-40-40 17.9-40 40-40 40 17.9 40 40z" stroke="#000" stroke-width="2" fill="#fff"/><use xlink:href="#d" transform="matrix(1,0,0,1,813.1481481481482,553.1481481481482) translate(12.5 38.6)"/><path d="M488.15 1068.15c0 22.1-17.9 40-40 40s-40-17.9-40-40 17.9-40 40-40 40 17.9 40 40z" stroke="#000" stroke-width="2" fill="#fff"/><use xlink:href="#d" transform="matrix(1,0,0,1,413.14814814814815,1033.1481481481483) translate(12.5 38.6)"/><path d="M896.94 959.04l1.9-7.87 2.3-11.72 2.7-17.48 2.8-25.1 2.3-32.8L910 826.6l-.5-37.4-1.84-33.78-2.8-28.84-3.32-23.95-3.6-19.7-3.65-16.2-3.63-13.4-3.53-11.16-2.97-8.2" stroke="#000" stroke-width="2" fill="none"/><path d="M897.92 959.26l-.4 1.84-1.67-1.76.12-.52zM888.14 631.47l-8.5 3.67-1.4-14.93z"/><path d="M889.8 631.84l-11.04 4.77-1.82-19.36zm-9.3 1.84l5.98-2.58-6.97-7.92z"/><use xlink:href="#x" transform="matrix(1,0,0,1,777.4683129259657,766.1119541454127) translate(0 14.4)"/><use xlink:href="#y" transform="matrix(1,0,0,1,777.4683129259657,766.1119541454127) translate(30 14.4)"/><use xlink:href="#z" transform="matrix(1,0,0,1,777.4683129259657,766.1119541454127) translate(80.95 14.4)"/><use xlink:href="#m" transform="matrix(1,0,0,1,777.4683129259657,766.1119541454127) translate(0 36)"/><use xlink:href="#A" transform="matrix(1,0,0,1,777.4683129259657,766.1119541454127) translate(30 36)"/><path d="M893.56 240.26L896.9 252l3.55 14.68 3.52 17.88 3.22 20.93 2.6 23.28 1.7 24.6.68 24.66-.34 23.77-1.24 22.2-2 20.3-2.57 18.3-3 16.38-3.32 14.6-3.53 13.03-3.68 11.62-3.8 10.37-3.82 9.28-1.5 3.23" stroke="#000" stroke-width="2" fill="none"/><path d="M894.53 240l-1.93.53-.2-.67 1.37-1 .35-.33zM887.2 543.85l-10.6 10.63 2.33-14.82z"/><path d="M888.87 543.58l-13.72 13.8 3-19.23zm-10.8 8l7.45-7.46-5.82-2.95z"/><g><use xlink:href="#B" transform="matrix(1,0,0,1,758.07718410662,349.2588471724712) translate(0 14.4)"/><use xlink:href="#C" transform="matrix(1,0,0,1,758.07718410662,349.2588471724712) translate(30 14.4)"/><use xlink:href="#l" transform="matrix(1,0,0,1,758.07718410662,349.2588471724712) translate(100.9 14.4)"/><use xlink:href="#v" transform="matrix(1,0,0,1,758.07718410662,349.2588471724712) translate(0 36)"/><use xlink:href="#w" transform="matrix(1,0,0,1,758.07718410662,349.2588471724712) translate(35 36)"/></g><path d="M60 708.15h1120" fill="none"/><path d="M60 708.15h3m4 0h6m4 0h6m4 0h6m4 0h6m4 0h6m4 0h6m4 0h6m4 0h6m4 0h6m4 0h6m4 0h6m4 0h6m4 0h6m4 0h6m4 0h6m4 0h6m4 0h6m4 0h6m4 0h6m4 0h6m4 0h6m4 0h6m4 0h6m4 0h6m4 0h6m4 0h6m4 0h6m4 0h6m4 0h6m4 0h6m4 0h6m4 0h6m4 0h6m4 0h6m4 0h6m4 0h6m4 0h6m4 0h6m4 0h6m4 0h6m4 0h6m4 0h6m4 0h6m4 0h6m4 0h6m4 0h6m4 0h6m4 0h6m4 0h6m4 0h6m4 0h6m4 0h6m4 0h6m4 0h6m4 0h6m4 0h6m4 0h6m4 0h6m4 0h6m4 0h6m4 0h6m4 0h6m4 0h6m4 0h6m4 0h6m4 0h6m4 0h6m4 0h6m4 0h6m4 0h6m4 0h6m4 0h6m4 0h6m4 0h6m4 0h6m4 0h6m4 0h6m4 0h6m4 0h6m4 0h6m4 0h6m4 0h6m4 0h6m4 0h6m4 0h6m4 0h6m4 0h6m4 0h6m4 0h6m4 0h6m4 0h6m4 0h6m4 0h6m4 0h6m4 0h6m4 0h6m4 0h6m4 0h6m4 0h6m4 0h6m4 0h6m4 0h6m4 0h6m4 0h6m4 0h6m4 0h6m4 0h6m4 0h6m4 0h6m4 0h6m4 0h6m4 0h3" stroke="#000" stroke-width="2" fill="none"/><g><use xlink:href="#D" transform="matrix(1,0,0,1,1007.1763084346137,682.5481481481481) translate(0 14.4)"/></g><g><use xlink:href="#E" transform="matrix(1,0,0,1,1007.0013084346135,712.1481481481482) translate(0 14.4)"/></g><path d="M156.15 528.15c17.67 0 32 17.9 32 40s-14.33 40-32 40h-96c-17.67 0-32-17.9-32-40s14.33-40 32-40z" stroke="#000" stroke-width="2" fill="#fff"/><g><use xlink:href="#F" transform="matrix(1,0,0,1,33.14814814814815,533.1481481481482) translate(55.55 38.6)"/></g><path d="M187.27 554.8h99.88" stroke="#000" stroke-width="2" fill="none"/><path d="M187.27 555.8h-.77l-.52-2h1.3z"/><path d="M287.15 554.8h3M180.2 596.18h77.95v422.63h31" stroke="#000" stroke-width="2" fill="none"/><path d="M180.2 597.18h-2.13l1.64-2h.5z"/><path d="M289.15 1018.8h3" stroke="#000" stroke-width="2" fill="none"/><path d="M1156.15 528.15c17.67 0 32 17.9 32 40s-14.33 40-32 40h-96c-17.67 0-32-17.9-32-40s14.33-40 32-40z" stroke="#000" stroke-width="2" fill="#fff"/><g><use xlink:href="#G" transform="matrix(1,0,0,1,1033.1481481481483,533.1481481481482) translate(59 38.6)"/></g><path d="M1028.6 556.15H927.16" stroke="#000" stroke-width="2" fill="none"/><path d="M1029.66 555.97l-.22 1.18h-.83v-2h1.32z"/><path d="M927.15 556.15h-3M1035.4 595.18h-77.25v422.3h-29" stroke="#000" stroke-width="2" fill="none"/><path d="M1037.4 596.18h-2v-2h.52z"/><path d="M929.15 1017.48h-3" stroke="#000" stroke-width="2" fill="none"/><defs><path d="M30-248c87 1 191-15 191 75 0 78-77 80-158 76V0H30v-248zm33 125c57 0 124 11 124-50 0-59-68-47-124-48v98" id="H"/><path d="M114-163C36-179 61-72 57 0H25l-1-190h30c1 12-1 29 2 39 6-27 23-49 58-41v29" id="I"/><path d="M100-194c62-1 85 37 85 99 1 63-27 99-86 99S16-35 15-95c0-66 28-99 85-99zM99-20c44 1 53-31 53-75 0-43-8-75-51-75s-53 32-53 75 10 74 51 75" id="J"/><path d="M108 0H70L1-190h34L89-25l56-165h34" id="K"/><path d="M24-231v-30h32v30H24zM24 0v-190h32V0H24" id="L"/><path d="M85-194c31 0 48 13 60 33l-1-100h32l1 261h-30c-2-10 0-23-3-31C134-8 116 4 85 4 32 4 16-35 15-94c0-66 23-100 70-100zm9 24c-40 0-46 34-46 75 0 40 6 74 45 74 42 0 51-32 51-76 0-42-9-74-50-73" id="M"/><path d="M100-194c63 0 86 42 84 106H49c0 40 14 67 53 68 26 1 43-12 49-29l28 8c-11 28-37 45-77 45C44 4 14-33 15-96c1-61 26-98 85-98zm52 81c6-60-76-77-97-28-3 7-6 17-6 28h103" id="N"/><g id="a"><use transform="matrix(0.05,0,0,0.05,0,0)" xlink:href="#H"/><use transform="matrix(0.05,0,0,0.05,12,0)" xlink:href="#I"/><use transform="matrix(0.05,0,0,0.05,17.95,0)" xlink:href="#J"/><use transform="matrix(0.05,0,0,0.05,27.950000000000003,0)" xlink:href="#K"/><use transform="matrix(0.05,0,0,0.05,36.95,0)" xlink:href="#L"/><use transform="matrix(0.05,0,0,0.05,40.900000000000006,0)" xlink:href="#M"/><use transform="matrix(0.05,0,0,0.05,50.900000000000006,0)" xlink:href="#N"/><use transform="matrix(0.05,0,0,0.05,60.900000000000006,0)" xlink:href="#I"/></g><path d="M140-251c81 0 123 46 123 126C263-46 219 4 140 4 59 4 17-45 17-125s42-126 123-126zm0 227c63 0 89-41 89-101s-29-99-89-99c-61 0-89 39-89 99S79-25 140-24" id="O"/><path d="M101-234c-31-9-42 10-38 44h38v23H63V0H32v-167H5v-23h27c-7-52 17-82 69-68v24" id="P"/><path d="M16-82v-28h88v28H16" id="Q"/><path d="M24 0v-261h32V0H24" id="R"/><path d="M177-190C167-65 218 103 67 71c-23-6-38-20-44-43l32-5c15 47 100 32 89-28v-30C133-14 115 1 83 1 29 1 15-40 15-95c0-56 16-97 71-98 29-1 48 16 59 35 1-10 0-23 2-32h30zM94-22c36 0 50-32 50-73 0-42-14-75-50-75-39 0-46 34-46 75s6 73 46 73" id="S"/><g id="b"><use transform="matrix(0.05,0,0,0.05,0,0)" xlink:href="#O"/><use transform="matrix(0.05,0,0,0.05,14,0)" xlink:href="#P"/><use transform="matrix(0.05,0,0,0.05,18.65,0)" xlink:href="#P"/><use transform="matrix(0.05,0,0,0.05,23.65,0)" xlink:href="#Q"/><use transform="matrix(0.05,0,0,0.05,29.599999999999994,0)" xlink:href="#R"/><use transform="matrix(0.05,0,0,0.05,33.55,0)" xlink:href="#N"/><use transform="matrix(0.05,0,0,0.05,43.55,0)" xlink:href="#M"/><use transform="matrix(0.05,0,0,0.05,53.54999999999999,0)" xlink:href="#S"/><use transform="matrix(0.05,0,0,0.05,63.54999999999999,0)" xlink:href="#N"/><use transform="matrix(0.05,0,0,0.05,73.55,0)" xlink:href="#I"/></g><path d="M141-36C126-15 110 5 73 4 37 3 15-17 15-53c-1-64 63-63 125-63 3-35-9-54-41-54-24 1-41 7-42 31l-33-3c5-37 33-52 76-52 45 0 72 20 72 64v82c-1 20 7 32 28 27v20c-31 9-61-2-59-35zM48-53c0 20 12 33 32 33 41-3 63-29 60-74-43 2-92-5-92 41" id="T"/><path d="M96-169c-40 0-48 33-48 73s9 75 48 75c24 0 41-14 43-38l32 2c-6 37-31 61-74 61-59 0-76-41-82-99-10-93 101-131 147-64 4 7 5 14 7 22l-32 3c-4-21-16-35-41-35" id="U"/><path d="M84 4C-5 8 30-112 23-190h32v120c0 31 7 50 39 49 72-2 45-101 50-169h31l1 190h-30c-1-10 1-25-2-33-11 22-28 36-60 37" id="V"/><path d="M117-194c89-4 53 116 60 194h-32v-121c0-31-8-49-39-48C34-167 62-67 57 0H25l-1-190h30c1 10-1 24 2 32 11-22 29-35 61-36" id="W"/><path d="M59-47c-2 24 18 29 38 22v24C64 9 27 4 27-40v-127H5v-23h24l9-43h21v43h35v23H59v120" id="X"/><g id="c"><use transform="matrix(0.05,0,0,0.05,0,0)" xlink:href="#T"/><use transform="matrix(0.05,0,0,0.05,10,0)" xlink:href="#U"/><use transform="matrix(0.05,0,0,0.05,19,0)" xlink:href="#U"/><use transform="matrix(0.05,0,0,0.05,28,0)" xlink:href="#J"/><use transform="matrix(0.05,0,0,0.05,38,0)" xlink:href="#V"/><use transform="matrix(0.05,0,0,0.05,48,0)" xlink:href="#W"/><use transform="matrix(0.05,0,0,0.05,58,0)" xlink:href="#X"/></g><path d="M205 0l-28-72H64L36 0H1l101-248h38L239 0h-34zm-38-99l-47-123c-12 45-31 82-46 123h93" id="Y"/><path d="M135-143c-3-34-86-38-87 0 15 53 115 12 119 90S17 21 10-45l28-5c4 36 97 45 98 0-10-56-113-15-118-90-4-57 82-63 122-42 12 7 21 19 24 35" id="Z"/><g id="d"><use transform="matrix(0.05,0,0,0.05,0,0)" xlink:href="#Y"/><use transform="matrix(0.05,0,0,0.05,12,0)" xlink:href="#Z"/><use transform="matrix(0.05,0,0,0.05,21,0)" xlink:href="#Z"/><use transform="matrix(0.05,0,0,0.05,30,0)" xlink:href="#N"/><use transform="matrix(0.05,0,0,0.05,40,0)" xlink:href="#X"/></g><g id="e"><use transform="matrix(0.05,0,0,0.05,0,0)" xlink:href="#O"/><use transform="matrix(0.05,0,0,0.05,14,0)" xlink:href="#W"/><use transform="matrix(0.05,0,0,0.05,24,0)" xlink:href="#Q"/><use transform="matrix(0.05,0,0,0.05,29.950000000000003,0)" xlink:href="#R"/><use transform="matrix(0.05,0,0,0.05,33.9,0)" xlink:href="#N"/><use transform="matrix(0.05,0,0,0.05,43.9,0)" xlink:href="#M"/><use transform="matrix(0.05,0,0,0.05,53.900000000000006,0)" xlink:href="#S"/><use transform="matrix(0.05,0,0,0.05,63.900000000000006,0)" xlink:href="#N"/><use transform="matrix(0.05,0,0,0.05,73.9,0)" xlink:href="#I"/></g><path d="M27 0v-27h64v-190l-56 39v-29l58-41h29v221h61V0H27" id="aa"/><path d="M33 0v-38h34V0H33" id="ab"/><g id="f"><use transform="matrix(0.05,0,0,0.05,0,0)" xlink:href="#aa"/><use transform="matrix(0.05,0,0,0.05,10,0)" xlink:href="#ab"/></g><path d="M143 4C61 4 22-44 18-125c-5-107 100-154 193-111 17 8 29 25 37 43l-32 9c-13-25-37-40-76-40-61 0-88 39-88 99 0 61 29 100 91 101 35 0 62-11 79-27v-45h-74v-28h105v86C228-13 192 4 143 4" id="ac"/><g id="g"><use transform="matrix(0.05,0,0,0.05,0,0)" xlink:href="#ac"/><use transform="matrix(0.05,0,0,0.05,14,0)" xlink:href="#I"/><use transform="matrix(0.05,0,0,0.05,19.95,0)" xlink:href="#T"/><use transform="matrix(0.05,0,0,0.05,29.950000000000003,0)" xlink:href="#W"/><use transform="matrix(0.05,0,0,0.05,39.95,0)" xlink:href="#X"/></g><g id="h"><use transform="matrix(0.05,0,0,0.05,0,0)" xlink:href="#J"/><use transform="matrix(0.05,0,0,0.05,10,0)" xlink:href="#W"/><use transform="matrix(0.05,0,0,0.05,20,0)" xlink:href="#Q"/><use transform="matrix(0.05,0,0,0.05,25.950000000000003,0)" xlink:href="#R"/><use transform="matrix(0.05,0,0,0.05,29.899999999999995,0)" xlink:href="#N"/><use transform="matrix(0.05,0,0,0.05,39.9,0)" xlink:href="#M"/><use transform="matrix(0.05,0,0,0.05,49.9,0)" xlink:href="#S"/><use transform="matrix(0.05,0,0,0.05,59.900000000000006,0)" xlink:href="#N"/><use transform="matrix(0.05,0,0,0.05,69.9,0)" xlink:href="#I"/></g><path d="M101-251c82-7 93 87 43 132L82-64C71-53 59-42 53-27h129V0H18c2-99 128-94 128-182 0-28-16-43-45-43s-46 15-49 41l-32-3c6-41 34-60 81-64" id="ad"/><path d="M115-194c53 0 69 39 70 98 0 66-23 100-70 100C84 3 66-7 56-30L54 0H23l1-261h32v101c10-23 28-34 59-34zm-8 174c40 0 45-34 45-75 0-40-5-75-45-74-42 0-51 32-51 76 0 43 10 73 51 73" id="ae"/><g id="j"><use transform="matrix(0.05,0,0,0.05,0,0)" xlink:href="#ad"/><use transform="matrix(0.05,0,0,0.05,10,0)" xlink:href="#ae"/><use transform="matrix(0.05,0,0,0.05,20,0)" xlink:href="#ab"/></g><path d="M33 0v-248h34V0H33" id="af"/><g id="k"><use transform="matrix(0.05,0,0,0.05,0,0)" xlink:href="#af"/><use transform="matrix(0.05,0,0,0.05,5,0)" xlink:href="#Z"/><use transform="matrix(0.05,0,0,0.05,14,0)" xlink:href="#Z"/><use transform="matrix(0.05,0,0,0.05,23,0)" xlink:href="#V"/><use transform="matrix(0.05,0,0,0.05,33,0)" xlink:href="#N"/></g><g id="l"><use transform="matrix(0.05,0,0,0.05,0,0)" xlink:href="#Y"/><use transform="matrix(0.05,0,0,0.05,12,0)" xlink:href="#Z"/><use transform="matrix(0.05,0,0,0.05,21,0)" xlink:href="#Z"/><use transform="matrix(0.05,0,0,0.05,30,0)" xlink:href="#N"/><use transform="matrix(0.05,0,0,0.05,40,0)" xlink:href="#X"/></g><g id="n"><use transform="matrix(0.05,0,0,0.05,0,0)" xlink:href="#O"/><use transform="matrix(0.05,0,0,0.05,14,0)" xlink:href="#W"/><use transform="matrix(0.05,0,0,0.05,24,0)" xlink:href="#Q"/><use transform="matrix(0.05,0,0,0.05,29.950000000000003,0)" xlink:href="#R"/><use transform="matrix(0.05,0,0,0.05,33.9,0)" xlink:href="#N"/><use transform="matrix(0.05,0,0,0.05,43.9,0)" xlink:href="#M"/><use transform="matrix(0.05,0,0,0.05,53.900000000000006,0)" xlink:href="#S"/><use transform="matrix(0.05,0,0,0.05,63.900000000000006,0)" xlink:href="#N"/><use transform="matrix(0.05,0,0,0.05,73.9,0)" xlink:href="#I"/></g><path d="M126-127c33 6 58 20 58 59 0 88-139 92-164 29-3-8-5-16-6-25l32-3c6 27 21 44 54 44 32 0 52-15 52-46 0-38-36-46-79-43v-28c39 1 72-4 72-42 0-27-17-43-46-43-28 0-47 15-49 41l-32-3c6-42 35-63 81-64 48-1 79 21 79 65 0 36-21 52-52 59" id="ag"/><g id="o"><use transform="matrix(0.05,0,0,0.05,0,0)" xlink:href="#ag"/><use transform="matrix(0.05,0,0,0.05,10,0)" xlink:href="#ab"/></g><path d="M127-220V0H93v-220H8v-28h204v28h-85" id="ah"/><g id="p"><use transform="matrix(0.05,0,0,0.05,0,0)" xlink:href="#ah"/><use transform="matrix(0.05,0,0,0.05,10.3,0)" xlink:href="#I"/><use transform="matrix(0.05,0,0,0.05,16.25,0)" xlink:href="#T"/><use transform="matrix(0.05,0,0,0.05,26.25,0)" xlink:href="#W"/><use transform="matrix(0.05,0,0,0.05,36.25,0)" xlink:href="#Z"/><use transform="matrix(0.05,0,0,0.05,45.25,0)" xlink:href="#P"/><use transform="matrix(0.05,0,0,0.05,50.25,0)" xlink:href="#N"/><use transform="matrix(0.05,0,0,0.05,60.25,0)" xlink:href="#I"/></g><path d="M30-248c118-7 216 8 213 122C240-48 200 0 122 0H30v-248zM63-27c89 8 146-16 146-99s-60-101-146-95v194" id="ai"/><path d="M115-194c55 1 70 41 70 98S169 2 115 4C84 4 66-9 55-30l1 105H24l-1-265h31l2 30c10-21 28-34 59-34zm-8 174c40 0 45-34 45-75s-6-73-45-74c-42 0-51 32-51 76 0 43 10 73 51 73" id="aj"/><g id="r"><use transform="matrix(0.05,0,0,0.05,0,0)" xlink:href="#ai"/><use transform="matrix(0.05,0,0,0.05,12.950000000000001,0)" xlink:href="#N"/><use transform="matrix(0.05,0,0,0.05,22.950000000000003,0)" xlink:href="#aj"/><use transform="matrix(0.05,0,0,0.05,32.95,0)" xlink:href="#J"/><use transform="matrix(0.05,0,0,0.05,42.95,0)" xlink:href="#X"/></g><g id="s"><use transform="matrix(0.05,0,0,0.05,0,0)" xlink:href="#ad"/><use transform="matrix(0.05,0,0,0.05,10,0)" xlink:href="#T"/><use transform="matrix(0.05,0,0,0.05,20,0)" xlink:href="#ab"/></g><path d="M212-179c-10-28-35-45-73-45-59 0-87 40-87 99 0 60 29 101 89 101 43 0 62-24 78-52l27 14C228-24 195 4 139 4 59 4 22-46 18-125c-6-104 99-153 187-111 19 9 31 26 39 46" id="ak"/><path d="M210-169c-67 3-38 105-44 169h-31v-121c0-29-5-50-35-48C34-165 62-65 56 0H25l-1-190h30c1 10-1 24 2 32 10-44 99-50 107 0 11-21 27-35 58-36 85-2 47 119 55 194h-31v-121c0-29-5-49-35-48" id="al"/><g id="t"><use transform="matrix(0.05,0,0,0.05,0,0)" xlink:href="#ak"/><use transform="matrix(0.05,0,0,0.05,12.950000000000001,0)" xlink:href="#J"/><use transform="matrix(0.05,0,0,0.05,22.950000000000003,0)" xlink:href="#al"/><use transform="matrix(0.05,0,0,0.05,37.900000000000006,0)" xlink:href="#al"/><use transform="matrix(0.05,0,0,0.05,52.85,0)" xlink:href="#L"/><use transform="matrix(0.05,0,0,0.05,56.80000000000001,0)" xlink:href="#X"/></g><g id="u"><use transform="matrix(0.05,0,0,0.05,0,0)" xlink:href="#Y"/><use transform="matrix(0.05,0,0,0.05,12,0)" xlink:href="#Z"/><use transform="matrix(0.05,0,0,0.05,21,0)" xlink:href="#Z"/><use transform="matrix(0.05,0,0,0.05,30,0)" xlink:href="#N"/><use transform="matrix(0.05,0,0,0.05,40,0)" xlink:href="#X"/></g><g id="w"><use transform="matrix(0.05,0,0,0.05,0,0)" xlink:href="#J"/><use transform="matrix(0.05,0,0,0.05,10,0)" xlink:href="#P"/><use transform="matrix(0.05,0,0,0.05,14.65,0)" xlink:href="#P"/><use transform="matrix(0.05,0,0,0.05,19.65,0)" xlink:href="#Q"/><use transform="matrix(0.05,0,0,0.05,25.599999999999998,0)" xlink:href="#R"/><use transform="matrix(0.05,0,0,0.05,29.549999999999997,0)" xlink:href="#N"/><use transform="matrix(0.05,0,0,0.05,39.55,0)" xlink:href="#M"/><use transform="matrix(0.05,0,0,0.05,49.55,0)" xlink:href="#S"/><use transform="matrix(0.05,0,0,0.05,59.54999999999999,0)" xlink:href="#N"/><use transform="matrix(0.05,0,0,0.05,69.55,0)" xlink:href="#I"/></g><path d="M155-56V0h-30v-56H8v-25l114-167h33v167h35v25h-35zm-30-156c-27 46-58 90-88 131h88v-131" id="am"/><g id="x"><use transform="matrix(0.05,0,0,0.05,0,0)" xlink:href="#am"/><use transform="matrix(0.05,0,0,0.05,10,0)" xlink:href="#T"/><use transform="matrix(0.05,0,0,0.05,20,0)" xlink:href="#ab"/></g><path d="M185-189c-5-48-123-54-124 2 14 75 158 14 163 119 3 78-121 87-175 55-17-10-28-26-33-46l33-7c5 56 141 63 141-1 0-78-155-14-162-118-5-82 145-84 179-34 5 7 8 16 11 25" id="an"/><g id="y"><use transform="matrix(0.05,0,0,0.05,0,0)" xlink:href="#an"/><use transform="matrix(0.05,0,0,0.05,12,0)" xlink:href="#N"/><use transform="matrix(0.05,0,0,0.05,22,0)" xlink:href="#X"/><use transform="matrix(0.05,0,0,0.05,27,0)" xlink:href="#X"/><use transform="matrix(0.05,0,0,0.05,32,0)" xlink:href="#R"/><use transform="matrix(0.05,0,0,0.05,35.95,0)" xlink:href="#N"/></g><g id="z"><use transform="matrix(0.05,0,0,0.05,0,0)" xlink:href="#T"/><use transform="matrix(0.05,0,0,0.05,10,0)" xlink:href="#Z"/><use transform="matrix(0.05,0,0,0.05,19,0)" xlink:href="#Z"/><use transform="matrix(0.05,0,0,0.05,28,0)" xlink:href="#N"/><use transform="matrix(0.05,0,0,0.05,38,0)" xlink:href="#X"/></g><g id="A"><use transform="matrix(0.05,0,0,0.05,0,0)" xlink:href="#J"/><use transform="matrix(0.05,0,0,0.05,10,0)" xlink:href="#W"/><use transform="matrix(0.05,0,0,0.05,20,0)" xlink:href="#Q"/><use transform="matrix(0.05,0,0,0.05,25.950000000000003,0)" xlink:href="#R"/><use transform="matrix(0.05,0,0,0.05,29.899999999999995,0)" xlink:href="#N"/><use transform="matrix(0.05,0,0,0.05,39.9,0)" xlink:href="#M"/><use transform="matrix(0.05,0,0,0.05,49.9,0)" xlink:href="#S"/><use transform="matrix(0.05,0,0,0.05,59.900000000000006,0)" xlink:href="#N"/><use transform="matrix(0.05,0,0,0.05,69.9,0)" xlink:href="#I"/></g><g id="B"><use transform="matrix(0.05,0,0,0.05,0,0)" xlink:href="#am"/><use transform="matrix(0.05,0,0,0.05,10,0)" xlink:href="#ae"/><use transform="matrix(0.05,0,0,0.05,20,0)" xlink:href="#ab"/></g><path d="M233-177c-1 41-23 64-60 70L243 0h-38l-65-103H63V0H30v-248c88 3 205-21 203 71zM63-129c60-2 137 13 137-47 0-61-80-42-137-45v92" id="ao"/><g id="C"><use transform="matrix(0.05,0,0,0.05,0,0)" xlink:href="#ao"/><use transform="matrix(0.05,0,0,0.05,12.950000000000001,0)" xlink:href="#N"/><use transform="matrix(0.05,0,0,0.05,22.950000000000003,0)" xlink:href="#R"/><use transform="matrix(0.05,0,0,0.05,26.900000000000002,0)" xlink:href="#N"/><use transform="matrix(0.05,0,0,0.05,36.900000000000006,0)" xlink:href="#T"/><use transform="matrix(0.05,0,0,0.05,46.900000000000006,0)" xlink:href="#Z"/><use transform="matrix(0.05,0,0,0.05,55.900000000000006,0)" xlink:href="#N"/></g><g id="D"><use transform="matrix(0.05,0,0,0.05,0,0)" xlink:href="#O"/><use transform="matrix(0.05,0,0,0.05,14,0)" xlink:href="#P"/><use transform="matrix(0.05,0,0,0.05,18.65,0)" xlink:href="#P"/><use transform="matrix(0.05,0,0,0.05,23.65,0)" xlink:href="#Q"/><use transform="matrix(0.05,0,0,0.05,29.599999999999994,0)" xlink:href="#R"/><use transform="matrix(0.05,0,0,0.05,33.55,0)" xlink:href="#N"/><use transform="matrix(0.05,0,0,0.05,43.55,0)" xlink:href="#M"/><use transform="matrix(0.05,0,0,0.05,53.54999999999999,0)" xlink:href="#S"/><use transform="matrix(0.05,0,0,0.05,63.54999999999999,0)" xlink:href="#N"/><use transform="matrix(0.05,0,0,0.05,73.55,0)" xlink:href="#I"/></g><g id="E"><use transform="matrix(0.05,0,0,0.05,0,0)" xlink:href="#O"/><use transform="matrix(0.05,0,0,0.05,14,0)" xlink:href="#W"/><use transform="matrix(0.05,0,0,0.05,24,0)" xlink:href="#Q"/><use transform="matrix(0.05,0,0,0.05,29.950000000000003,0)" xlink:href="#R"/><use transform="matrix(0.05,0,0,0.05,33.9,0)" xlink:href="#N"/><use transform="matrix(0.05,0,0,0.05,43.9,0)" xlink:href="#M"/><use transform="matrix(0.05,0,0,0.05,53.900000000000006,0)" xlink:href="#S"/><use transform="matrix(0.05,0,0,0.05,63.900000000000006,0)" xlink:href="#N"/><use transform="matrix(0.05,0,0,0.05,73.9,0)" xlink:href="#I"/></g><g id="F"><use transform="matrix(0.05,0,0,0.05,0,0)" xlink:href="#Y"/><use transform="matrix(0.05,0,0,0.05,12,0)" xlink:href="#R"/><use transform="matrix(0.05,0,0,0.05,15.949999999999998,0)" xlink:href="#L"/><use transform="matrix(0.05,0,0,0.05,19.9,0)" xlink:href="#U"/><use transform="matrix(0.05,0,0,0.05,28.899999999999995,0)" xlink:href="#N"/></g><path d="M160-131c35 5 61 23 61 61C221 17 115-2 30 0v-248c76 3 177-17 177 60 0 33-19 50-47 57zm-97-11c50-1 110 9 110-42 0-47-63-36-110-37v79zm0 115c55-2 124 14 124-45 0-56-70-42-124-44v89" id="ap"/><g id="G"><use transform="matrix(0.05,0,0,0.05,0,0)" xlink:href="#ap"/><use transform="matrix(0.05,0,0,0.05,12,0)" xlink:href="#J"/><use transform="matrix(0.05,0,0,0.05,22,0)" xlink:href="#ae"/></g></defs></g></svg>